<?xml version="1.0" encoding="UTF-8"?>
<svg width="16px" height="16px" viewBox="0 0 16 16" version="1.1" xmlns="http://www.w3.org/2000/svg" xmlns:xlink="http://www.w3.org/1999/xlink">
    <title>icon-page-forward</title>
    <g id="页面-1" stroke="none" stroke-width="1" fill="none" fill-rule="evenodd">
        <g id="zCloud-icon更新对照表" transform="translate(-2612.000000, -1255.000000)" fill="#000000" fill-rule="nonzero">
            <g id="icon-page-forward" transform="translate(2612.000000, 1255.000000)">
                <rect opacity="0" x="8.18545232e-12" y="0" width="16" height="16"></rect>
                <path d="M0.200820415,0.24337682 C0.482920289,-0.0651948584 0.957490406,-0.0826889057 1.26080245,0.204302772 L1.26080245,0.204302772 L8.76026449,7.30208158 C8.91118009,7.44446853 8.99786396,7.64375189 9.00003753,7.8531361 C9.00205815,8.06252031 8.91938373,8.26355922 8.77135134,8.40904504 L8.77135134,8.40904504 L1.2718893,15.8057201 C0.972027279,16.0785718 0.513959346,16.0621091 0.23377057,15.7684108 C-0.0464182072,15.4747124 -0.0489019928,15.0084174 0.22814157,14.711647 L0.22814157,14.711647 L7.16059043,7.87167632 L0.23922842,1.32173969 C-0.0640836093,1.03474799 -0.0812794584,0.551948499 0.200820415,0.24337682 Z M7.20082042,0.24337682 C7.48292029,-0.0651948584 7.95749041,-0.0826889057 8.26080245,0.204302772 L8.26080245,0.204302772 L15.7602645,7.30208158 C15.9111801,7.44446853 15.997864,7.64375189 16.0000375,7.8531361 C16.0020582,8.06252031 15.9193837,8.26355922 15.7713513,8.40904504 L15.7713513,8.40904504 L8.2718893,15.8057201 C7.97202728,16.0785718 7.51395935,16.0621091 7.23377057,15.7684108 C6.95358179,15.4747124 6.95109801,15.0084174 7.22814157,14.711647 L7.22814157,14.711647 L14.1605904,7.87167632 L7.23922842,1.32173969 C6.93591639,1.03474799 6.91872054,0.551948499 7.20082042,0.24337682 Z" id="形状结合"></path>
            </g>
        </g>
    </g>
</svg>