<?xml version="1.0" encoding="UTF-8"?>
<svg width="16px" height="16px" viewBox="0 0 16 16" version="1.1" xmlns="http://www.w3.org/2000/svg" xmlns:xlink="http://www.w3.org/1999/xlink">
    <title>icon-script-center</title>
    <g id="恩墨图标库" stroke="none" stroke-width="1" fill="none" fill-rule="evenodd">
        <g id="zCloud-icon更新对照表" transform="translate(-397.000000, -905.000000)" fill="#000000" fill-rule="nonzero">
            <g id="icon-script-center" transform="translate(397.000000, 905.000000)">
                <rect opacity="0" x="0" y="0" width="16" height="16"></rect>
                <path d="M6.63111111,12.2931034 L6.63111111,12.2931034 C6.72,12.3275862 6.80888889,12.3448276 6.88888889,12.3448276 C7.18222222,12.3448276 7.44888889,12.1637931 7.54666667,11.9051724 L9.76,6.36206897 C9.90222222,6.00862069 9.72444444,5.60344828 9.35111111,5.46551724 C8.98666667,5.32758621 8.56888889,5.5 8.42666667,5.86206897 L6.22222222,11.4051724 C6.08888889,11.7586207 6.26666667,12.1551724 6.63111111,12.2931034 Z M10.24,7.86206897 L11.5288889,8.87931034 L10.24,9.89655172 C10.0977778,10.0086207 10,10.1724138 9.98222222,10.362069 C9.96444444,10.5431034 10.0177778,10.7327586 10.1333333,10.8706897 C10.2755556,11.0344828 10.4711111,11.1293103 10.6844444,11.1293103 C10.8533333,11.1293103 11.0044444,11.0775862 11.1288889,10.9741379 L13.0933333,9.42241379 C13.2622222,9.29310345 13.36,9.09482759 13.36,8.88793103 C13.36,8.68103448 13.2622222,8.48275862 13.0933333,8.35344828 L11.1288889,6.80172414 C10.8177778,6.56034483 10.3733333,6.61206897 10.1333333,6.90517241 C9.89333333,7.18965517 9.93777778,7.62931034 10.24,7.86206897 Z M14.7555556,0 L1.24444444,0 C0.56,0 0,0.543103448 0,1.20689655 L0,13.7931034 C0,14.4568966 0.56,15 1.24444444,15 L14.7555556,15 C15.44,15 16,14.4568966 16,13.7931034 L16,1.20689655 C16,0.543103448 15.44,0 14.7555556,0 Z M14.5777778,13.6206897 L1.42222222,13.6206897 L1.42222222,4.22413793 L14.5777778,4.22413793 L14.5777778,13.6206897 Z M14.5777778,2.84482759 L1.42222222,2.84482759 L1.42222222,1.37931034 L14.5777778,1.37931034 L14.5777778,2.84482759 Z M2.82666667,9.40517241 L4.79111111,10.9568966 C4.91555556,11.0603448 5.07555556,11.112069 5.23555556,11.112069 C5.44888889,11.112069 5.64444444,11.0172414 5.78666667,10.8534483 C6.03555556,10.5517241 5.98222222,10.1206897 5.68,9.88793103 L4.39111111,8.87931034 L5.68888889,7.86206897 C5.99111111,7.61206897 6.03555556,7.18103448 5.78666667,6.88793103 C5.67111111,6.75 5.50222222,6.65517241 5.30666667,6.63793103 C5.12,6.62068966 4.92444444,6.67241379 4.78222222,6.78448276 L2.81777778,8.3362069 C2.64888889,8.46551724 2.55111111,8.6637931 2.55111111,8.87068966 C2.56,9.0862069 2.65777778,9.27586207 2.82666667,9.40517241 Z"></path>
            </g>
        </g>
    </g>
</svg>