<?xml version="1.0" encoding="UTF-8"?>
<svg width="16px" height="16px" viewBox="0 0 16 16" version="1.1" xmlns="http://www.w3.org/2000/svg" xmlns:xlink="http://www.w3.org/1999/xlink">
    <title>icon-platform</title>
    <g id="恩墨图标库" stroke="none" stroke-width="1" fill="none" fill-rule="evenodd">
        <g id="zCloud-icon更新对照表" transform="translate(-397.000000, -1205.000000)" fill="#000000" fill-rule="nonzero">
            <g id="icon-platform" transform="translate(397.000000, 1205.000000)">
                <rect id="矩形" opacity="0" x="0" y="0" width="16" height="16"></rect>
                <path d="M14.832,11.224 L14.288,11.224 L14.288,9.952 C14.288,9.312 13.768,8.784 13.12,8.784 L8.672,8.784 L8.672,7.216 L11.896,7.216 C12.536,7.216 13.064,6.696 13.064,6.048 L13.064,1.168 C13.064,0.528 12.544,0 11.896,0 L4.096,0 C3.456,0 2.928,0.52 2.928,1.168 L2.928,6.048 C2.928,6.688 3.448,7.216 4.096,7.216 L7.32,7.216 L7.32,8.784 L2.872,8.784 C2.232,8.784 1.704,9.304 1.704,9.952 L1.704,11.224 L1.168,11.224 C0.528,11.224 0,11.744 0,12.392 L0,14.832 C0,15.48 0.52,16 1.168,16 L3.608,16 C4.248,16 4.776,15.48 4.776,14.832 L4.776,12.392 C4.776,11.752 4.256,11.224 3.608,11.224 L3.064,11.224 L3.064,10.144 L7.32,10.144 L7.32,11.224 L6.776,11.224 C6.136,11.224 5.608,11.744 5.608,12.392 L5.608,14.832 C5.608,15.472 6.128,16 6.776,16 L9.216,16 C9.856,16 10.384,15.48 10.384,14.832 L10.384,12.392 C10.384,11.752 9.864,11.224 9.216,11.224 L8.672,11.224 L8.672,10.144 L12.928,10.144 L12.928,11.224 L12.384,11.224 C11.744,11.224 11.216,11.744 11.216,12.392 L11.216,14.832 C11.216,15.472 11.736,16 12.384,16 L14.824,16 C15.464,16 15.9920911,15.48 15.9920911,14.832 L15.9920911,12.392 C16,11.752 15.48,11.224 14.832,11.224 L14.832,11.224 Z M3.416,12.584 L3.416,14.64 L1.36,14.64 L1.36,12.584 L3.416,12.584 Z M9.032,12.584 L9.032,14.64 L6.968,14.64 L6.968,12.584 L9.032,12.584 Z M4.288,5.856 L4.288,1.36 L11.712,1.36 L11.712,5.856 L4.288,5.856 Z M14.64,14.64 L12.584,14.64 L12.584,12.584 L14.64,12.584 L14.64,14.64 Z M8.296,4.288 L10.632,4.288 L10.632,2.928 L8.296,2.928 L8.296,4.288 Z M5.368,4.288 L7.704,4.288 L7.704,2.928 L5.368,2.928 L5.368,4.288 L5.368,4.288 Z" id="形状"></path>
            </g>
        </g>
    </g>
</svg>