<?xml version="1.0" encoding="UTF-8"?>
<svg width="16px" height="16px" viewBox="0 0 16 16" version="1.1" xmlns="http://www.w3.org/2000/svg" xmlns:xlink="http://www.w3.org/1999/xlink">
    <title>icon-search</title>
    <g id="页面-1" stroke="none" stroke-width="1" fill="none" fill-rule="evenodd">
        <g id="zCloud-icon更新对照表" transform="translate(-1934.000000, -705.000000)" fill="#000000" fill-rule="nonzero">
            <g id="icon-search" transform="translate(1934.000000, 705.000000)">
                <rect id="矩形" opacity="0" x="0" y="0" width="16" height="16"></rect>
                <path d="M1.36393137,6.9579609 C1.36393137,3.88351903 3.80671858,1.39119145 6.82004932,1.39119145 C9.83338006,1.39119145 12.2761673,3.88351903 12.2761673,6.9579609 C12.2761673,10.0324028 9.83338006,12.5247303 6.82004932,12.5247303 C3.80671858,12.5247303 1.36393137,10.0324028 1.36393137,6.9579609 M14.8288244,14.8409778 L11.7772638,11.7275308 C12.9742594,10.439934 13.64108,8.73261786 13.6400986,6.9579609 C13.6400986,5.11259496 12.9216011,3.3428104 11.6426674,2.03793963 C10.3637338,0.733068858 8.62912749,4.61296938e-08 6.82044216,4.61296938e-08 C5.01162071,-0.000212523392 3.27681257,0.73276238 1.99770897,2.0376562 C0.718605379,3.34255001 4.61296938e-08,5.11245606 4.61296938e-08,6.9579609 C-0.000208298117,8.80346572 0.718197155,10.5734562 1.9971534,11.8785004 C3.27610965,13.1835445 5.01083502,13.9167233 6.81965648,13.9167233 C8.22597963,13.9176265 9.5977567,13.4721983 10.7448873,12.642166 L13.8640158,15.8253529 C14.1346541,16.0691884 14.5444905,16.0562168 14.7997949,15.7957347 C15.0550993,15.5352526 15.0678132,15.1171046 14.8288244,14.8409778" id="形状"></path>
            </g>
        </g>
    </g>
</svg>