<?xml version="1.0" encoding="UTF-8"?>
<svg width="16px" height="16px" viewBox="0 0 16 16" version="1.1" xmlns="http://www.w3.org/2000/svg" xmlns:xlink="http://www.w3.org/1999/xlink">
    <title>icon-setting</title>
    <g id="页面-1" stroke="none" stroke-width="1" fill="none" fill-rule="evenodd">
        <g id="zCloud-icon更新对照表" transform="translate(-2612.000000, -905.000000)" fill="#000000" fill-rule="nonzero">
            <g id="icon-setting" transform="translate(2612.000000, 905.000000)">
                <rect opacity="0" x="0" y="0" width="15.9843902" height="16"></rect>
                <path d="M14.5138343,9.1424 C13.7118107,9.26126884 13.0086194,9.74192286 12.6060974,10.4464 C12.1985094,11.1470532 12.1337296,11.9959068 12.4302691,12.7504 C11.7473645,13.362772 10.9451478,13.8269213 10.0741699,14.1136 C9.56983111,13.4786616 8.80257726,13.110138 7.99220311,13.1136 C7.1816025,13.1101305 6.41410168,13.4786312 5.90943707,14.1136 C5.03851614,13.826794 4.23632432,13.3626591 3.55333794,12.7504 C3.84987737,11.9959068 3.78509765,11.1470532 3.37750965,10.4464 C2.97515513,9.74212388 2.27230112,9.26149906 1.47057189,9.1424 C1.28506448,8.24362401 1.28506448,7.31637599 1.47057189,6.4176 C2.27250653,6.29850362 2.97560749,5.81791135 3.37830887,5.1136 C3.78591082,4.4128 3.84984838,3.564 3.55333794,2.8096 C4.2361707,2.19694121 5.03839243,1.73251659 5.90943707,1.4456 C6.41401759,2.08077331 7.18149363,2.44955694 7.99220311,2.4464 C8.81859609,2.4464 9.57465775,2.0736 10.0741699,1.4456 C10.9452811,1.73236784 11.7475319,2.19680928 12.4302691,2.8096 C12.1345578,3.564 12.1984954,4.4128 12.6060974,5.1136 C13.0086311,5.81771047 13.7113949,6.29827358 14.5130351,6.4176 C14.6994275,7.31601575 14.6994275,8.24318425 14.5130351,9.1416 M15.6822933,5.5944 C15.5983433,5.29103477 15.3126947,5.08871182 14.9989606,5.1104 C14.4930496,5.14488638 14.0119275,4.88700163 13.7601703,4.4464 C13.5051134,4.00771319 13.5221738,3.46186973 13.8041274,3.04 C13.9769861,2.77906057 13.94506,2.43285655 13.7274023,2.208 C12.6945249,1.14104154 11.384819,0.38359594 9.9454956,0.0208 C9.64153051,-0.0561899355 9.32513864,0.0898258252 9.18623707,0.3712 C8.9624556,0.8272 8.49890828,1.1152 7.99220311,1.1136 C7.48505704,1.11523828 7.02145878,0.826992418 6.79816916,0.3712 C6.65904267,0.0900572305 6.34284598,-0.0558684506 6.03891063,0.0208 C4.59961202,0.38321214 3.28987461,1.14039894 2.25700389,2.2072 C2.03850704,2.43231023 2.00654977,2.77951851 2.18027882,3.0408 C2.46160409,3.4624 2.47918692,4.0088 2.22343668,4.4464 C1.97168253,4.8864 1.49055238,5.1448 0.984646431,5.1104 C0.670717712,5.08645021 0.384135748,5.28933609 0.302112968,5.5936 C0.100676225,6.30513807 -0.000997875607,7.04124509 6.01632564e-07,7.7808 C6.01632564e-07,8.5232 0.10150887,9.2592 0.302112968,9.9664 C0.386850489,10.2687571 0.671609459,10.4703524 0.984646431,10.4496 C1.49004383,10.417312 1.97007421,10.6744587 2.22359139,11.1132886 C2.47710857,11.5521184 2.46032707,12.0968401 2.18027882,12.5192 C2.00698527,12.7803106 2.03892695,13.1270164 2.25700389,13.352 C3.28961144,14.4191387 4.59945132,15.1763848 6.03891063,15.5384 C6.34267749,15.6155162 6.6590043,15.4698637 6.79816916,15.1888 C7.02195063,14.7328 7.48549794,14.4448 7.99220311,14.4472 C8.50210516,14.4472 8.95925872,14.7312 9.18623707,15.1888 C9.32530126,15.4696 9.64179219,15.616 9.9454956,15.5392 C11.3849636,15.176761 12.6947616,14.4192621 13.7274023,13.352 C13.9454793,13.1270164 13.977421,12.7803106 13.8041274,12.5192 C13.5224578,12.0978267 13.5053971,11.5525918 13.7601703,11.1144 C14.0100223,10.6717563 14.4923708,10.4129027 14.9989606,10.4496 C15.3116742,10.4685736 15.5956557,10.2677639 15.6822933,9.9664 C15.8828974,9.2544 15.9843982,8.52 15.9843982,7.7808 C15.9843982,7.0384 15.8820981,6.3032 15.6822933,5.5944 M7.99220311,9.78 C6.88944116,9.77823808 5.99591453,8.88383887 5.99415433,7.78 C5.99415433,6.676 6.89087863,5.78 7.99220311,5.78 C9.0935276,5.78 9.99025189,6.676 9.99025189,7.78 C9.99025189,8.8816 9.0935276,9.78 7.99220311,9.78 M7.99220311,4.4464 C6.15345089,4.44772366 4.66317778,5.93945211 4.66185541,7.78 C4.66361776,9.62036524 6.15363335,11.1118359 7.99220311,11.1136 C9.83059052,11.1113959 11.3203489,9.62018271 11.3225508,7.78 C11.3212285,5.93945211 9.83095534,4.44772366 7.99220311,4.4464"></path>
            </g>
        </g>
    </g>
</svg>