<?xml version="1.0" encoding="UTF-8"?>
<svg width="16px" height="16px" viewBox="0 0 16 16" version="1.1" xmlns="http://www.w3.org/2000/svg" xmlns:xlink="http://www.w3.org/1999/xlink">
    <title>icon-oracle-modular</title>
    <g id="恩墨图标库" stroke="none" stroke-width="1" fill="none" fill-rule="evenodd">
        <g id="zCloud-icon更新对照表" transform="translate(-397.000000, -1255.000000)" fill="#000000" fill-rule="nonzero">
            <g id="icon-oracle-modular" transform="translate(397.000000, 1255.000000)">
                <rect id="矩形" opacity="0" x="0" y="0" width="16" height="16"></rect>
                <path d="M14.1712,0.56 C15.1816064,0.561324256 16,1.38079268 16,2.3912 L16,13.612 C15.9991186,14.6217826 15.1809821,15.4402769 14.1712,15.4416 L1.828,15.4416 C0.818401015,15.439396 0.000879342255,14.620801 0,13.6112 L0,2.3904 C0.00088142408,1.38105924 0.818659719,0.562923052 1.828,0.5616 L14.1712,0.56 Z M14.1712,1.9744 L1.828,1.9744 C1.59856203,1.97484123 1.4128,2.1609616 1.4128,2.3904 L1.4128,5.0504 L13.0496,5.0504 C13.4266748,5.06835085 13.7231714,5.37929816 13.7231714,5.7568 C13.7231714,6.13430184 13.4266748,6.44524915 13.0496,6.4632 L1.4128,6.4632 L1.4128,9.5384 L13.0496,9.5384 C13.4266748,9.55635085 13.7231714,9.86729816 13.7231714,10.2448 C13.7231714,10.6223018 13.4266748,10.9332491 13.0496,10.9512 L1.4128,10.9512 L1.4128,13.6112 C1.4128,13.8416 1.5992,14.0272 1.8288,14.0272 L14.1712,14.0272 C14.4009505,14.0272 14.5872,13.8409505 14.5872,13.6112 L14.5872,2.3904 C14.5872,2.16064954 14.4009505,1.9744 14.1712,1.9744 L14.1712,1.9744 Z M4.3536,11.7824 C4.7306748,11.8003509 5.02717144,12.1112982 5.02717144,12.4888 C5.02717144,12.8663018 4.7306748,13.1772491 4.3536,13.1952 L3.232,13.1952 C2.8549252,13.1772491 2.55842856,12.8663018 2.55842856,12.4888 C2.55842856,12.1112982 2.8549252,11.8003509 3.232,11.7824 L4.3536,11.7824 Z M13.0496,11.7824 C13.4266748,11.8003509 13.7231714,12.1112982 13.7231714,12.4888 C13.7231714,12.8663018 13.4266748,13.1772491 13.0496,13.1952 L6.8784,13.1952 C6.5013252,13.1772491 6.20482856,12.8663018 6.20482856,12.4888 C6.20482856,12.1112982 6.5013252,11.8003509 6.8784,11.7824 L13.0496,11.7824 Z M4.3536,7.2944 C4.74373395,7.2944 5.06,7.61066605 5.06,8.0008 C5.06,8.39093395 4.74373395,8.7072 4.3536,8.7072 L3.232,8.7072 C2.85805557,8.68538803 2.56598058,8.37578003 2.56598058,8.0012 C2.56598058,7.62661997 2.85805557,7.31701197 3.232,7.2952 L4.3536,7.2944 Z M13.0496,7.2944 C13.4397339,7.2944 13.756,7.61066605 13.756,8.0008 C13.756,8.39093395 13.4397339,8.7072 13.0496,8.7072 L6.8784,8.7072 C6.50445557,8.68538803 6.21238058,8.37578003 6.21238058,8.0012 C6.21238058,7.62661997 6.50445557,7.31701197 6.8784,7.2952 L13.0496,7.2944 Z M4.3536,2.8064 C4.72754443,2.82821197 5.01961942,3.13781997 5.01961942,3.5124 C5.01961942,3.88698003 4.72754443,4.19658803 4.3536,4.2184 L3.232,4.2184 C2.8549252,4.20044915 2.55842856,3.88950184 2.55842856,3.512 C2.55842856,3.13449816 2.8549252,2.82355085 3.232,2.8056 L4.3536,2.8064 Z M13.0496,2.8064 C13.4235444,2.82821197 13.7156194,3.13781997 13.7156194,3.5124 C13.7156194,3.88698003 13.4235444,4.19658803 13.0496,4.2184 L6.8784,4.2184 C6.5013252,4.20044915 6.20482856,3.88950184 6.20482856,3.512 C6.20482856,3.13449816 6.5013252,2.82355085 6.8784,2.8056 L13.0496,2.8064 Z" id="形状"></path>
            </g>
        </g>
    </g>
</svg>