<?xml version="1.0" encoding="UTF-8"?>
<svg width="16px" height="16px" viewBox="0 0 16 16" version="1.1" xmlns="http://www.w3.org/2000/svg" xmlns:xlink="http://www.w3.org/1999/xlink">
    <title>icon-verify</title>
    <g id="页面-1" stroke="none" stroke-width="1" fill="none" fill-rule="evenodd">
        <g id="zCloud-icon更新对照表" transform="translate(-2612.000000, -1305.000000)">
            <g id="icon-verify" transform="translate(2612.000000, 1305.000000)">
                <path d="M6.15638487,13.9998858 C5.82981749,14.0043696 5.51554079,13.8766416 5.28621529,13.6462323 L0.36304936,8.75605868 C-0.119570935,8.2798882 -0.121223888,7.50622577 0.359357354,7.02803496 C0.839938597,6.54984426 1.62076785,6.54820612 2.10338852,7.02437623 L6.15638487,11.0487087 L13.9017557,3.36589218 C14.1297339,3.13205676 14.4437929,3 14.7719252,3 C15.1000576,3 15.4141167,3.13205676 15.6420948,3.36589218 C16.1193017,3.84154072 16.1193017,4.60973103 15.6420948,5.08537969 L7.02655445,13.6462323 C6.79706685,13.876402 6.48289785,14.0040862 6.15638487,13.9998858 L6.15638487,13.9998858 L6.15638487,13.9998858 Z" fill="#000000" fill-rule="nonzero"></path>
            </g>
        </g>
    </g>
</svg>