<?xml version="1.0" encoding="UTF-8"?>
<svg width="16px" height="16px" viewBox="0 0 16 16" version="1.1" xmlns="http://www.w3.org/2000/svg" xmlns:xlink="http://www.w3.org/1999/xlink">
    <title>icon-file</title>
    <g id="页面-1" stroke="none" stroke-width="1" fill="none" fill-rule="evenodd">
        <g id="zCloud-icon更新对照表" transform="translate(-1934.000000, -2155.000000)">
            <g id="icon-file" transform="translate(1934.000000, 2155.000000)">
                <path d="M9.84756098,0 C10.1646341,0 10.402439,0.16 10.6402439,0.32 L10.6402439,0.32 L14.6829268,4.24 C14.8414634,4.4 15,4.72 15,4.96 L15,4.96 L15,14.4 C15,15.92 13.4146341,16 13.4146341,16 L13.4146341,16 L3.58536585,16 C2.07926829,16 2,14.4 2,14.4 L2,1.6 C2,0.16 3.58536585,0 3.58536585,0 Z M9.5304878,1.2 L3.58536585,1.2 C3.50609756,1.2 3.18902439,1.28 3.18902439,1.6 L3.18902439,1.6 L3.18932217,14.5073479 C3.19229994,14.6155372 3.22505543,14.88 3.58536585,14.88 L3.58536585,14.88 L13.4238783,14.8795335 C13.4599303,14.8767347 13.5958188,14.8571429 13.7317073,14.72 C13.8109756,14.64 13.8109756,14.56 13.8109756,14.4 L13.8109756,5.44 L11.1071235,5.43900715 C10.9809927,5.42381853 9.5304878,5.22086957 9.5304878,3.92 L9.5304878,3.92 L9.5304878,1.2 Z M11.195122,11.68 C11.5121951,11.68 11.75,11.92 11.75,12.24 C11.75,12.56 11.5121951,12.8 11.195122,12.8 L11.195122,12.8 L5.80487805,12.8 C5.48780488,12.8 5.25,12.56 5.25,12.24 C5.25,11.92 5.48780488,11.68 5.80487805,11.68 L5.80487805,11.68 Z M11.195122,9.12 C11.5121951,9.12 11.75,9.36 11.75,9.68 C11.75,10 11.5121951,10.24 11.195122,10.24 L11.195122,10.24 L5.80487805,10.24 C5.48780488,10.24 5.25,10 5.25,9.68 C5.25,9.36 5.48780488,9.12 5.80487805,9.12 L5.80487805,9.12 Z M5.72735292,6.70810185 L5.80487805,6.72 L11.195122,6.72 C11.5121951,6.72 11.75,6.96 11.75,7.28 C11.75,7.6 11.5121951,7.84 11.195122,7.84 L11.195122,7.84 L5.80487805,7.84 C5.48780488,7.84 5.25,7.6 5.25,7.28 C5.25,6.96 5.48780488,6.64 5.80487805,6.72 Z M10.7195122,2 L10.7195122,3.84 C10.7195122,4.24 11.0365854,4.24 11.1158537,4.24 L11.1158537,4.24 L13.0182927,4.24 L10.7195122,2 Z" fill="#000000" fill-rule="nonzero"></path>
            </g>
        </g>
    </g>
</svg>