<?xml version="1.0" encoding="UTF-8"?>
<svg width="16px" height="16px" viewBox="0 0 16 16" version="1.1" xmlns="http://www.w3.org/2000/svg" xmlns:xlink="http://www.w3.org/1999/xlink">
    <title>icon-database</title>
    <g id="恩墨图标库" stroke="none" stroke-width="1" fill="none" fill-rule="evenodd">
        <g id="zCloud-icon更新对照表" transform="translate(-397.000000, -405.000000)" fill="#000000" fill-rule="nonzero">
            <g id="icon-database" transform="translate(397.000000, 405.000000)">
                <rect id="矩形" opacity="0" x="0" y="0" width="16" height="16"></rect>
                <path d="M9.6936,0.0008 L9.7072,0.0024 C10.5127083,0.0821747062 11.1046966,0.794271387 11.036,1.6008 L11.0368,14.4184 C11.1016,15.196 10.5056,15.9144 9.7072,15.9976 L6.0752,15.9992 C5.2472,15.9136 4.6512,15.1928 4.72,14.3912 L4.7184,1.5808 C4.6552,0.8032 5.2512,0.0856 6.048,0.0024 L9.6936,0.0008 Z M3.0144,5.9984 C3.7554079,6.17994212 4.249724,6.87928513 4.1736,7.6384 L4.1752,14.3488 C4.2528,15.156 3.664,15.8912 2.8344,15.9968 L1.3832,15.9992 C0.516,15.892 -0.0728,15.1544 0.0088,14.3192 L0.0072,7.6096 C-0.0656,6.856 0.4456,6.172 1.1888,5.9984 L3.0144,5.9984 Z M14.6232,4.0608 L14.6392,4.0632 C15.4616072,4.15915672 16.0603519,4.88910883 15.9936,5.7144 L15.9944,14.3704 C16.0604211,15.1913994 15.4578458,15.9144897 14.6384,15.9976 L12.94,15.9992 C12.0784,15.9056 11.484,15.1808 11.5544,14.3472 L11.5544,5.6912 C11.4878987,4.8701833 12.0901389,4.14671289 12.9096,4.0632 L14.6232,4.0608 Z M2.7376,7.5272 L1.4544,7.5272 L1.4544,14.428 L2.7376,14.428 L2.7376,7.5272 L2.7376,7.5272 Z M14.5328,5.6568 L13.024,5.6568 L13.024,14.4272 L14.5336,14.4272 L14.5336,5.656 L14.5328,5.6568 Z M9.6504,1.632 L6.1536,1.632 L6.1536,14.3256 L9.6504,14.3256 L9.6504,1.632 Z M8.7568,12.472 C9.12771556,12.4937217 9.41738293,12.8008489 9.41738293,13.1724 C9.41738293,13.5439511 9.12771556,13.8510783 8.7568,13.8728 L7.0808,13.8728 C6.69487815,13.8714808 6.38247785,13.5587231 6.3816,13.1728 C6.3816,12.7864 6.6968,12.472 7.0824,12.472 L8.7568,12.472 Z M8.7568,10.6624 C9.12771556,10.6841217 9.41738293,10.9912489 9.41738293,11.3628 C9.41738293,11.7343511 9.12771556,12.0414783 8.7568,12.0632 L7.0808,12.0632 C6.69456659,12.061879 6.38203815,11.7486354 6.3816,11.3624 C6.3816,10.9768 6.6968,10.6624 7.0824,10.6624 L8.7568,10.6624 Z M8.7568,8.8536 C9.13039981,8.87146659 9.42412404,9.17957322 9.42412404,9.5536 C9.42412404,9.92762678 9.13039981,10.2357334 8.7568,10.2536 L7.0808,10.2536 C6.70721691,10.2353114 6.41383937,9.92686757 6.41426637,9.55283733 C6.4146943,9.17880709 6.70877608,8.87103468 7.0824,8.8536 L8.7568,8.8536 Z M8.7568,7.044 C9.1424,7.044 9.4568,7.3584 9.4568,7.744 C9.45592019,8.13023431 9.14303431,8.44312019 8.7568,8.444 L7.0808,8.444 C6.70721691,8.42571137 6.41383937,8.11726757 6.41426637,7.74323733 C6.4146943,7.36920709 6.70877608,7.06143468 7.0824,7.044 L8.7568,7.044 Z" id="形状"></path>
            </g>
        </g>
    </g>
</svg>