<?xml version="1.0" encoding="UTF-8"?>
<svg width="16px" height="16px" viewBox="0 0 16 16" version="1.1" xmlns="http://www.w3.org/2000/svg" xmlns:xlink="http://www.w3.org/1999/xlink">
    <title>icon-resource</title>
    <g id="恩墨图标库" stroke="none" stroke-width="1" fill="none" fill-rule="evenodd">
        <g id="zCloud-icon更新对照表" transform="translate(-397.000000, -1055.000000)" fill="#000000" fill-rule="nonzero">
            <g id="icon-resource" transform="translate(397.000000, 1055.000000)">
                <rect id="矩形" opacity="0" x="0" y="0" width="15.9843902" height="16"></rect>
                <path d="M12.0778053,0 C12.9537287,0.0550972866 13.6931594,0.671621568 13.9056203,1.524 L15.9771973,9.2472 L15.9771973,13.8536 C16.0715052,14.932 15.2563013,15.9008 14.1589729,15.9992 L1.83980332,16 C0.730486634,15.9064 -0.0855164878,14.9448 0.00719297561,13.8536 L0.0135867317,9.2472 L2.18107005,1.5208 C2.41796807,0.69273536 3.13317021,0.0914041942 3.98890459,0.0008 L12.0778053,0 Z M12.0674154,1.484 L4.00488898,1.4848 C3.74444965,1.50507967 3.52763039,1.69291367 3.47021112,1.948 L1.30832234,9.5432 L1.30832234,13.8536 C1.28944756,14.010852 1.33413728,14.1691334 1.43245004,14.2932336 C1.5307628,14.4173338 1.67454485,14.4969604 1.83181112,14.5144 L14.2436901,14.5152 C14.5622539,14.4871849 14.7997086,14.2089351 14.7775688,13.8896 L14.7751711,9.5432 L12.6164792,1.9568 C12.558563,1.69469437 12.3349791,1.50216581 12.0674154,1.484 Z M10.8342197,2.1072 C11.701294,2.14236799 12.4224453,2.78647491 12.5557385,3.6448 L14.1166142,9.2456 C14.1501815,9.5016 14.1118189,9.7344 14.0079204,9.9424 C13.8980981,10.1308277 13.7012171,10.2515951 13.4836324,10.264 L11.0883715,10.264 L11.0883715,10.8096 C11.1842779,11.888 10.37307,12.8576 9.28213541,12.956 L6.82053932,12.9576 C6.29440851,12.9151914 5.80671054,12.6651319 5.46490763,12.262521 C5.12310472,11.8599101 4.95524614,11.3377873 4.99831883,10.8112 L4.99831883,10.1472 L2.61025093,10.1472 C2.39460469,10.1380731 2.19768691,10.0219672 2.08516371,9.8376 C1.97314907,9.66798845 1.93051735,9.46178167 1.96608,9.2616 L3.4366439,3.6296 C3.66946963,2.80214224 4.38177335,2.1996879 5.23568702,2.108 L10.8342197,2.1072 Z M10.8230306,3.7072 L5.25486829,3.7088 C4.99480473,3.72984925 4.77872603,3.91792726 4.72178888,4.1728 L3.49978224,8.7808 L5.64648585,8.7808 C6.04209951,8.8208 6.34820059,9.1248 6.38976,9.504 L6.39055922,10.9264 C6.37188966,11.0837876 6.41661663,11.2421368 6.51485173,11.3664393 C6.61308683,11.4907417 6.75673861,11.5707588 6.914048,11.5888 L9.36605346,11.5888 C9.68465711,11.5595645 9.9211005,11.2801821 9.89753444,10.9608 L9.89513678,9.5208 C9.84718361,9.1768 10.1029339,8.8376 10.467378,8.7864 C10.4896347,8.7831409 10.5120412,8.78100486 10.5345124,8.78 L12.6828144,8.78 L11.3664999,4.172 C11.3077175,3.91409245 11.0867332,3.72542176 10.8230306,3.708 L10.8230306,3.7072 Z M11.2745897,6.4392 C11.4767427,6.4657348 11.6592247,6.57396803 11.7795649,6.73870943 C11.8999051,6.90345083 11.9476067,7.1103308 11.9115676,7.3112 C11.8559805,7.62251656 11.6121214,7.86597482 11.3009639,7.9208 L4.81130146,7.9232 C4.6239021,7.9170424 4.44761437,7.83271918 4.32510393,7.69063848 C4.20259349,7.54855778 4.14502499,7.36166773 4.16633132,7.1752 C4.14917437,7.00758866 4.19631554,6.83971657 4.29820254,6.7056 C4.41892849,6.54430973 4.60609099,6.44637256 4.80730537,6.4392 L11.2745897,6.4392 Z M10.4889569,4.5664 C10.6952552,4.59450959 10.880714,4.70687818 11.0012566,4.8768 C11.1485564,5.0873305 11.1782329,5.35858379 11.0799445,5.59603536 C10.9816561,5.83348694 10.7690186,6.00424314 10.5161303,6.0488 L5.59453659,6.0512 L5.56736312,6.0488 C5.15935032,5.97722519 4.88620309,5.58857653 4.95675941,5.18 C5.01174182,4.86806251 5.25572996,4.6238361 5.56736312,4.5688 L10.4889569,4.5664 Z" id="形状"></path>
            </g>
        </g>
    </g>
</svg>