<?xml version="1.0" encoding="UTF-8"?>
<svg width="16px" height="16px" viewBox="0 0 16 16" version="1.1" xmlns="http://www.w3.org/2000/svg" xmlns:xlink="http://www.w3.org/1999/xlink">
    <title>icon-exit</title>
    <g id="页面-1" stroke="none" stroke-width="1" fill="none" fill-rule="evenodd">
        <g id="zCloud-icon更新对照表" transform="translate(-1934.000000, -1355.000000)">
            <g id="icon-exit" transform="translate(1934.000000, 1355.000000)">
                <polygon id="Fill-1" points="0.00016 16 16.00016 16 16.00016 0 0.00016 0"></polygon>
                <path d="M14.46952,0.000157079455 C15.29432,0.000157079455 15.97992,0.66576 15.99992,1.49776 L15.99992,1.49776 L15.99992,14.49616 C15.97992,15.33376 15.29352,16.0001571 14.46472,16.0001571 L14.46472,16.0001571 L1.53112,16.0001571 C0.70712,16.0001571 0.02072,15.33376 0.00072,14.50176 L0.00072,14.50176 L0.00072,11.05696 C0.00072,10.61056 0.36392,10.24816 0.80952,10.24816 C1.25512,10.24816 1.61912,10.61056 1.61912,11.05696 L1.61912,11.05696 L1.61912,14.49616 L14.43912,14.52016 L14.38232,1.50336 L1.61912,1.47936 L1.61912,4.94336 C1.60632,5.22976 1.44472,5.47456 1.19592,5.59376 C0.95352,5.71216 0.66312,5.71216 0.41992,5.59216 C0.17272,5.48096 0.00472,5.22576 0.00072,4.94496 L0.00072,4.94496 L0.00072,1.50336 C0.02072,0.65456 0.71672,-0.00144 1.56712,0.000157079455 L1.56712,0.000157079455 Z M8.304,5.12416 C8.6312,4.88656 9.096,4.91936 9.396,5.21136 L9.396,5.21136 L11.6136,7.51056 C11.7248,7.62576 11.7928,7.77696 11.8064,7.93536 C11.8176,8.07696 11.7936,8.20416 11.736,8.31856 C11.7168,8.34896 11.7,8.37296 11.6816,8.39456 L11.6816,8.39456 L11.6176,8.48416 L9.4016,10.78176 C9.2456,10.94096 9.0304,11.03136 8.8096,11.03136 L8.8096,11.03136 L8.7744,11.03136 C8.4936,11.03136 8.224,10.87616 8.0784,10.62336 C7.928,10.34816 7.9792,10.01136 8.1984,9.79696 L8.1984,9.79696 L9.2224,8.73936 L0.8096,8.73936 C0.404,8.76256 0.0312,8.44416 0.0016,8.01856 L0.0016,8.01856 L0,8.00176 L0.0016,7.98336 C0.0152,7.77616 0.1088,7.58736 0.264,7.45056 C0.42,7.31456 0.6208,7.24976 0.8256,7.26096 L0.8256,7.26096 L9.2216,7.26016 L8.1928,6.19696 C8.064,6.06896 7.9904,5.89376 7.9904,5.70736 C7.9896,5.52096 8.0624,5.34576 8.1944,5.21376 C8.228,5.17936 8.2656,5.14896 8.304,5.12416 Z" id="形状结合" fill="#000000"></path>
            </g>
        </g>
    </g>
</svg>