<?xml version="1.0" encoding="UTF-8"?>
<svg width="16px" height="16px" viewBox="0 0 16 16" version="1.1" xmlns="http://www.w3.org/2000/svg" xmlns:xlink="http://www.w3.org/1999/xlink">
    <title>icon-page-backward</title>
    <g id="页面-1" stroke="none" stroke-width="1" fill="none" fill-rule="evenodd">
        <g id="zCloud-icon更新对照表" transform="translate(-2612.000000, -1205.000000)" fill="#000000" fill-rule="nonzero">
            <g id="icon-page-backward" transform="translate(2612.000000, 1205.000000)">
                <rect opacity="0" transform="translate(8.000000, 8.000000) scale(-1, 1) translate(-8.000000, -8.000000) " x="0" y="0" width="16" height="16"></rect>
                <path d="M15.7991796,0.24337682 C16.0812795,0.551948499 16.0640836,1.03474799 15.7607716,1.32173969 L8.83940957,7.87167632 L15.7718584,14.711647 C16.048902,15.0084174 16.0464182,15.4747124 15.7662294,15.7684108 C15.4860407,16.0621091 15.0279727,16.0785718 14.7281107,15.8057201 L7.22864866,8.40904504 C7.08061627,8.26355922 6.99794185,8.06252031 6.99996247,7.8531361 C7.00213604,7.64375189 7.08881991,7.44446853 7.23973551,7.30208158 L14.7391976,0.204302772 C15.0425096,-0.0826889057 15.5170797,-0.0651948584 15.7991796,0.24337682 Z M8.79917958,0.24337682 C9.08127946,0.551948499 9.06408361,1.03474799 8.76077158,1.32173969 L1.8394096,7.87167632 L8.77185843,14.711647 C9.04890199,15.0084174 9.04641821,15.4747124 8.76622943,15.7684108 C8.48604065,16.0621091 8.02797272,16.0785718 7.7281107,15.8057201 L0.2286487,8.40904504 C0.0806163,8.26355922 -0.0020582,8.06252031 -3.7530819e-05,7.8531361 C0.002136,7.64375189 0.0888199,7.44446853 0.2397355,7.30208158 L7.73919755,0.204302772 C8.04250959,-0.0826889057 8.51707971,-0.0651948584 8.79917958,0.24337682 Z" id="形状结合"></path>
            </g>
        </g>
    </g>
</svg>