<?xml version="1.0" encoding="UTF-8"?>
<svg width="16px" height="16px" viewBox="0 0 16 16" version="1.1" xmlns="http://www.w3.org/2000/svg" xmlns:xlink="http://www.w3.org/1999/xlink">
    <title>icon-prompt</title>
    <g id="恩墨图标库" stroke="none" stroke-width="1" fill="none" fill-rule="evenodd">
        <g id="zCloud-icon更新对照表" transform="translate(-1934.000000, -355.000000)" fill="#000000" fill-rule="nonzero">
            <g id="icon-prompt" transform="translate(1934.000000, 355.000000)">
                <rect id="矩形" opacity="0" x="0" y="0" width="16" height="16"></rect>
                <path d="M7.9784,15.9576 C3.5728,15.9576 0,12.384 0,7.9784 C0,3.5728 3.5728,0 7.9784,0 C12.3848,0 15.9576,3.5728 15.9576,7.9784 C15.9576,12.3848 12.3848,15.9576 7.9784,15.9576 Z M7.9784,14.628 C11.6506518,14.628 14.6276,11.6510518 14.6276,7.9788 C14.6276,4.30654824 11.6506518,1.3296 7.9784,1.3296 C4.30614824,1.3296 1.3292,4.30654824 1.3292,7.9788 C1.3292,11.6510518 4.30614824,14.628 7.9784,14.628 Z M7.3144,7.3136 C7.3144,6.9464411 7.6120411,6.6488 7.9792,6.6488 C8.3463589,6.6488 8.644,6.9464411 8.644,7.3136 L8.644,11.968 C8.644,12.3353798 8.34617982,12.6332 7.9788,12.6332 C7.61142018,12.6332 7.3136,12.3353798 7.3136,11.968 L7.3136,7.3136 L7.3144,7.3136 Z M7.912,5.1856 C7.57085869,5.20293985 7.24760507,5.03211165 7.06973716,4.74049362 C6.89186926,4.44887559 6.88793982,4.08328055 7.0594987,3.78790685 C7.23105758,3.49253316 7.5505648,3.31479652 7.892,3.3248 C8.39632865,3.33313699 8.80233616,3.74150062 8.80775482,4.24586907 C8.81317347,4.75023752 8.41603313,5.16722973 7.912,5.1864 L7.912,5.1856 Z" id="形状"></path>
            </g>
        </g>
    </g>
</svg>