<?xml version="1.0" encoding="UTF-8"?>
<svg width="16px" height="16px" viewBox="0 0 16 16" version="1.1" xmlns="http://www.w3.org/2000/svg" xmlns:xlink="http://www.w3.org/1999/xlink">
    <title>icon-delete</title>
    <g id="页面-1" stroke="none" stroke-width="1" fill="none" fill-rule="evenodd">
        <g id="zCloud-icon更新对照表" transform="translate(-1934.000000, -955.000000)" fill="#000000" fill-rule="nonzero">
            <g id="icon-delete" transform="translate(1934.000000, 955.000000)">
                <rect id="矩形" opacity="0" x="0" y="0" width="16" height="16"></rect>
                <path d="M13.0432,4.3488 L13.0456,14.4928 L13.0424,14.4928 L2.8984,14.492 L2.8992,4.348 L13.0432,4.348 L13.0432,4.3488 Z M5.0728,1.4496 L10.8696,1.4496 L10.8696,2.8984 L5.0728,2.8984 L5.0728,1.4496 Z M15.2168,2.8984 L12.32,2.8984 L12.32,0.9656 C12.3192,0.4992 11.9392,0 10.872,0 L5.0688,0 C4.0032,0 3.624,0.4992 3.624,0.9656 L3.624,2.8984 L0.7248,2.8984 C0.465853897,2.89839999 0.226577828,3.03654609 0.0971047746,3.2608 C-0.0323682786,3.4850539 -0.0323682786,3.7613461 0.0971047746,3.9856 C0.226577828,4.20985391 0.465853897,4.34800001 0.7248,4.348 L1.4496,4.348 L1.4496,14.492 C1.4496,15.292 2.0992,15.9424 2.8992,15.9424 L13.0432,15.9424 C13.8432,15.9416 14.492,15.2928 14.4928,14.492 L14.4928,4.348 L15.2176,4.348 C15.617896,4.348 15.9424,4.02349599 15.9424,3.6232 C15.9424,3.22290401 15.617896,2.8984 15.2176,2.8984 L15.2168,2.8984 Z M10.1448,12.0144 C10.5448,12.0144 10.8696,11.6904 10.8696,11.2896 L10.8696,6.5216 C10.8696,6.12130401 10.545096,5.7968 10.1448,5.7968 C9.74450401,5.7968 9.42,6.12130401 9.42,6.5216 L9.42,11.2896 C9.42,11.6896 9.7448,12.0144 10.1448,12.0144 M5.7968,12.0144 C6.1968,12.0144 6.5216,11.6904 6.5216,11.2896 L6.5216,6.5216 C6.53039253,6.25705586 6.39427795,6.00875574 6.16652921,5.87388015 C5.93878048,5.73900456 5.65561952,5.73900456 5.42787079,5.87388015 C5.20012205,6.00875574 5.06400747,6.25705586 5.0728,6.5216 L5.0728,11.2896 C5.0728,11.6896 5.3968,12.0144 5.7968,12.0144" id="形状"></path>
            </g>
        </g>
    </g>
</svg>