<?xml version="1.0" encoding="UTF-8"?>
<svg width="16px" height="16px" viewBox="0 0 16 16" version="1.1" xmlns="http://www.w3.org/2000/svg" xmlns:xlink="http://www.w3.org/1999/xlink">
    <title>icon-filter</title>
    <g id="页面-1" stroke="none" stroke-width="1" fill="none" fill-rule="evenodd">
        <g id="zCloud-icon更新对照表" transform="translate(-2612.000000, -755.000000)">
            <g id="icon-filter" transform="translate(2612.000000, 755.000000)">
                <polygon points="0 16 16 16 16 0 0 0"></polygon>
                <path d="M15.7092748,1.3528 C15.3684748,0.5304 14.5740748,0 13.6852748,0 L3.19487483,0 L3.19167483,0 C2.30367483,0 1.51007483,0.5288 1.16927483,1.3496 C0.826874832,2.1704 1.01327483,3.1072 1.64367483,3.7368 L6.18207483,8.1168 L6.18207483,12.3672 C6.18207483,12.7264 6.31887483,13.0664 6.56847483,13.324 L8.75327483,15.58 C9.01087483,15.8464 9.37007483,16 9.73967483,16 L9.74127483,16 C10.4988748,15.9984 11.1164748,15.3808 11.1188748,14.6232 L11.1188748,8.1136 L12.6020748,6.5096 C12.8860748,6.2096 12.8732748,5.7352 12.5732748,5.4512 C12.2748748,5.1672 11.7980748,5.18 11.5156748,5.48 L9.62127483,7.4696 L9.62287483,14.324 L7.68207483,12.3168 L7.68207483,7.4808 L2.69487483,2.6712 C2.50047483,2.4728 2.44527483,2.18 2.55407483,1.9248 C2.66047483,1.6648 2.91167483,1.4976 3.19247483,1.4976 L3.19407483,1.4976 L13.6860748,1.4976 L13.6924748,1.4976 C13.8756748,1.4976 14.0548748,1.5728 14.1836748,1.704 C14.3132748,1.836 14.3836748,2.0104 14.3812748,2.1944 C14.3796748,2.3784 14.3060748,2.552 14.1724748,2.6824 C13.5924748,3.2904 13.5924748,3.2904 13.2324748,3.6712 C12.9484748,3.9696 12.9604748,4.4448 13.2596748,4.7296 C13.5596748,5.0136 14.0340748,5 14.3180748,4.7016 L15.2444748,3.7264 C15.8652748,3.1 16.0476748,2.168 15.7092748,1.3528" fill="#000000"></path>
            </g>
        </g>
    </g>
</svg>