<?xml version="1.0" encoding="UTF-8"?>
<svg width="16px" height="16px" viewBox="0 0 16 16" version="1.1" xmlns="http://www.w3.org/2000/svg" xmlns:xlink="http://www.w3.org/1999/xlink">
    <title>icon-postgre-sql</title>
    <g id="恩墨图标库" stroke="none" stroke-width="1" fill="none" fill-rule="evenodd">
        <g id="zCloud-icon更新对照表" transform="translate(-397.000000, -705.000000)" fill="#000000" fill-rule="nonzero">
            <g id="icon-postgre-sql" transform="translate(397.000000, 705.000000)">
                <rect id="矩形" opacity="0" x="0" y="0" width="16" height="15.9843902"></rect>
                <path d="M4.1264,4.11118517 C4.1016,4.31418693 4.0848,4.51878712 4.072,4.75215922 L4.0752,8.21437815 C4.0752,8.21837424 4.0888,8.56923161 4.296,9.03757424 L4.0672,9.50351922 C4.00081265,9.64272108 3.88590534,9.75296994 3.744,9.81361639 C3.68047468,9.84566137 3.60512011,9.84386183 3.5432,9.80882107 C3.4456,9.75607259 3.1864,9.55067317 2.8696,8.77543024 C2.6288,8.1840078 2.4488,7.49188371 2.352,7.11625054 L2.3232,7.01395044 C2.14125953,6.2882643 2.00921803,5.55099525 1.928,4.80730537 C1.7824,3.39668293 1.9872,2.99067941 2.0112,2.94752156 C2.1416,2.71494868 2.3592,2.52793132 2.6592,2.38966634 C3.0824,2.1914599 3.6608,2.09155746 4.3776,2.09155746 L4.7832,2.09155746 C4.4416,2.67418849 4.2152,3.36551337 4.1264,4.11118517 L4.1264,4.11118517 Z M13.7736,5.63289912 L12.7728,7.08747863 L12.7728,4.79291941 C12.7777332,4.69250998 12.7766646,4.59189592 12.7696,4.49161366 L12.768,4.46284176 C12.7296,3.58689717 12.496,2.77409093 12.0928,2.09155746 L12.5088,2.09155746 C12.7305561,2.09349415 12.9410724,2.1893541 13.088,2.3552999 C13.4364777,2.73744955 13.7231264,3.17158711 13.9376,3.64204332 C14.229522,4.28936458 14.1675641,5.04119208 13.7736,5.6320999 L13.7736,5.63289912 Z M12.2656,10.4801655 C12.528,10.6160328 12.7928,10.7439079 13.0576,10.8621924 C12.6701185,10.9829025 12.2716515,11.0650881 11.868,11.1075528 C11.980088,10.8861698 12.1132346,10.6760729 12.2656,10.4801655 L12.2656,10.4801655 Z M5.4592,5.49623259 L5.5912,5.49623259 C5.6496,5.82151493 5.8904,6.08605659 6.2096,6.15718712 C6.41333332,6.20543599 6.6279961,6.16411662 6.7992,6.04369795 C6.91358273,5.96456174 7.00649798,5.85828032 7.0696,5.7344 C7.18085801,5.86999847 7.24113844,6.0402023 7.24001583,6.21553015 L7.24001583,6.87568546 C7.24001583,7.75163005 6.984,8.62277932 6.5168,9.34527376 C6.34544701,9.26048386 6.18416932,9.15673416 6.036,9.0359758 C5.88060359,8.90888132 5.74780358,8.75648593 5.6432,8.585216 C5.55847184,8.45074791 5.49631878,8.3033459 5.4592,8.14884215 L5.4592,5.49543337 L5.4592,5.49623259 Z M7.0992,11.4983711 C6.77242327,11.5850251 6.44129597,11.6543873 6.1072,11.7061682 C6.328,11.5119579 6.5472,11.3129522 6.7664,11.1067536 C6.8808,11.2338295 6.992,11.3649015 7.0992,11.4983711 L7.0992,11.4983711 Z M7.7336,10.0637721 C8.32153299,9.10504679 8.63041864,8.00161575 8.6256,6.8772839 L8.6256,6.21712859 C8.62915661,5.65180273 8.42148408,5.10548427 8.0432,4.68502478 C7.86379402,4.48581654 7.64615416,4.32464838 7.4032,4.21108761 C7.15422714,4.09379321 6.88246709,4.03267274 6.6072,4.03206244 L5.544,4.03206244 C5.612,3.65483083 5.728,3.30796956 5.892,2.99787239 C6.06371637,2.66370807 6.30159312,2.36787579 6.5912,2.12832156 C7.14382152,1.67787118 7.84356831,1.44731665 8.556,1.48095376 C9.26749844,1.5062256 9.94451274,1.79344823 10.4568,2.28736624 C10.7264,2.55030946 10.94,2.86200507 11.0912,3.21206322 C11.2032,3.47021112 11.2832,3.74514263 11.3328,4.03126322 L11.2504,4.03126322 C10.7352,4.03126322 10.236,4.25744234 9.8816,4.65145756 C9.51865646,5.05039053 9.3203021,5.57177626 9.3264,6.11083239 C9.3256,6.77418459 9.4488,7.41755629 9.692,8.02336468 C9.95126704,8.67416531 10.3518231,9.25940027 10.8648,9.73689132 C10.5313411,10.2145941 10.3440132,10.7788061 10.3256,11.3609054 L10.3256,13.5507668 C10.3256,13.8065171 10.2296,14.0590704 10.0592,14.2436901 C9.90286698,14.4160248 9.68080285,14.514172 9.448,14.5138273 C9.2169785,14.5113591 8.99758341,14.4122058 8.8432,14.2404933 C8.67161775,14.0520365 8.57810956,13.8054958 8.5816,13.5507668 L8.5816,12.1537311 C8.5816,11.3625038 8.2672,10.5936546 7.7328,10.0637721 L7.7336,10.0637721 Z M10.7288,5.96057912 C10.8715952,6.09724254 11.0606863,6.17514511 11.2584,6.17876605 C11.3008,6.17876605 11.344,6.17476995 11.3856,6.1683762 L11.3856,8.18960234 C10.9403529,7.58876403 10.7035636,6.85916541 10.7112,6.11163161 C10.7112,6.06048156 10.7168,6.00933151 10.7288,5.9597799 L10.7288,5.96057912 Z M15.2472,3.14333034 L15.188,3.00266771 C14.9102477,2.39328627 14.5388287,1.83103836 14.0872,1.33629502 C13.6836123,0.889696519 13.1133365,0.629418588 12.5112,0.616997463 L10.6448,0.616997463 C10.0276073,0.246625483 9.32734017,0.0366953422 8.608,0.0063937561 C7.76715956,-0.0347373997 6.93347035,0.178634809 6.216,0.618595902 L4.3792,0.618595902 C3.4728,0.618595902 2.7064,0.760856976 2.1032,1.04138302 C1.54,1.30192859 1.1088,1.68795161 0.8216,2.18906224 C0.6344,2.52233678 0.5288,2.95631298 0.5,3.51576663 C0.478994603,3.99990773 0.496382239,4.48495035 0.552,4.96635005 C0.6472,5.89584234 0.8472,6.86050029 0.9888,7.40716644 L1.024,7.53743922 C1.1472,8.0033842 1.3344,8.7082958 1.5984,9.35726205 C1.9688,10.2603801 2.3976,10.8350189 2.9104,11.1147458 C3.33287451,11.3444865 3.83841863,11.3642866 4.2776,11.1682935 C4.6985667,10.9825941 5.04503792,10.6612249 5.2616,10.2555848 C5.3368,10.3139278 5.4128,10.3674755 5.4904,10.4210232 C5.4104,10.4769686 5.3304,10.5289179 5.2504,10.5776702 C4.86111048,10.8204223 4.65211145,11.2699902 4.7176,11.723751 C4.76233716,12.1845862 5.08789722,12.569658 5.5352,12.6908066 C6.08062852,12.8295758 6.65217148,12.8295758 7.1976,12.6908066 L7.1976,13.5491684 C7.1976,14.1941385 7.4296,14.803943 7.8528,15.2674903 C8.26764472,15.722417 8.85440252,15.9827506 9.4704,15.9851895 C10.0672,15.9851895 10.6464,15.7238447 11.0616,15.2658919 C11.4874132,14.7958816 11.7207226,14.1830789 11.7152,13.5491684 L11.7152,12.2680195 C12.0791815,12.2604108 12.4400823,12.1995564 12.7864,12.0873959 C13.2628015,11.9327483 13.7127835,11.7063597 14.1208,11.4160515 C14.4344,11.1898724 14.5904,10.7982548 14.5192,10.4250193 C14.4631855,10.0376569 14.1729415,9.7254158 13.7904,9.64098498 C13.4921358,9.57943706 13.2008088,9.48813478 12.9208,9.36845112 L14.8984,6.49365854 C15.5667538,5.50461211 15.6975691,4.24779203 15.2472,3.14253112 L15.2472,3.14333034 Z" id="形状"></path>
            </g>
        </g>
    </g>
</svg>