<?xml version="1.0" encoding="UTF-8"?>
<svg width="16px" height="16px" viewBox="0 0 16 16" version="1.1" xmlns="http://www.w3.org/2000/svg" xmlns:xlink="http://www.w3.org/1999/xlink">
    <title>icon-enlarge</title>
    <g id="页面-1" stroke="none" stroke-width="1" fill="none" fill-rule="evenodd">
        <g id="zCloud-icon更新对照表" transform="translate(-2612.000000, -1555.000000)" fill="#000000">
            <g id="icon-enlarge" transform="translate(2612.000000, 1555.000000)">
                <rect opacity="0" x="0" y="0" width="16" height="16"></rect>
                <path d="M15.942029,11.5942029 L15.942029,15.942029 L11.5942029,15.942029 L11.5942029,14.4927536 L14.4927536,14.4927536 L14.4927536,11.5942029 L15.942029,11.5942029 Z M4.89637681,10.0202899 L5.92101449,11.0449275 L2.47318841,14.4927536 L5.79710145,14.4927536 L5.79710145,15.942029 L0,15.942029 L0,10.1449275 L1.44927536,10.1449275 L1.44927536,13.4673913 L4.89637681,10.0202899 L4.89637681,10.0202899 Z M15.942029,0 L15.942029,5.79710145 L14.4927536,5.79710145 L14.4927536,2.47318841 L11.0449275,5.92101449 L10.0202899,4.89637681 L13.4673913,1.44927536 L10.1449275,1.44927536 L10.1449275,0 L15.942029,0 Z M4.34782609,0 L4.34782609,1.44927536 L1.44927536,1.44927536 L1.44927536,4.34782609 L0,4.34782609 L0,0 L4.34782609,0 Z" fill-rule="nonzero"></path>
            </g>
        </g>
    </g>
</svg>