<?xml version="1.0" encoding="UTF-8"?>
<svg width="16px" height="16px" viewBox="0 0 16 16" version="1.1" xmlns="http://www.w3.org/2000/svg" xmlns:xlink="http://www.w3.org/1999/xlink">
    <title>icon-tenant</title>
    <g id="恩墨图标库" stroke="none" stroke-width="1" fill="none" fill-rule="evenodd">
        <g id="zCloud-icon更新对照表" transform="translate(-397.000000, -1405.000000)">
            <g id="icon-tenant" transform="translate(397.000000, 1405.000000)">
                <rect x="0" y="0" width="16" height="16"></rect>
                <path d="M7.4792,1 C8.732,1.0024 9.7536,2.024 9.7568,3.2768 L9.7568,3.2768 L9.7568,4.1216 L12.6824,4.1216 C13.936,4.1256 14.956,5.1464 14.9584,6.3976 L14.9584,6.3976 L14.9584,13.488 L15.2936,13.488 C15.484,13.4896 15.6632,13.5648 15.796,13.7008 C15.9288,13.836 16.0016,14.0144 16.0000258,14.2048 C15.9984,14.4032 15.9224,14.5808 15.7872,14.7144 C15.6528,14.8456 15.4768,14.9184 15.2896,14.9184 L15.2896,14.9184 L0.7144,14.9184 C0.3136,14.9184 1.77635684e-15,14.6048 1.77635684e-15,14.2032 C0.0016,14.0032 0.0768,13.8256 0.212,13.692 C0.3472,13.5592 0.5112,13.4888 0.716,13.488 L0.716,13.488 L1.0416,13.488 L1.0416,3.2768 C1.0432,2.0248 2.064,1.004 3.316,1 L3.316,1 Z M7.4792,2.4312 L3.3168,2.4312 C2.852,2.4328 2.4736,2.812 2.472,3.2768 L2.472,3.2768 L2.472,13.488 L8.3248,13.488 L8.3248,3.2768 C8.3232,2.812 7.944,2.4328 7.4792,2.4312 L7.4792,2.4312 Z M12.6808,5.5528 L9.7552,5.5528 L9.7552,13.488 L13.5288,13.488 L13.5296,6.3984 C13.528,5.932 13.1472,5.5528 12.6808,5.5528 L12.6808,5.5528 Z M12.17272,10.36552 C12.56712,10.36952 12.88152,10.69192 12.8783442,11.08312 C12.87672,11.28232 12.80072,11.45992 12.66632,11.59272 C12.53192,11.72472 12.35512,11.79672 12.16792,11.79672 L12.16792,11.79672 L11.12152,11.79672 C10.71992,11.79672 10.40632,11.48232 10.40632,11.08152 C10.40952,10.68072 10.72792,10.36552 11.11672,10.36552 L11.11672,10.36552 Z M3.7456037,10.3641311 L3.84,10.36552 L6.96,10.36552 C7.1624,10.36712 7.34,10.44312 7.4736,10.57832 C7.6064,10.71432 7.6776,10.89352 7.6752,11.08312 C7.672,11.48232 7.3536,11.79672 6.9648,11.79672 L6.9648,11.79672 L3.8384,11.79672 C3.4368,11.79672 3.1224,11.48232 3.1224,11.08152 C3.124,10.87992 3.2,10.70232 3.3344,10.56952 C3.4704,10.43592 3.6488,10.34472 3.84,10.36552 Z M3.8404,7.24312 L7.0108,7.24632 C7.3892,7.27512 7.6788,7.58552 7.67562626,7.96072 C7.6732,8.16152 7.598,8.33912 7.462,8.47192 C7.3284,8.60312 7.1532,8.67512 6.966,8.67512 L6.966,8.67512 L3.838,8.67512 C3.4364,8.67512 3.1228,8.36072 3.1228,7.95992 C3.1244,7.75752 3.1996,7.57912 3.3348,7.44632 C3.4708,7.31272 3.6492,7.22952 3.8404,7.24312 L3.8404,7.24312 Z M12.17192,7.24408 C12.36392,7.24568 12.54232,7.32168 12.67512,7.45688 C12.80792,7.59288 12.87992,7.77208 12.87832,7.96088 C12.87672,8.16088 12.80072,8.33928 12.66552,8.47128 C12.53192,8.60328 12.35512,8.67448 12.16872,8.67448 L12.16872,8.67448 L11.12152,8.67448 C10.71992,8.67448 10.40632,8.36008 10.40632,7.95928 C10.40952,7.55928 10.72792,7.24408 11.11672,7.24408 L11.11672,7.24408 Z M6.96,4.12168 C7.364,4.12568 7.6792,4.44808 7.67602415,4.83928 C7.6736,5.03848 7.5984,5.21688 7.4624,5.34968 C7.3288,5.48088 7.1528,5.55288 6.9664,5.55288 L6.9664,5.55288 L3.8384,5.55288 C3.4368,5.55288 3.1224,5.23848 3.1224,4.83768 C3.124,4.63608 3.2,4.45768 3.3352,4.32488 C3.4712,4.19128 3.6488,4.12168 3.8408,4.12168 L3.8408,4.12168 Z" fill="#000000"></path>
            </g>
        </g>
    </g>
</svg>