<?xml version="1.0" encoding="UTF-8"?>
<svg width="16px" height="16px" viewBox="0 0 16 16" version="1.1" xmlns="http://www.w3.org/2000/svg" xmlns:xlink="http://www.w3.org/1999/xlink">
    <title>icon-alarm</title>
    <g id="恩墨图标库" stroke="none" stroke-width="1" fill="none" fill-rule="evenodd">
        <g id="zCloud-icon更新对照表" transform="translate(-397.000000, -805.000000)" fill="#000000" fill-rule="nonzero">
            <g id="icon-alarm" transform="translate(397.000000, 805.000000)">
                <rect id="矩形" opacity="0" x="0" y="0" width="16" height="16"></rect>
                <path d="M11.2144,12.6192 L11.2136,12.6192 C10.8162672,12.6192 10.4940415,12.9410674 10.4936,13.3384 L10.4936,13.3392 C10.4936,13.736845 10.815955,14.0592 11.2136,14.0592 L11.2144,14.0592 C11.612045,14.0592 11.9344,13.736845 11.9344,13.3392 L11.9344,13.3384 C11.9339585,12.9410674 11.6117328,12.6192 11.2144,12.6192 L11.2144,12.6192 Z M11.2136,12.1192 C11.6109328,12.1192 11.9331585,11.7973326 11.9336,11.4 L11.9336,9.4576 C11.9336,9.05995498 11.611245,8.7376 11.2136,8.7376 C10.815955,8.7376 10.4936,9.05995498 10.4936,9.4576 L10.4936,11.4 C10.4940415,11.7973326 10.8162672,12.1192 11.2136,12.1192 L11.2136,12.1192 Z M6.46,13.668 L6.4232,13.5896 L3.9896,13.5896 L4.664,11.6904 C5.088,11.8552 5.532,11.9792 5.996,12.0456 C5.96769485,11.8307329 5.95273284,11.6143181 5.9512,11.3976 C5.9512,11.1208 5.9792,10.852 6.02,10.5864 C3.83475345,10.1839078 2.24828866,8.27880414 2.248,6.0568 C2.22611441,4.39562045 3.09980501,2.85117575 4.53489199,2.01420392 C5.96997896,1.17723209 7.74442104,1.17723209 9.17950801,2.01420392 C10.614595,2.85117575 11.4882856,4.39562045 11.4664,6.0568 C11.4664,6.0872 11.4632,6.1176 11.4624,6.148 C11.9503754,6.16989467 12.4329023,6.25982993 12.896,6.4152 C12.9032,6.296 12.9144001,6.1776 12.9144001,6.0568 C12.9146122,4.45037171 12.2765551,2.90967762 11.1406387,1.77376128 C10.0047224,0.637844936 8.46402829,-0.000212223833 6.8576,-5.29237809e-08 C5.25109816,-0.000212191501 3.71032185,0.637819444 2.57427848,1.77371278 C1.43823511,2.90960612 0.799999772,4.45029815 0.799999772,6.0568 C0.799458869,8.02912572 1.76319692,9.87713675 3.3808,11.0056 L2.4624,13.5896 L2,13.5896 C1.602355,13.5896 1.28000004,13.911955 1.28000004,14.3096 C1.28000004,14.707245 1.602355,15.0296 2,15.0296 L7.3832,15.0296 L7.192,14.8024 C6.90071021,14.4569648 6.65472099,14.0757487 6.46,13.668 L6.46,13.668 Z M9.6056,6.2408 C9.39857167,5.5177569 8.91750085,4.90407586 8.2648,4.5304 C8.2344,4.5128 8.2016,4.4992 8.1704,4.4824 C8.06643696,4.42654911 7.95901912,4.37738273 7.8488,4.3352 C7.8088,4.3192 7.7672,4.308 7.7264,4.2944 C7.61782951,4.2583554 7.50723992,4.22870457 7.3952,4.2056 C7.352,4.1976 7.308,4.1912 7.2648,4.1848 C7.204,4.1752 7.1456,4.16 7.084,4.1552 C7.032,4.1504 6.9824,4.1576 6.9312,4.1552 C6.9,4.1544 6.8712,4.148 6.8392,4.148 C6.8104,4.148 6.7832,4.1552 6.7536,4.156 C6.61755022,4.15970864 6.48197008,4.17361429 6.348,4.1976 C6.2992,4.2056 6.2512,4.2136 6.2032,4.224 C6.0696,4.2544 5.9416,4.296 5.8152,4.3448 C5.7728,4.3608 5.7288,4.3744 5.6864,4.3928 C5.5608,4.4488 5.4416,4.516 5.3248,4.5896 C5.2896,4.6112 5.252,4.6296 5.2176,4.6528 C5.09914062,4.73660507 4.98709653,4.82912836 4.8824,4.9296 C4.8584,4.9528 4.8304,4.9712 4.8064,4.9952 C4.68666121,5.11599136 4.57821033,5.24747132 4.4824,5.388 C4.416,5.4832 4.3648,5.588 4.3112,5.6912 C4.2848,5.7416 4.2536,5.788 4.2304,5.84 C4.1816,5.9472 4.148,6.06 4.1136,6.1736 C4.0984,6.2216 4.076,6.2656 4.064,6.3144 C4.0608,6.3264 4.0608,6.3384 4.0584,6.3512 C4.03336331,6.46514041 4.01572646,6.58058164 4.0056,6.6968 C3.996,6.78 3.9824,6.8632 3.98,6.9456 C3.98,6.9688 3.9736,6.9904 3.9736,7.0144 C3.9736,7.0928 3.9872,7.168 3.9936,7.2456 C3.9992,7.3256 4.0016,7.4064 4.0144,7.4856 C4.0256,7.5536 4.0464,7.6184 4.0624,7.6848 C4.23333471,8.40738236 4.68046448,9.034283 5.308,9.4312 L5.3192,9.4384 C5.5464,9.5808 5.788,9.704 6.0592,9.7824 L6.1856,9.8192 L6.192,9.8008 L6.1992,9.8024 C6.3536,9.3176 6.5752,8.8624 6.8552,8.4496 L6.8392,8.4512 C6.4432,8.4512 6.084,8.2896 5.824,8.0304 L5.8232,8.0296 C5.76477149,7.96966914 5.71151511,7.9049051 5.664,7.836 C5.6568,7.8256 5.6488,7.816 5.6424,7.8056 C5.6056,7.7512 5.5768,7.692 5.548,7.6328 C5.5352,7.6048 5.52,7.5792 5.5088,7.552 C5.496,7.5184 5.488,7.4832 5.4776,7.4488 C5.43378716,7.31387808 5.41085566,7.17305173 5.4096,7.0312 C5.41266021,6.23723262 6.05483882,5.59398312 6.8488,5.5896 C7.1968,5.5904 7.516,5.7152 7.7648,5.9232 L7.788,5.9432 C7.85632624,6.0029804 7.91850233,6.06944449 7.9736,6.1416 C8.02916728,6.2145725 8.07790585,6.29250066 8.1192,6.3744 C8.16312292,6.46088322 8.19771771,6.55179512 8.2224,6.6456 C8.232,6.6824 8.2432,6.7192 8.2504,6.7576 C8.2656,6.8408 8.276,6.9264 8.276,7.0144 L8.2744,7.0328 C8.69262128,6.75086542 9.14932394,6.53073205 9.6304,6.3792 C9.6296,6.3768 9.628,6.3744 9.628,6.3712 L9.6408,6.3672 L9.6056,6.2408 L9.6056,6.2408 Z M11.2144,14.56 C9.4709787,14.5538535 8.05930534,13.1418228 8.0536,11.3984 C8.05755359,9.65443112 9.46963462,8.24127762 11.2136,8.236 C12.9576171,8.2408418 14.3697239,9.65437885 14.3728,11.3984 C14.3675386,13.1410718 12.9570655,14.5529739 11.2144,14.56 L11.2144,14.56 Z M11.2144,6.7968 L11.2136,6.7968 C8.67569846,6.80427512 6.62055111,8.8604949 6.6144,11.3984 C6.62098832,13.9361234 8.67588036,15.9920878 11.2136,16 C13.7513196,15.9920878 15.8062117,13.9361234 15.8128,11.3984 C15.8062139,8.86098762 13.7518072,6.80515126 11.2144,6.7968 L11.2144,6.7968 Z M7.7896,2.9952 C7.76879916,2.49112821 7.35410079,2.09318969 6.8496,2.09318969 C6.34509921,2.09318969 5.93040084,2.49112821 5.9096,2.9952 C5.93040084,3.49927179 6.34509921,3.89721031 6.8496,3.89721031 C7.35410079,3.89721031 7.76879916,3.49927179 7.7896,2.9952 Z" id="形状"></path>
            </g>
        </g>
    </g>
</svg>