<?xml version="1.0" encoding="UTF-8"?>
<svg width="16px" height="16px" viewBox="0 0 16 16" version="1.1" xmlns="http://www.w3.org/2000/svg" xmlns:xlink="http://www.w3.org/1999/xlink">
    <title>icon-control</title>
    <g id="恩墨图标库" stroke="none" stroke-width="1" fill="none" fill-rule="evenodd">
        <g id="zCloud-icon更新对照表" transform="translate(-397.000000, -1305.000000)">
            <g id="icon-control" transform="translate(397.000000, 1305.000000)">
                <path d="M12.32,0 C12.56,0 12.88,0.08 13.04,0.32 C13.28,0.56 13.36,0.8 13.36,1.12 L13.36,1.12 L13.36,7.2 C14,7.52 14.64,7.6 15.28,7.6 L15.28,7.6 L16,7.6 L16,11.92 C16,13.04 15.6,14.72 12.56,15.92 L12.56,15.92 L12.32,16 L12.08,15.92 C10.8,15.44 9.92,14.8 9.36,14.08 L9.36,14.08 L1.04,14.08 C0.48,14.08 0,13.6 0,12.96 L0,12.96 L0,1.12 C0,0.48 0.48,0 1.04,0 L1.04,0 Z M12.24,8 C11.6,8.48 10.8,8.8 9.92,8.8 L9.92,8.8 L9.92074074,12 C9.92444444,12.2666667 9.94666667,12.5333333 10.08,12.8 C10.24,13.12 10.4,13.36 10.64,13.6 C11.12,14.08 11.6,14.4 12.24,14.64 C14.64,13.6 14.64,12.4 14.64,11.84 L14.64,11.84 L14.64,8.8 C14.08,8.72 13.52,8.64 12.96,8.4 C12.72,8.32 12.48,8.16 12.24,8 Z M13.99992,9.59984 L14.47992,10.23984 L14.23992,10.39984 C14.15992,10.47984 12.95992,11.51984 12.31992,12.95984 L12.31992,12.95984 L12.15992,13.35984 L10.07992,11.43984 L10.95992,10.71984 L11.83992,11.51984 C11.83992,11.43984 11.91992,11.43984 11.91992,11.35984 C12.31992,10.87984 12.95992,10.07984 13.75992,9.67984 L13.75992,9.67984 L13.99992,9.59984 Z M8.64,9.76 L1.2,9.76 L1.2,12.48 C1.2,12.56 1.28,12.64 1.36,12.64 L1.36,12.64 L8.72,12.72 C8.64,12.48 8.64,12.24 8.64,12 L8.64,12 L5.1552,12 C4.924,12 4.5152,11.776 4.5152,11.3408 C4.5152,10.9064 4.8024,10.56 5.1752,10.56 L5.1752,10.56 L8.64,10.56 L8.64,9.76 Z M2.87,10.52 C3.2676,10.52 3.59,10.8424 3.59,11.24 C3.59,11.6376 3.2676,11.96 2.87,11.96 C2.4724,11.96 2.15,11.6376 2.15,11.24 C2.15,10.8424 2.4724,10.52 2.87,10.52 Z M12,5.6 L1.2,5.6 L1.2,8.48 L8.64,8.48 L8.64,7.6 L9.28,7.6 C11.04,7.68 11.84,6.88 11.84,6.88 L11.84,6.88 L12,6.64 L12,5.6 Z M2.87,6.32 C3.2676,6.32 3.59,6.6424 3.59,7.04 C3.59,7.4376 3.2676,7.76 2.87,7.76 C2.4724,7.76 2.15,7.4376 2.15,7.04 C2.15,6.6424 2.4724,6.32 2.87,6.32 Z M10.64,6.31968 C10.96,6.31968 11.2,6.47968 11.12,6.71968 C10.8,6.87968 10.16,7.11968 9.2,7.11968 L9.2,7.11968 L8.16,7.11968 L8.16,7.67968 L5.1552,7.67968 C4.7552,7.67968 4.5152,7.46368 4.5152,6.99968 C4.5152,6.53648 4.8352,6.31968 5.1552,6.31968 L5.1552,6.31968 Z M11.84,1.36 L1.36,1.36 C1.28,1.36 1.2,1.44 1.2,1.52 L1.2,1.52 L1.2,4.24 L12,4.24 L12,1.52 C12,1.44 11.92,1.36 11.84,1.36 L11.84,1.36 Z M10.64,2.07984 C11.04,2.07984 11.36,2.39984 11.36,2.79984 C11.36,2.95984 11.28,3.11984 11.2,3.27984 C11.04,3.43984 10.88,3.51984 10.72,3.51984 L10.72,3.51984 L5.1544,3.51984 C4.8344,3.51984 4.5144,3.19984 4.5144,2.79984 C4.5144,2.39984 4.7544,2.07984 5.1544,2.07984 L5.1544,2.07984 Z M2.87,2.07976 C3.2676,2.07976 3.59,2.40216 3.59,2.79976 C3.59,3.19736 3.2676,3.51976 2.87,3.51976 C2.4724,3.51976 2.15,3.19736 2.15,2.79976 C2.15,2.40216 2.4724,2.07976 2.87,2.07976 Z" id="形状结合" fill="#000000"></path>
            </g>
        </g>
    </g>
</svg>