<?xml version="1.0" encoding="UTF-8"?>
<svg width="16px" height="16px" viewBox="0 0 16 16" version="1.1" xmlns="http://www.w3.org/2000/svg" xmlns:xlink="http://www.w3.org/1999/xlink">
    <title>icon-refresh</title>
    <g id="页面-1" stroke="none" stroke-width="1" fill="none" fill-rule="evenodd">
        <g id="zCloud-icon更新对照表" transform="translate(-2612.000000, -856.000000)" fill="#000000" fill-rule="nonzero">
            <g id="icon-refresh" transform="translate(2612.000000, 856.000000)">
                <rect opacity="0" x="0" y="0" width="16" height="16"></rect>
                <path d="M10.8808,12.6024 C10.0122258,13.2211547 8.96871421,13.5462886 7.9024,13.5304 C7.76350473,13.5286272 7.62473197,13.5214217 7.4864,13.5088 C7.4304,13.504 7.3744,13.4944 7.3176,13.4872 C7.20992421,13.4739146 7.10267512,13.4573737 6.996,13.4376 C6.9304,13.4248 6.8672,13.408 6.8032,13.3936 C6.70030447,13.3699429 6.59812697,13.3432647 6.4968,13.3136 C6.448,13.2984 6.4008,13.2816 6.3528,13.2648 C6.2368,13.2248 6.1208,13.1848 6.008,13.1368 C5.9824,13.1264 5.9576,13.1144 5.9328,13.1024 C5.80116889,13.0448679 5.67199034,12.9818801 5.5456,12.9136 L5.528,12.904 C5.10257436,12.6676798 4.71282474,12.3722027 4.3704,12.0264 L4.3544,12.0088 C4.24797719,11.900678 4.14653857,11.7877608 4.0504,11.6704 L3.9904,11.5928 C3.26782732,10.6797177 2.87510669,9.54920103 2.876,8.3848 L4.0552,8.3848 C4.08708248,8.38522068 4.1165564,8.36788595 4.13168321,8.3398173 C4.14681003,8.31174865 4.14508236,8.27759869 4.1272,8.2512 L2.144,5.24 C2.12818194,5.21585785 2.10126268,5.20131268 2.0724,5.20131268 C2.04353732,5.20131268 2.01661806,5.21585785 2.0008,5.24 L0.0184,8.2512 C0.00096697776,8.27757354 -0.000510207056,8.31140859 0.0145580116,8.33920108 C0.0296262303,8.36699357 0.0587862959,8.38421806 0.0904,8.384 L1.2696,8.384 C1.26795423,9.75423707 1.68098772,11.0929006 2.4544,12.224 C2.4632,12.24 2.4704,12.256 2.48,12.2712 C2.5576,12.3832 2.6432,12.4856 2.7264,12.5912 C2.7568,12.6312 2.7856,12.6728 2.8176,12.7112 C2.94,12.8616 3.0696,13.0024 3.2032,13.1408 C3.216,13.1544 3.2272,13.168 3.24,13.18 C3.68432674,13.6303098 4.19079068,14.0147375 4.744,14.3216 C4.7584,14.3296 4.7728,14.3392 4.7888,14.3472 C4.94779084,14.4326776 5.11004686,14.5119375 5.2752,14.5848 C5.3168,14.6032 5.3568,14.6232 5.3984,14.6408 C5.54,14.7 5.6848,14.7528 5.8304,14.8016 C5.9,14.8256 5.9688,14.8496 6.0384,14.8712 C6.1664,14.9096 6.2976,14.9416 6.4296,14.9736 C6.5168,14.9936 6.6032,15.016 6.692,15.0336 C6.7296,15.0416 6.764,15.0528 6.8,15.0576 C6.924,15.0808 7.0496,15.0928 7.1736,15.108 C7.2184,15.1136 7.2624,15.1216 7.3072,15.1264 C7.5312,15.1488 7.7536,15.1632 7.976,15.1632 C9.336,15.1632 10.664,14.7416 11.8024,13.9344 C12.1656,13.676 12.2536,13.1696 12,12.8016 C11.8794924,12.6249061 11.6929496,12.5041402 11.4824091,12.4665168 C11.2718687,12.4288934 11.0550452,12.4775782 10.8808,12.6016 L10.8808,12.6024 Z M14.6568,8.384 C14.6576263,7.01758607 14.2463919,5.6826775 13.4768,4.5536 C13.4664,4.5344 13.4592,4.516 13.4464,4.4976 C13.3544,4.3648 13.2544,4.2408 13.1536,4.116 C13.1424,4.1008 13.1312,4.0848 13.1192,4.0704 C12.4506514,3.24585064 11.5938136,2.59396251 10.6208,2.1696 C10.5936,2.1584 10.5672,2.1456 10.5408,2.1336 C10.3855121,2.06983076 10.2280866,2.01139654 10.0688,1.9584 C10.0128,1.9392 9.9568,1.9184 9.8976,1.9008 C9.75858872,1.85960611 9.61824429,1.82305253 9.4768,1.7912 C9.3984,1.7728 9.3208,1.7528 9.2416,1.7368 C9.2016,1.7288 9.1648,1.7176 9.1264,1.7104 C9.0208,1.692 8.9144,1.684 8.8088,1.6704 C8.7352,1.6608 8.6632,1.6488 8.5896,1.6416 C8.4136,1.6256 8.236,1.6176 8.0584,1.6144 C8.0264,1.6144 7.9944,1.6096 7.9624,1.6096 L7.9464,1.6112 C6.57619529,1.61155048 5.24024553,2.03943475 4.1248,2.8352 C3.76095361,3.09532038 3.67299826,3.59919418 3.9272,3.9672 C4.04770055,4.14366256 4.23408859,4.26426767 4.4444324,4.3018828 C4.65477622,4.33949793 4.87141084,4.29096412 5.0456,4.1672 C6.03222681,3.46297294 7.24097065,3.14088762 8.4472,3.2608 C8.4928,3.2656 8.5376,3.2728 8.5832,3.2784 C8.7032,3.2928 8.8232,3.3104 8.9416,3.3344 C8.9936,3.344 9.0456,3.3584 9.096,3.3696 C9.212,3.396 9.328,3.4248 9.4408,3.4592 C9.4768,3.4704 9.5128,3.4832 9.548,3.4952 C9.6768,3.5376 9.804,3.5848 9.9296,3.6368 L9.9672,3.6544 C10.7132078,3.98013426 11.3706417,4.47931225 11.8848,5.1104 L11.8944,5.1224 C12.6430277,6.04443738 13.0510022,7.19631554 13.0496,8.384 L11.8696,8.384 C11.8379863,8.38378194 11.8088262,8.40100643 11.793758,8.42879892 C11.7786898,8.45659141 11.780167,8.49042646 11.7976,8.5168 L13.7816,11.528 C13.7974181,11.5521421 13.8243373,11.5666873 13.8532,11.5666873 C13.8820627,11.5666873 13.9089819,11.5521421 13.9248,11.528 L15.9072,8.5168 C15.924633,8.49042646 15.9261102,8.45659141 15.911042,8.42879892 C15.8959738,8.40100643 15.8668137,8.38378194 15.8352,8.384 L14.6568,8.384 L14.6568,8.384 Z"></path>
            </g>
        </g>
    </g>
</svg>