<?xml version="1.0" encoding="UTF-8"?>
<svg width="16px" height="16px" viewBox="0 0 16 16" version="1.1" xmlns="http://www.w3.org/2000/svg" xmlns:xlink="http://www.w3.org/1999/xlink">
    <title>icon-mail</title>
    <g id="页面-1" stroke="none" stroke-width="1" fill="none" fill-rule="evenodd">
        <g id="zCloud-icon更新对照表" transform="translate(-1934.000000, -1105.000000)" fill="#000000" fill-rule="nonzero">
            <g id="icon-mail" transform="translate(1934.000000, 1105.000000)">
                <rect id="矩形" opacity="0" x="0" y="0" width="16" height="16"></rect>
                <path d="M14.6656,13.6 L1.3336,13.604 L1.3336,5.4816 L7.6424,9.496 C7.86096982,9.63451276 8.13983018,9.63451276 8.3584,9.496 L14.6664,5.4816 L14.6656,13.6 Z M1.3336,2.928 L1.3352,2.9336 L14.6664,2.9288 L14.6664,3.9008 L8,8.1424 L1.3336,3.9008 L1.3336,2.928 Z M14.6656,1.599999 L1.3352,1.599999 C0.600230246,1.59911173 0.0030857212,2.19303619 0,2.928 L0,13.604 C0,14.3368 0.6,14.9336 1.336,14.9336 L14.6656,14.9336 C15.4008,14.9336 15.9976,14.3392 16,13.604 L16,2.9288 C15.9973548,2.19383597 15.4005687,1.59955435 14.6656,1.599999 Z" id="形状"></path>
            </g>
        </g>
    </g>
</svg>