<?xml version="1.0" encoding="UTF-8"?>
<svg width="16px" height="16px" viewBox="0 0 16 16" version="1.1" xmlns="http://www.w3.org/2000/svg" xmlns:xlink="http://www.w3.org/1999/xlink">
    <title>icon-invisible</title>
    <g id="页面-1" stroke="none" stroke-width="1" fill="none" fill-rule="evenodd">
        <g id="zCloud-icon更新对照表" transform="translate(-1934.000000, -1555.000000)">
            <g id="icon-invisible" transform="translate(1934.000000, 1555.000000)">
                <path d="M0.91449939,0.91449939 C1.24494302,0.584055759 1.780698,0.584055759 2.11114164,0.91449939 L2.11114164,0.91449939 L15.0855006,13.8888584 C15.4159442,14.219302 15.4159442,14.755057 15.0855006,15.0855006 C14.755057,15.4159442 14.219302,15.4159442 13.8888584,15.0855006 L13.8888584,15.0855006 L12.0165691,13.2130853 C10.9442138,13.8138264 9.6136173,14.2329397 7.98831658,14.2329397 C2.25484925,14.2329397 0.194145729,9.02932161 0.174045226,8.9770603 C-0.0607286432,8.5131407 -0.0534924623,7.74932161 0.215854271,7.22027638 C0.25836928,7.12029603 1.02654532,5.37705858 2.73728837,3.93404154 L0.91449939,2.11114164 C0.584055759,1.780698 0.584055759,1.24494302 0.91449939,0.91449939 Z M1.44520101,7.79595477 C1.35354271,7.98007538 1.34791457,8.29525126 1.41625628,8.43113065 C1.51032663,8.66751256 3.20439698,12.8749497 7.98831658,12.8749497 C9.17766775,12.8749497 10.17842,12.6088169 11.0113634,12.2075157 L9.79820261,10.9935025 C9.31786311,11.4236604 8.68370104,11.6855805 7.98831658,11.686608 C6.5438556,11.6849007 5.3632846,10.5574315 5.27662945,9.13447186 L5.27153266,8.9690201 L5.27153266,7.44298995 C5.27179274,7.14934946 5.31857964,6.86659814 5.40492095,6.60171255 L3.71205009,4.9096249 C2.15826961,6.17757557 1.45679218,7.77035759 1.44520101,7.79595477 Z M7.98831658,2.00942211 C13.4653015,2.00942211 15.6819849,7.0369598 15.7728392,7.25082915 C16.0196734,7.7051005 16.0365578,8.485 15.7873116,9.01163317 C15.7873116,9.01514322 15.3011187,10.2437836 14.1461195,11.5081809 L13.1912492,10.5528662 C14.1325993,9.50773499 14.5317768,8.50014975 14.5394724,8.47937186 C14.6263065,8.2928392 14.6206784,7.97123116 14.5507286,7.84017588 C14.4470101,7.60701005 12.5567588,3.36741206 7.98831658,3.36741206 C7.35322617,3.36741206 6.76902849,3.45128514 6.23374191,3.59594691 L5.14821229,2.51045574 C5.97669889,2.2008909 6.92067068,2.00942211 7.98831658,2.00942211 Z M6.6294569,7.82566667 L6.62952261,8.9690201 C6.62952261,9.71917085 7.23896985,10.3278141 7.98751256,10.3278141 C8.30808592,10.3278141 8.60273062,10.2168003 8.83509999,10.0311193 L6.6294569,7.82566667 Z M7.98751256,4.72540201 C9.43247518,4.72753588 10.6125814,5.85490082 10.6992018,7.27757224 L10.7042965,7.44298995 L10.7034569,8.06542211 L7.42368692,4.78476928 C7.6055695,4.74614055 7.79417476,4.72568768 7.98751256,4.72540201 Z" id="形状结合" fill="#000000" fill-rule="nonzero"></path>
            </g>
        </g>
    </g>
</svg>