<?xml version="1.0" encoding="UTF-8"?>
<svg width="16px" height="16px" viewBox="0 0 16 16" version="1.1" xmlns="http://www.w3.org/2000/svg" xmlns:xlink="http://www.w3.org/1999/xlink">
    <title>icon-menu</title>
    <g id="页面-1" stroke="none" stroke-width="1" fill="none" fill-rule="evenodd">
        <g id="zCloud-icon更新对照表" transform="translate(-1934.000000, -1405.000000)">
            <g id="icon-menu" transform="translate(1934.000000, 1405.000000)">
                <polygon id="Fill-1" points="0 16 16 16 16 0 0 0"></polygon>
                <path d="M14.85304,12.4864 C15.16824,12.4952 15.46104,12.6264 15.67704,12.856 C15.89464,13.0856 16.00824,13.3856 15.99864,13.7008 C15.98024,14.324 15.47864,14.8264 14.85624,14.8464 L14.85624,14.8464 L1.14664,14.8464 C0.49624,14.828 -0.01896,14.2824 0.00024,13.632 C0.01944,13.008 0.52264,12.504 1.14024,12.4864 L1.14024,12.4864 Z M14.85384,6.82016 C15.16904,6.82896 15.46184,6.96016 15.67864,7.18976 C15.89544,7.41936 16.00904,7.71936 15.99944,8.03456 C15.98184,8.65776 15.48024,9.16016 14.85624,9.18016 L14.85624,9.18016 L1.22424,9.18016 C0.57304,9.16096 0.05944,8.61616 0.07864,7.96576 C0.09624,7.34096 0.59944,6.83856 1.21784,6.82016 L1.21784,6.82016 Z M14.85248,1.15392 C15.16848,1.16272 15.46048,1.29392 15.67728,1.52352 C15.89408,1.75312 16.00848,2.05312 15.99888,2.36832 C15.98048,2.99152 15.47888,3.49392 14.85568,3.51392 L14.85568,3.51392 L1.14608,3.51392 C0.83088,3.50512 0.53808,3.37312 0.32208,3.14432 C0.10528,2.91472 -0.00912,2.61472 0.00048,2.29952 C0.01888,1.67552 0.52208,1.17232 1.14048,1.15392 L1.14048,1.15392 Z" id="形状结合" fill="#000000"></path>
            </g>
        </g>
    </g>
</svg>