<?xml version="1.0" encoding="UTF-8"?>
<svg width="16px" height="16px" viewBox="0 0 16 16" version="1.1" xmlns="http://www.w3.org/2000/svg" xmlns:xlink="http://www.w3.org/1999/xlink">
    <title>icon-sql-server</title>
    <g id="恩墨图标库" stroke="none" stroke-width="1" fill="none" fill-rule="evenodd">
        <g id="zCloud-icon更新对照表" transform="translate(-397.000000, -555.000000)" fill="#000000">
            <g id="icon-sql-server" transform="translate(397.000000, 555.000000)">
                <rect opacity="0" x="0" y="0" width="16" height="16"></rect>
                <path d="M4.3676918,11.7996492 C4.0395506,12.4224854 3.62383383,12.99867 3.1323082,13.5118941 C3.29857758,13.5032694 3.46468813,13.4920008 3.63057209,13.4780931 C4.41152447,13.412771 5.17372685,13.2885682 5.88817791,13.0932398 C6.14214616,12.5541773 6.34470899,11.9538903 6.49558532,11.2920599 C5.80240533,11.5187643 5.09056543,11.6884711 4.3676918,11.7993622 L4.3676918,11.7996492 Z M3.25687831,11.9200574 C2.48175728,11.9693583 1.70360604,11.9512152 0.931861772,11.8658482 C0.839037698,12.5156888 1.11749339,13.0807079 1.78506944,13.5530134 C2.38068783,13.0588329 2.87108135,12.5150989 3.25687831,11.9200574 L3.25687831,11.9200574 Z M5.16527778,8.93113839 L5.1985119,8.93405612 C5.14014863,9.58145459 5.00211958,10.2198588 4.78733466,10.8358099 C5.43091863,10.7055122 6.06278032,10.5262306 6.67698413,10.2996492 C6.75408399,9.74979273 6.80124008,9.16438138 6.81818783,8.54250638 C6.57448743,8.59587054 6.34955357,8.64601403 6.13277116,8.69587054 C5.78991402,8.77458546 5.46760913,8.85271046 5.16526124,8.93113839 L5.16527778,8.93113839 Z M4.25732474,9.18478954 C3.73821098,9.34221939 3.29224537,9.5028699 2.91069775,9.67283163 C2.88227513,9.68770727 2.85415013,9.70256696 2.82542989,9.71715561 L2.82301587,9.71277105 C2.02089947,10.0830357 1.51597222,10.4979114 1.22210648,11.0159758 C2.04206349,11.0932398 2.88530093,11.0946907 3.75393519,10.9973214 C4.00124008,10.4328922 4.16875,9.82879464 4.25732474,9.18450255 L4.25732474,9.18478954 Z M7.02680225,12.6985013 C7.68439153,12.4145249 8.24373347,12.0570791 8.68756614,11.6203603 C8.70898685,11.5406766 8.72914462,11.4606822 8.74803241,11.380405 C8.82633929,11.0489318 8.88257275,10.6754624 8.91643519,10.2605867 C8.45404225,10.5050505 7.97927774,10.7270957 7.49391534,10.9258929 C7.37962963,11.5611767 7.22423942,12.1521365 7.02709987,12.6985013 L7.02680225,12.6985013 Z M4.85626653,14.6605708 C5.00817138,14.4930217 5.15000397,14.3172239 5.28106812,14.1340402 C4.72574775,14.2415288 4.16417082,14.3164008 3.59943783,14.358243 C3.97736442,14.469021 4.39611442,14.569898 4.85626653,14.6608578 L4.85626653,14.6605708 Z M5.87577712,14.8349171 C6.33835979,14.9031409 6.83420966,14.9632015 7.36331019,15.0145089 C7.69285714,14.3077966 7.96830357,13.669021 8.19021164,13.0984694 C7.69406415,13.3879783 7.13835979,13.6261639 6.53215939,13.8180166 C6.34297992,14.1738826 6.12353363,14.5140141 5.87607474,14.8349171 L5.87577712,14.8349171 Z M7.63812831,9.90605867 C8.08810963,9.70194949 8.52781101,9.47739933 8.95575397,9.23316327 C8.95575397,8.87893814 8.94365079,8.50197704 8.91886574,8.10283801 L8.27213955,8.23549107 C8.09118817,8.27286025 7.91029073,8.31047189 7.72944775,8.34832589 C7.72209988,8.86858441 7.6916321,9.38830023 7.63812831,9.90605867 L7.63812831,9.90605867 Z M9.30464616,7.12908163 C10.6047288,6.72471301 10.973578,6.08769133 10.731713,4.63228635 C10.0106151,4.71595982 9.321875,4.88010204 8.67063492,5.11130421 C8.58900463,5.9628986 8.34198082,6.73112245 7.9280754,7.41216518 L8.08227513,7.38011798 C8.03510251,7.39000319 8.65188492,7.26348852 9.3046627,7.12908163 L9.30464616,7.12908163 Z M11.3732804,6.73520408 C12.1261078,6.63491709 13.1613426,6.54424426 14.4837798,6.46261161 C13.9265708,5.82558992 12.9784226,5.19351084 11.6366237,4.57922513 C11.7687335,5.48506059 11.6940642,6.18885523 11.373578,6.73520408 L11.3732804,6.73520408 Z M7.69799934,5.51831952 C7.23815632,5.73874017 6.80015847,5.9991978 6.38946759,6.29646046 C6.22437169,6.41715561 6.08377976,6.53262117 5.99641204,6.6113361 C5.83315146,7.11221301 5.5489418,7.58537946 5.1468254,8.03115434 C5.39444444,7.96905293 5.65294312,7.90695153 5.92263558,7.84515306 C6.14534094,7.79387528 6.36837208,7.74392216 6.59171627,7.69529656 C7.16617063,7.08364158 7.53503638,6.36001276 7.69799934,5.51831952 L7.69799934,5.51831952 Z M8.65067791,3.59500957 C8.67233247,3.78843521 8.68705684,3.98252397 8.69482474,4.17692921 C9.07556222,4.05635397 9.46346218,3.95792547 9.85643188,3.88217474 C9.46141848,3.76126765 9.05864499,3.66534217 8.65067791,3.59500957 L8.65067791,3.59500957 Z M7.72127976,3.46760204 C7.16587302,3.40929528 6.54092262,3.36992985 5.79414683,3.33611288 C5.60548942,3.32735969 5.4328373,3.31862245 5.27410714,3.30870536 C5.78386243,4.02299107 6.07410714,4.71803253 6.13700397,5.39325574 C6.6590322,5.04863592 7.21379484,4.75255978 7.79385702,4.50900829 C7.79473614,4.16067006 7.77049325,3.81269365 7.72127976,3.46760204 L7.72127976,3.46760204 Z M2.51402116,8.88507653 C4.07833995,8.05562819 4.95755622,7.13697385 5.18885582,6.14250638 C5.39503968,5.25621811 5.00261243,4.24834184 3.96436839,3.11423788 C3.75492263,3.0436416 3.56661352,2.92461855 3.41592262,2.7675861 C2.90917659,2.25154656 3.14803241,1.66699617 3.85643188,1.22297513 C4.40547288,0.878667092 5.3270172,0.526482781 6.63707011,0.153587372 L7.14923942,0.0078125 L7.21545966,0.518893495 C7.32762897,1.38624043 7.72490079,2.09819834 8.42089947,2.67107781 C9.41319444,2.81248406 10.2337467,3.03842474 11.205787,3.43493304 C13.6039683,4.41422194 15.1054067,5.47632334 15.7003968,6.66321747 L15.9957837,7.25301339 L15.3176257,7.29032207 C13.0675926,7.41364796 11.5468089,7.55854592 10.7746362,7.71977041 C10.4550402,7.78623621 10.1353586,7.85231832 9.81559193,7.91801658 C9.91595569,9.4078125 9.85641534,10.6250159 9.63267196,11.5739955 C9.39442791,12.5856665 8.86865079,13.9451371 8.05535714,15.6614636 L7.92170966,15.9436703 L7.60122354,15.9150989 C2.17207341,15.434646 -0.445601852,14.034646 0.0629298942,11.5783642 C0.317493386,10.3486288 1.04160053,9.53901467 2.51431878,8.88507653 L2.51402116,8.88507653 Z M6.41122685,1.13434311 C5.43616071,1.43142538 4.74621362,1.70811543 4.35076058,1.95621811 C4.20864749,2.04542411 4.11977513,2.12152423 4.07986111,2.17195472 C4.25128968,2.33842474 4.68060516,2.40985332 5.83647487,2.46234056 C6.28363095,2.48274872 6.68968254,2.50491071 7.06549272,2.5323023 C6.75697488,2.11076242 6.53480539,1.63627233 6.41092923,1.13434311 L6.41122685,1.13434311 Z" fill-rule="nonzero"></path>
            </g>
        </g>
    </g>
</svg>