<?xml version="1.0" encoding="UTF-8"?>
<svg width="16px" height="16px" viewBox="0 0 16 16" version="1.1" xmlns="http://www.w3.org/2000/svg" xmlns:xlink="http://www.w3.org/1999/xlink">
    <title>icon-parameter</title>
    <g id="恩墨图标库" stroke="none" stroke-width="1" fill="none" fill-rule="evenodd">
        <g id="zCloud-icon更新对照表" transform="translate(-397.000000, -1155.000000)" fill="#000000" fill-rule="nonzero">
            <g id="icon-parameter" transform="translate(397.000000, 1155.000000)">
                <rect id="矩形" opacity="0" x="0" y="0" width="16" height="16"></rect>
                <path d="M6.176,8.536 C6.888,8.536 7.472,9.12 7.464,9.832 L7.464,14.704 C7.464,15.416 6.88,16 6.168,16 L1.296,16 L1.168,15.9936 C0.505091368,15.9278059 9.32587341e-15,15.3701657 9.32587341e-15,14.704 L9.32587341e-15,9.832 C9.32587341e-15,9.12 0.584,8.536 1.296,8.536 L6.176,8.536 Z M6.096,9.912 L1.376,9.912 L1.376,14.624 L6.096,14.624 L6.096,9.912 Z M15.312,13.144 C15.688,13.144 16,13.456 16,13.832 C16,14.208 15.688,14.52 15.312,14.52 L8.912,14.52 C8.536,14.52 8.224,14.208 8.224,13.832 C8.224,13.456 8.536,13.144 8.912,13.144 L15.312,13.144 Z M4.744,10.768 C5.016,10.496 5.448,10.504 5.72,10.768 C5.984,11.04 5.984,11.472 5.72,11.744 L3.752,13.712 C3.616,13.848 3.44,13.912 3.264,13.912 C3.088,13.912 2.912,13.848 2.776,13.712 L1.752,12.688 C1.48780342,12.4163038 1.48780342,11.9836962 1.752,11.712 C2.024,11.448 2.456,11.448 2.728,11.712 L3.264,12.248 L4.744,10.768 Z M15.312,10.016 C15.688,10.016 16,10.328 16,10.704 C16,11.08 15.688,11.392 15.312,11.392 L8.912,11.392 C8.536,11.392 8.224,11.08 8.224,10.704 C8.224,10.328 8.536,10.016 8.912,10.016 L15.312,10.016 Z M6.176,0 C6.888,0 7.472,0.584 7.464,1.296 L7.464,6.168 C7.464,6.88 6.88,7.464 6.168,7.464 L1.296,7.464 C0.584,7.464 0,6.88 0,6.168 L0,1.296 C0,0.584 0.584,0 1.296,0 L6.176,0 Z M6.096,1.376 L1.376,1.376 L1.376,6.088 L6.096,6.088 L6.096,1.376 Z M15.312,4.608 C15.688,4.608 16,4.912 16,5.296 C16,5.672 15.688,5.984 15.312,5.984 L8.912,5.984 C8.536,5.984 8.224,5.672 8.224,5.296 C8.224,4.92 8.536,4.608 8.912,4.608 L15.312,4.608 Z M4.744,2.232 C5.016,1.968 5.448,1.968 5.72,2.232 C5.984,2.504 5.984,2.936 5.72,3.208 L3.752,5.176 C3.616,5.312 3.44,5.376 3.264,5.376 C3.088,5.376 2.912,5.312 2.776,5.176 L1.752,4.152 C1.48780342,3.88030383 1.48780342,3.44769617 1.752,3.176 C2.024,2.912 2.456,2.912 2.728,3.176 L3.264,3.712 L4.744,2.232 Z M15.312,1.48 C15.688,1.48 16,1.792 16,2.168 C16,2.544 15.688,2.856 15.312,2.856 L8.912,2.856 C8.536,2.856 8.224,2.544 8.224,2.168 C8.224,1.792 8.536,1.48 8.912,1.48 L15.312,1.48 Z" id="形状"></path>
            </g>
        </g>
    </g>
</svg>