<?xml version="1.0" encoding="UTF-8"?>
<svg width="16px" height="16px" viewBox="0 0 16 16" version="1.1" xmlns="http://www.w3.org/2000/svg" xmlns:xlink="http://www.w3.org/1999/xlink">
    <title>icon-process</title>
    <g id="恩墨图标库" stroke="none" stroke-width="1" fill="none" fill-rule="evenodd">
        <g id="zCloud-icon更新对照表" transform="translate(-397.000000, -1105.000000)" fill="#000000" fill-rule="nonzero">
            <g id="icon-process" transform="translate(397.000000, 1105.000000)">
                <rect id="矩形" opacity="0" x="0" y="0" width="16" height="16"></rect>
                <path d="M15.296,11.152 L8.272,11.152 C7.88760981,11.152 7.576,11.4636098 7.576,11.848 C7.576,12.232 7.888,12.552 8.272,12.552 L15.296,12.552 C15.68,12.552 16,12.24 16,11.848 C16,11.464 15.688,11.152 15.296,11.152 Z M7.576,8.848 C7.576,9.232 7.888,9.552 8.272,9.552 L15.296,9.552 C15.68,9.552 16,9.24 16,8.848 C16,8.464 15.688,8.144 15.296,8.144 L8.272,8.144 C7.888,8.152 7.576,8.464 7.576,8.848 Z M9.288,2.32 C11.3937368,3.26917979 12.7421955,5.37026666 12.728,7.68 L14.096,7.68 C14.104,6.712 13.92,5.768 13.544,4.872 C12.392,2 9.44,0.184 6.36,0.48 C3.24,0.824 0.744,3.128 0.152,6.216 C-0.456,9.168 0.8,12.168 3.304,13.8 L1.296,13.68 C1.04380718,13.6589197 0.800621155,13.7789736 0.664,13.992 C0.528,14.208 0.512,14.48 0.624,14.704 C0.736,14.928 0.968,15.072 1.216,15.08 L5.912,15.352 L5.944,15.352 C6.18815275,15.3473027 6.41238821,15.2162757 6.536344,15.0058771 C6.66029979,14.7954784 6.66622647,14.5358355 6.552,14.32 L4.32,10.072 C4.26289555,9.95373355 4.17070583,9.85595658 4.056,9.792 C3.73328354,9.60331792 3.31877742,9.71051778 3.128,10.032 C2.99887275,10.2474198 2.99279283,10.5149362 3.112,10.736 L4.136,12.68 C3.01440361,11.9914573 2.16408005,10.9377341 1.728,9.696 C0.939577128,7.51550258 1.49255128,5.07554317 3.144,3.448 C4.7645621,1.84314704 7.2030562,1.39545476 9.288,2.32 Z M15.296,14.144 L8.272,14.144 C7.888,14.144 7.576,14.456 7.576,14.848 C7.576,15.232 7.888,15.552 8.272,15.552 L15.296,15.552 C15.68,15.552 16,15.24 16,14.848 C16,14.456 15.68,14.144 15.296,14.144 Z" id="形状"></path>
            </g>
        </g>
    </g>
</svg>