<?xml version="1.0" encoding="UTF-8"?>
<svg width="16px" height="16px" viewBox="0 0 16 16" version="1.1" xmlns="http://www.w3.org/2000/svg" xmlns:xlink="http://www.w3.org/1999/xlink">
    <title>icon-create</title>
    <g id="页面-1" stroke="none" stroke-width="1" fill="none" fill-rule="evenodd">
        <g id="zCloud-icon更新对照表" transform="translate(-1934.000000, -905.000000)" fill="#000000" fill-rule="nonzero">
            <g id="icon-create" transform="translate(1934.000000, 905.000000)">
                <rect opacity="0" x="0" y="0" width="16" height="16"></rect>
                <path d="M8,14.6664 C4.324,14.6664 1.3336,11.676 1.3336,8 C1.3336,4.324 4.324,1.3336 8,1.3336 C11.676,1.3336 14.6664,4.324 14.6664,8 C14.6664,11.676 11.676,14.6664 8,14.6664 M8,0 C3.5888,0 0,3.5888 0,8 C0,12.4112 3.5888,16 8,16 C12.4112,16 16,12.4112 16,8 C16,3.5888 12.4112,0 8,0 M11.5816,7.144 L8.6664,7.144 L8.6664,4.2296 C8.6664,3.86155744 8.36804256,3.5632 8,3.5632 C7.63195744,3.5632 7.3336,3.86155744 7.3336,4.2296 L7.3336,7.144 L4.4184,7.144 C4.05013653,7.144 3.7516,7.44253653 3.7516,7.8108 C3.7516,8.17906347 4.05013653,8.4776 4.4184,8.4776 L7.3336,8.4776 L7.3336,11.3928 C7.3336,11.7608426 7.63195744,12.0592 8,12.0592 C8.36804256,12.0592 8.6664,11.7608426 8.6664,11.3928 L8.6664,8.4768 L11.5824,8.4768 C11.8204818,8.47680001 12.0404785,8.34978489 12.1595194,8.14360001 C12.2785603,7.93741513 12.2785603,7.68338487 12.1595194,7.47719999 C12.0404785,7.27101511 11.8204818,7.14399999 11.5824,7.144"></path>
            </g>
        </g>
    </g>
</svg>