<?xml version="1.0" encoding="UTF-8"?>
<svg width="16px" height="16px" viewBox="0 0 16 16" version="1.1" xmlns="http://www.w3.org/2000/svg" xmlns:xlink="http://www.w3.org/1999/xlink">
    <title>icon-doubt</title>
    <g id="恩墨图标库" stroke="none" stroke-width="1" fill="none" fill-rule="evenodd">
        <g id="zCloud-icon更新对照表" transform="translate(-1934.000000, -555.000000)" fill="#000000" fill-rule="nonzero">
            <g id="icon-doubt" transform="translate(1934.000000, 555.000000)">
                <rect opacity="0" x="0" y="0" width="16" height="16"></rect>
                <path d="M12,13.32 C10.849078,14.1928228 9.44445165,14.6656201 8,14.6664 C6.55564037,14.6658503 5.15102311,14.193337 4,13.3208 C2.384,12.1024 1.3336,10.1744 1.3336,8 C1.3336,4.324 4.324,1.3336 8,1.3336 C11.676,1.3336 14.6664,4.324 14.6664,8 C14.6664,10.1744 13.6152,12.1024 12,13.32 M8,0 C3.5888,0 0,3.5888 0,8 C0,10.9536 1.6128,13.5312 4,14.9176 C5.2136236,15.6256532 6.59333031,15.9991512 7.9984,16 L8.0016,16 C9.40666969,15.9991512 10.7863764,15.6256532 12,14.9176 C14.3872,13.5312 16,10.9536 16,8 C16,3.5888 12.4112,0 8,0 M10.6656,5.7464 C10.6656,4.4144 9.4696,3.3336 8,3.3336 C6.5296,3.3336 5.3336,4.4152 5.3336,5.7464 L5.3336,6.0704 C5.3336,6.43844256 5.63195744,6.7368 6,6.7368 C6.36804256,6.7368 6.6664,6.43844256 6.6664,6.0704 L6.6664,5.7464 C6.6664,5.1504 7.2656,4.6664 8,4.6664 C8.736,4.6664 9.3336,5.1504 9.3336,5.7464 L9.3336,6.7704 C9.3344,6.8024 9.3224,7.4296 8.504,8 C8.29444856,8.14602985 8.06966544,8.26888268 7.8336,8.3664 C7.54215994,8.43901453 7.33680328,8.69965952 7.3344,9 L7.3344,9.7744 C7.3344,10.1424426 7.63275744,10.4408 8.0008,10.4408 C8.36884256,10.4408 8.6672,10.1424426 8.6672,9.7744 L8.6672,9.452 C9.5416,9.0216 10.036,8.484 10.3144,8 C10.7008,7.3224 10.668,6.7536 10.6664,6.736 L10.6664,5.7472 L10.6656,5.7472 L10.6656,5.7464 Z M8,11.3336 C7.63195744,11.3336 7.3336,11.6319574 7.3336,12 C7.3336,12.3680426 7.63195744,12.6664 8,12.6664 C8.36804256,12.6664 8.6664,12.3680426 8.6664,12 C8.6664,11.6319574 8.36804256,11.3336 8,11.3336"></path>
            </g>
        </g>
    </g>
</svg>