<?xml version="1.0" encoding="UTF-8"?>
<svg width="16px" height="16px" viewBox="0 0 16 16" version="1.1" xmlns="http://www.w3.org/2000/svg" xmlns:xlink="http://www.w3.org/1999/xlink">
    <title>icon-approval</title>
    <g id="恩墨图标库" stroke="none" stroke-width="1" fill="none" fill-rule="evenodd">
        <g id="zCloud-icon更新对照表" transform="translate(-397.000000, -1005.000000)" fill="#000000" fill-rule="nonzero">
            <g id="icon-approval" transform="translate(397.000000, 1005.000000)">
                <rect id="矩形" opacity="0" x="0.0156097561" y="0" width="15.9843902" height="16"></rect>
                <path d="M11.8552476,0 C12.7855391,0 13.5439994,0.7632 13.5439994,1.7 L13.5439994,4.7272 C13.5444267,4.98857551 13.4055164,5.23032517 13.1795935,5.36138421 C12.9536707,5.49244325 12.6750584,5.49290068 12.4487073,5.36258421 C12.2223561,5.23226773 12.0826542,4.99097551 12.082226,4.7296 L12.082226,1.7 C12.0817956,1.57311324 11.9796069,1.4701119 11.85285,1.4688 L1.70436059,1.4688 C1.57828134,1.47182355 1.47741065,1.57456414 1.47658302,1.7008 L1.47658302,14.3 C1.47658302,14.4256 1.58128078,14.5312 1.70436059,14.5312 L4.53199922,14.5312 C4.93720143,14.5309791 5.26586164,14.8596021 5.26608234,15.2652 C5.26630304,15.6707979 4.93800065,15.9997791 4.53279844,16 L1.70276215,16 C1.25473327,16.0007546 0.825145974,15.821489 0.510326634,15.5024 C0.192463855,15.1839055 0.0144370637,14.7517906 0.0156039991,14.3016 L0.0156039991,1.7008 C0.0156039991,0.764 0.773269854,0 1.70436059,0 L11.8552476,0 Z M12.7943305,6.0976 C13.0277026,6.0736 13.2706654,6.1456 13.4576827,6.2936 L13.4600804,6.2936 L15.5460433,8.1624 C15.9248734,8.504 15.9544445,9.0992 15.6107801,9.488 L14.3623992,10.912 C14.2356994,11.0579345 14.0556882,11.1467307 13.862887,11.1584 C13.5713823,11.1764951 13.2970749,11.0192355 13.1651684,10.7584 L11.5395559,9.3408 L8.38903259,12.9032 L8.39063102,12.9432 L8.41860371,14.284 L9.52152663,14.1568 L9.54630244,14.1296 L12.1022064,11.3008 C12.3724681,11.0033251 12.8319733,10.9800951 13.130802,11.2488 C13.4309788,11.5219081 13.4548869,11.9862494 13.1843497,12.2888 L10.6356386,15.1072 C10.5557167,15.2008 10.4630072,15.2912 10.363904,15.3752 C10.0713897,15.6112 9.81404098,15.636 9.65259863,15.616 L6.9927961,15.928 L6.93205541,13.0192 C6.8209639,12.6408 6.99998907,12.2608 7.20778615,12.0288 L12.1765339,6.4144 C12.3363778,6.2336 12.5545647,6.1208 12.7943305,6.0976 Z M6.93365385,9.1056 C7.34605112,9.1056 7.68172332,9.4344 7.68172332,9.8392 C7.6764834,10.2457236 7.34620749,10.5727595 6.94004761,10.5736 L3.25164956,10.5736 C3.05883009,10.5734223 2.87376164,10.4975994 2.73615298,10.3624 C2.59473012,10.2255851 2.51410586,10.0376624 2.51237151,9.8408 C2.51237151,9.4344 2.84804371,9.1048 3.26044098,9.1048 L6.93365385,9.1056 Z M12.9238041,7.78 L12.5106076,8.2448 L13.7821659,9.3536 L14.1761811,8.904 L12.9238041,7.78 L12.9238041,7.78 Z M8.88454868,6.064 C9.30493815,6.064 9.64780332,6.3936 9.64780332,6.7984 C9.64780332,7.2032 9.30493815,7.5328 8.88454868,7.5328 L3.27482693,7.5328 C2.85443746,7.5328 2.51237151,7.2032 2.51237151,6.7984 C2.51237151,6.3936 2.85443746,6.064 3.27482693,6.064 L8.88454868,6.064 Z M9.85959649,3.084 C10.2855805,3.084 10.6316425,3.4136 10.6316425,3.8184 C10.6316425,4.2232 10.2855805,4.5528 9.86039571,4.5528 L3.28441756,4.5528 C2.85843356,4.5528 2.51317073,4.2232 2.51317073,3.8184 C2.51317073,3.4136 2.85843356,3.084 3.28441756,3.084 L9.85959649,3.084 Z" id="形状"></path>
            </g>
        </g>
    </g>
</svg>