<?xml version="1.0" encoding="UTF-8"?>
<svg width="16px" height="16px" viewBox="0 0 16 16" version="1.1" xmlns="http://www.w3.org/2000/svg" xmlns:xlink="http://www.w3.org/1999/xlink">
    <title>icon-group</title>
    <g id="页面-1" stroke="none" stroke-width="1" fill="none" fill-rule="evenodd">
        <g id="zCloud-icon更新对照表" transform="translate(-1934.000000, -1205.000000)" fill="#000000" fill-rule="nonzero">
            <g id="icon-group" transform="translate(1934.000000, 1205.000000)">
                <rect id="矩形" opacity="0" x="0" y="0" width="16" height="16"></rect>
                <path d="M14.7288,13.928 C14.7210656,13.9357332 14.7108857,13.9405404 14.7,13.9416 L3.6848,13.9152 L3.6848,11.6528 C3.6848,11.5408 3.8,11.3664 3.9168,11.3184 C3.9472,11.3064 6.9248,10.0024 9.2064,10.0024 C11.4832,10.0024 14.4656,11.3064 14.5144,11.3272 C14.6144,11.3672 14.728,11.5408 14.728,11.6536 L14.728,13.928 L14.7288,13.928 Z M7.37599939,6.184 L7.37599939,4.176 C7.37599939,2.99143403 8.33463805,2.0302871 9.5192,2.0272 C10.7035032,2.0298474 11.6620442,2.99089391 11.6616006,4.1752 L11.6616006,6.1832 C11.6624857,7.36781833 10.7038157,8.32935215 9.5192,8.332 C8.3342717,8.32979293 7.37511499,7.36813002 7.37599939,6.1832 L7.37599939,6.184 Z M14.992,10.196 C14.896,10.1536 13.216,9.4216 11.3296,9.0248 C12.2996988,8.40537085 12.8871582,7.3341924 12.888,6.1832 L12.888,4.176 C12.8880042,2.31429484 11.3809009,0.803970461 9.5192,0.8 C7.656874,0.803089171 6.14879744,2.31367143 6.1488,4.176 L6.1488,6.184 C6.1488,7.3168 6.7112,8.32 7.5696,8.932 C5.496,9.2904 3.5296,10.1488 3.4376,10.1896 C2.88,10.42 2.4584,11.0488 2.4584,11.6536 L2.4584,14.0776 L2.4696,14.0776 C2.5518751,14.7023126 3.08429288,15.1693758 3.7144,15.1696 L14.7008,15.1696 C15.2504,15.1696 15.7416,14.8096 15.924,14.2736 L15.956,14.1784 L15.956,11.6528 C15.956,11.0432 15.5344,10.4128 14.9928,10.196 L14.992,10.196 Z M5.0736,8.7264 C5.0928,8.7264 5.1112,8.732 5.1304,8.732 C5.46928192,8.732 5.744,8.45728192 5.744,8.1184 C5.744,7.77951808 5.46928192,7.5048 5.1304,7.5048 C4.40302208,7.50391686 3.81395783,6.91377833 3.8144,6.1864 L3.8144,4.5712 C3.8144,3.8456 4.4048,3.2536 5.1304,3.2536 C5.35475769,3.26170505 5.56563008,3.14663482 5.68021415,2.9535738 C5.79479822,2.76051278 5.79479822,2.52028722 5.68021415,2.3272262 C5.56563008,2.13416518 5.35475769,2.01909495 5.1304,2.0272 C3.72656088,2.02940459 2.5893214,3.16735978 2.588,4.5712 L2.588,6.1872 C2.588,6.8144 2.8248,7.3832 3.2024,7.8272 C2.35321749,8.09833116 1.53359125,8.4545389 0.756,8.8904 C0.3184,9.0976 0.0048,9.5944 0.0048,10.088 L0.0048,11.8496 C0.0048,12.1884819 0.279518078,12.4632 0.6184,12.4632 C0.957281922,12.4632 1.232,12.1884819 1.232,11.8496 L1.232,10.0904 C1.23993192,10.0577583 1.2552598,10.0273763 1.2768,10.0016 C1.30052201,9.99147662 1.32351086,9.97971488 1.3456,9.9664 C1.9288,9.6264 3.7192,8.7448 4.9832,8.7448 C5.0152,8.7448 5.0432,8.7312 5.0736,8.7264" id="形状"></path>
            </g>
        </g>
    </g>
</svg>