<?xml version="1.0" encoding="UTF-8"?>
<svg width="16px" height="16px" viewBox="0 0 16 16" version="1.1" xmlns="http://www.w3.org/2000/svg" xmlns:xlink="http://www.w3.org/1999/xlink">
    <title>icon-error</title>
    <g id="恩墨图标库" stroke="none" stroke-width="1" fill="none" fill-rule="evenodd">
        <g id="zCloud-icon更新对照表" transform="translate(-1934.000000, -455.000000)" fill="#000000" fill-rule="nonzero">
            <g id="icon-error" transform="translate(1934.000000, 455.000000)">
                <rect id="矩形" opacity="0" x="0" y="0" width="16" height="16"></rect>
                <path d="M8,14.6664 C4.324,14.6664 1.3336,11.676 1.3336,8 C1.3336,4.324 4.324,1.3336 8,1.3336 C11.676,1.3336 14.6664,4.324 14.6664,8 C14.6664,11.676 11.676,14.6664 8,14.6664 M8,0 C3.5888,0 0,3.5888 0,8 C0,12.4112 3.5888,16 8,16 C12.4112,16 16,12.4112 16,8 C16,3.5888 12.4112,0 8,0 M10.872,4.8616 C10.7469626,4.73614543 10.5771248,4.66563061 10.4,4.66563061 C10.2228752,4.66563061 10.0530374,4.73614543 9.928,4.8616 L7.8672,6.924 L5.8048,4.8624 C5.63645645,4.69391354 5.39101415,4.62803585 5.16092883,4.68958241 C4.9308435,4.75112897 4.7510706,4.9307494 4.68932882,5.16078242 C4.62758705,5.39081543 4.69325645,5.63631355 4.8616,5.8048 L6.924,7.8664 L4.8624,9.9288 C4.605806,10.1896528 4.60753004,10.6086057 4.86626218,10.8673378 C5.12499433,11.12607 5.54394723,11.127794 5.8048,10.8712 L7.8664,8.8096 L9.9288,10.8712 C10.0534583,10.9967558 10.2230708,11.0673682 10.4,11.0673682 C10.5769292,11.0673682 10.7465417,10.9967558 10.8712,10.8712 C11.1314241,10.6109583 11.1314241,10.1890417 10.8712,9.9288 L8.8096,7.8664 L10.8712,5.8048 C10.9966062,5.67989938 11.0671014,5.51019403 11.0671014,5.3332 C11.0671014,5.15620597 10.9966062,4.98650062 10.8712,4.8616" id="形状"></path>
            </g>
        </g>
    </g>
</svg>