<?xml version="1.0" encoding="UTF-8"?>
<svg width="16px" height="16px" viewBox="0 0 16 16" version="1.1" xmlns="http://www.w3.org/2000/svg" xmlns:xlink="http://www.w3.org/1999/xlink">
    <title>icon-decline</title>
    <g id="页面-1" stroke="none" stroke-width="1" fill="none" fill-rule="evenodd">
        <g id="zCloud-icon更新对照表" transform="translate(-1878.000000, -1855.000000)">
            <g id="icon-decline" transform="translate(1878.000000, 1855.000000)">
                <rect id="icon-decline-fill" x="0" y="0" width="16" height="16"></rect>
                <path d="M10.3428571,15.5 C10.3428571,15.8 10.1428571,16 9.84285714,16 L6.04285714,16 C5.74285714,16 5.54285714,15.8 5.54285714,15.5 L5.54285714,8 L1.64285714,8 C1.44285714,8 1.24285714,7.9 1.14285714,7.7 C1.14285714,7.5 1.14285714,7.3 1.24285714,7.2 L7.54285714,0.2 C7.74285714,0.1 7.84285714,0 7.94285714,0 C8.14285714,0 8.24285714,0.1 8.34285714,0.2 L14.6428571,7.2 C14.7428571,7.3 14.8428571,7.6 14.7428571,7.7 C14.6428571,7.9 14.5428571,8 14.3428571,8 L10.3428571,8 L10.3428571,15.5 Z" id="icon-decline-fill" fill="#000000" fill-rule="nonzero" transform="translate(7.963568, 8.000000) scale(1, -1) translate(-7.963568, -8.000000) "></path>
            </g>
        </g>
    </g>
</svg>