<?xml version="1.0" encoding="UTF-8"?>
<svg width="16px" height="16px" viewBox="0 0 16 16" version="1.1" xmlns="http://www.w3.org/2000/svg" xmlns:xlink="http://www.w3.org/1999/xlink">
    <title>icon-narrow</title>
    <g id="页面-1" stroke="none" stroke-width="1" fill="none" fill-rule="evenodd">
        <g id="zCloud-icon更新对照表" transform="translate(-2612.000000, -1605.000000)" fill="#000000">
            <g id="icon-narrow" transform="translate(2612.000000, 1605.000000)">
                <rect opacity="0" x="0" y="0" width="16" height="16"></rect>
                <path d="M11.5942029,15.942029 L11.5942029,11.5942029 L15.942029,11.5942029 L15.942029,13.0434783 L13.0434783,13.0434783 L13.0434783,15.942029 L11.5942029,15.942029 Z M1.02463768,15.942029 L0,14.9173913 L3.44782609,11.4695652 L0.123913043,11.4695652 L0.123913043,10.0202899 L5.92101449,10.0202899 L5.92101449,15.8173913 L4.47173913,15.8173913 L4.47173913,12.4949275 L1.02463768,15.942029 L1.02463768,15.942029 Z M10.0202899,5.92101449 L10.0202899,0.123913043 L11.4695652,0.123913043 L11.4695652,3.44782609 L14.9173913,0 L15.942029,1.02463768 L12.4949275,4.47173913 L15.8173913,4.47173913 L15.8173913,5.92101449 L10.0202899,5.92101449 Z M0,4.34782609 L0,2.89855072 L2.89855072,2.89855072 L2.89855072,0 L4.34782609,0 L4.34782609,4.34782609 L0,4.34782609 Z" fill-rule="nonzero"></path>
            </g>
        </g>
    </g>
</svg>