<?xml version="1.0" encoding="UTF-8"?>
<svg width="16px" height="16px" viewBox="0 0 16 16" version="1.1" xmlns="http://www.w3.org/2000/svg" xmlns:xlink="http://www.w3.org/1999/xlink">
    <title>icon-caveat</title>
    <g id="恩墨图标库" stroke="none" stroke-width="1" fill="none" fill-rule="evenodd">
        <g id="zCloud-icon更新对照表" transform="translate(-1934.000000, -605.000000)" fill="#000000" fill-rule="nonzero">
            <g id="icon-caveat" transform="translate(1934.000000, 605.000000)">
                <rect id="矩形" opacity="0" x="0" y="0" width="16" height="16"></rect>
                <path d="M7.9568,5.3984 C7.60068679,5.3984 7.312,5.68708679 7.312,6.0432 L7.312,9.2688 C7.312,9.62491321 7.60068679,9.9136 7.9568,9.9136 C8.31291321,9.9136 8.6016,9.62491321 8.6016,9.2688 L8.6016,6.0432 C8.6016,5.68708679 8.31291321,5.3984 7.9568,5.3984 M7.9568,11.2048 C7.60046588,11.2048 7.3116,11.4936659 7.3116,11.85 C7.3116,12.2063341 7.60046588,12.4952 7.9568,12.4952 C8.31313412,12.4952 8.602,12.2063341 8.602,11.85 C8.602,11.4936659 8.31313412,11.2048 7.9568,11.2048 M11.828,13.6152 L1.5136,13.6152 L4.0856,9.1416 L4.7544,7.9784 L7.9568,2.4104 L11.1584,7.9784 L11.828,9.1416 L14.3992,13.6152 L11.828,13.6152 Z M15.7496,13.3736 L8.8416,1.3584 C8.6368,1.004 8.3152,0.8 7.9568,0.8 C7.5984,0.8 7.2768,1.004 7.0728,1.3584 L0.1632,13.3736 C-0.0392,13.728 -0.0544,14.1096 0.1248,14.4184 C0.304,14.728 0.6408,14.9048 1.048,14.9048 L14.8656,14.9048 C15.272,14.9048 15.6096,14.728 15.788,14.4184 C15.968,14.1088 15.9536,13.728 15.7496,13.3736 Z" id="形状"></path>
            </g>
        </g>
    </g>
</svg>