<?xml version="1.0" encoding="UTF-8"?>
<svg width="16px" height="16px" viewBox="0 0 16 16" version="1.1" xmlns="http://www.w3.org/2000/svg" xmlns:xlink="http://www.w3.org/1999/xlink">
    <title>icon-success</title>
    <g id="恩墨图标库" stroke="none" stroke-width="1" fill="none" fill-rule="evenodd">
        <g id="zCloud-icon更新对照表" transform="translate(-1934.000000, -405.000000)" fill="#000000" fill-rule="nonzero">
            <g id="icon-success" transform="translate(1934.000000, 405.000000)">
                <rect id="矩形" opacity="0" x="0" y="0" width="16" height="16"></rect>
                <path d="M8,14.6664 C4.324,14.6664 1.3336,11.676 1.3336,8 C1.3336,4.324 4.324,1.3336 8,1.3336 C11.676,1.3336 14.6664,4.324 14.6664,8 C14.6664,11.676 11.676,14.6664 8,14.6664 M8,0 C3.5888,0 0,3.5888 0,8 C0,12.4112 3.5888,16 8,16 C12.4112,16 16,12.4112 16,8 C16,3.5888 12.4112,0 8,0 M10.2304,6.272 L7.0696,9.728 L5.7752,8.2784 C5.52998557,8.00380403 5.10859598,7.97998558 4.83400001,8.22520001 C4.55940403,8.47041443 4.53558558,8.89180402 4.7808,9.1664 L6.5656,11.1664 C6.69110691,11.3073354 6.87048477,11.3884479 7.0592,11.3896 L7.0632,11.3896 C7.25030623,11.389337 7.42874669,11.3107071 7.5552,11.1728 L11.2144,7.1728 C11.3751695,6.99702533 11.429952,6.74883332 11.3581114,6.5217155 C11.2862709,6.29459767 11.0987215,6.12305864 10.8661114,6.07171549 C10.6335013,6.02037234 10.3911695,6.09702533 10.2304,6.2728" id="形状"></path>
            </g>
        </g>
    </g>
</svg>