<?xml version="1.0" encoding="UTF-8"?>
<svg width="16px" height="16px" viewBox="0 0 16 16" version="1.1" xmlns="http://www.w3.org/2000/svg" xmlns:xlink="http://www.w3.org/1999/xlink">
    <title>icon-close</title>
    <g id="页面-1" stroke="none" stroke-width="1" fill="none" fill-rule="evenodd">
        <g id="zCloud-icon更新对照表" transform="translate(-2612.000000, -1055.000000)">
            <g id="icon-close" transform="translate(2612.000000, 1055.000000)">
                <path d="M7.96879577,6.33004073 L1.97822094,0.339465906 C1.52679407,-0.111960965 0.794886496,-0.111960965 0.343459625,0.339465906 C-0.107967246,0.790892778 -0.107967246,1.52280035 0.343459625,1.97422722 L6.33403445,7.96480205 L0.343459625,13.9553769 C-0.107967246,14.4068037 -0.107967246,15.1387113 0.343459625,15.5901382 C0.794886496,16.0415651 1.52679407,16.0415651 1.97822094,15.5901382 L7.96879577,9.59956336 L13.9593706,15.5901382 C14.2506245,15.8857266 14.6780137,16.0024414 15.0790797,15.8959171 C15.4801456,15.7893928 15.7932942,15.4759891 15.8994917,15.0748365 C16.0056892,14.6736839 15.8886262,14.2463899 15.5928007,13.9553769 L9.60222583,7.96480205 L15.5928007,1.97422722 C16.0382459,1.5221528 16.0357101,0.795426611 15.5871209,0.346471789 C15.1385316,-0.102483033 14.4118078,-0.105610873 13.9593706,0.339465906 L7.96879577,6.33004073 Z" id="路径" fill="#000000" fill-rule="nonzero"></path>
            </g>
        </g>
    </g>
</svg>