<?xml version="1.0" encoding="UTF-8"?>
<svg width="16px" height="16px" viewBox="0 0 16 16" version="1.1" xmlns="http://www.w3.org/2000/svg" xmlns:xlink="http://www.w3.org/1999/xlink">
    <title>icon-modify-password</title>
    <g id="页面-1" stroke="none" stroke-width="1" fill="none" fill-rule="evenodd">
        <g id="zCloud-icon更新对照表" transform="translate(-1934.000000, -1305.000000)" fill="#000000" fill-rule="nonzero">
            <g id="icon-modify-password" transform="translate(1934.000000, 1305.000000)">
                <rect id="矩形" opacity="0" x="0" y="0" width="16" height="16"></rect>
                <path d="M1.3888,14.5816 L1.3888,7.6408 L1.384,7.64 L4.0928,7.64 C4.1856,7.6864 4.2872,7.712 4.3912,7.7136 C4.49443803,7.71191801 4.59593745,7.68674834 4.688,7.64 L13.8896,7.6416 L13.8952,14.584 L1.3896,14.5824 L1.3888,14.5816 Z M13.8944,6.2496 L5.0848,6.2496 L5.0848,4.0936 C5.0856788,2.6021472 6.29335013,1.39268672 7.7848,1.3896 C9.27669217,1.3922454 10.4850794,2.60170607 10.4864,4.0936 C10.4864,4.47710653 10.7972935,4.788 11.1808,4.788 C11.5643065,4.788 11.8752,4.47710653 11.8752,4.0936 C11.8738777,1.83425194 10.0433469,0.00264728702 7.784,0 C5.52621507,0.00440905893 3.69775959,1.83501145 3.696,4.0928 L3.696,6.2504 L1.384,6.2504 C0.618549817,6.25304545 -0.00044550158,6.87454538 -9.514476e-07,7.64 L-9.514476e-07,14.5808 C-0.000886792328,15.3465668 0.618237295,15.9685539 1.384,15.9712 L13.8944,15.9712 C14.6601627,15.9685539 15.2792868,15.3465668 15.2784021,14.5808 L15.2784021,7.6408 C15.2797284,6.87472113 14.6604754,6.25224659 13.8944,6.2496 Z M7.6392,9.028 C7.25569347,9.028 6.9448,9.33889347 6.9448,9.7224 L6.9448,12.5 C6.9448,12.8835065 7.25569347,13.1944 7.6392,13.1944 C8.02270653,13.1944 8.3336,12.8835065 8.3336,12.5 L8.3336,9.7224 C8.3336,9.33889347 8.02270653,9.028 7.6392,9.028" id="形状"></path>
            </g>
        </g>
    </g>
</svg>