<?xml version="1.0" encoding="UTF-8"?>
<svg width="16px" height="16px" viewBox="0 0 16 16" version="1.1" xmlns="http://www.w3.org/2000/svg" xmlns:xlink="http://www.w3.org/1999/xlink">
    <title>icon-loading</title>
    <g id="页面-1" stroke="none" stroke-width="1" fill="none" fill-rule="evenodd">
        <g id="zCloud-icon更新对照表" transform="translate(-2612.000000, -1505.000000)" fill="#000000">
            <g id="icon-loading" transform="translate(2612.000000, 1505.000000)">
                <rect opacity="0" x="0" y="0" width="16" height="16"></rect>
                <path d="M7.97598684,11.3023026 C8.48125,11.3023026 8.90230263,11.7233553 8.90230263,12.2286184 L8.90230263,15.0496711 C8.90230263,15.5549342 8.48125,15.9759868 7.97598684,15.9759868 C7.47072368,15.9759868 7.04967105,15.5549342 7.04967105,15.0496711 L7.04967105,12.2286184 C7.04967105,11.7233553 7.47072368,11.3023026 7.97598684,11.3023026 Z M11.68125,10.3759868 L13.6601974,12.3549342 C14.0391447,12.7338816 14.0391447,13.3233553 13.6601974,13.7023026 C13.28125,14.08125 12.6917763,14.08125 12.3128289,13.7023026 L10.3338816,11.7233553 C9.95493421,11.3444079 9.95493421,10.7549342 10.3338816,10.3759868 C10.7128289,9.99703947 11.3023026,9.99703947 11.68125,10.3759868 Z M5.66019737,10.3338816 C6.03914474,10.7128289 6.03914474,11.3023026 5.66019737,11.68125 L3.68125,13.6601974 C3.30230263,14.0391447 2.71282895,14.0391447 2.33388158,13.6601974 C1.95493421,13.28125 1.95493421,12.6917763 2.33388158,12.3128289 L4.31282895,10.3338816 C4.69177632,9.95493421 5.28125,9.95493421 5.66019737,10.3338816 Z M15.0496711,7.13388158 C15.5549342,7.13388158 15.9759868,7.55493421 15.9759868,8.06019737 C15.9759868,8.56546053 15.5549342,8.98651316 15.0496711,8.98651316 L12.2286184,8.98651316 C11.7233553,8.98651316 11.3023026,8.56546053 11.3023026,8.06019737 C11.3023026,7.55493421 11.7233553,7.13388158 12.2286184,7.13388158 L15.0496711,7.13388158 Z M3.76546053,7.04967105 C4.31282895,7.04967105 4.73388158,7.47072368 4.73388158,7.97598684 C4.73388158,8.48125 4.31282895,8.90230263 3.80756579,8.90230263 L0.944407895,8.90230263 C0.439144737,8.90230263 0.0180921053,8.48125 0.0180921053,7.97598684 C0.0180921053,7.47072368 0.439144737,7.04967105 0.944407895,7.04967105 L3.76546053,7.04967105 Z M13.7023026,2.37598684 C14.08125,2.75493421 14.08125,3.34440789 13.7023026,3.72335526 L11.7233553,5.70230263 C11.3444079,6.08125 10.7549342,6.08125 10.3759868,5.70230263 C9.99703947,5.32335526 9.99703947,4.73388158 10.3759868,4.35493421 L12.3549342,2.37598684 C12.7338816,1.99703947 13.3233553,1.99703947 13.7023026,2.37598684 Z M3.72335526,2.33388158 L5.70230263,4.31282895 C6.08125,4.69177632 6.08125,5.28125 5.70230263,5.66019737 C5.32335526,6.03914474 4.73388158,6.03914474 4.35493421,5.66019737 L2.37598684,3.68125 C1.99703947,3.30230263 1.99703947,2.71282895 2.37598684,2.33388158 C2.75493421,1.95493421 3.34440789,1.95493421 3.72335526,2.33388158 Z M8.06019737,0.0180921053 C8.56546053,0.0180921053 8.98651316,0.439144737 8.98651316,0.944407895 L8.98651316,3.76546053 C8.98651316,4.31282895 8.56546053,4.73388158 8.06019737,4.73388158 C7.55493421,4.73388158 7.13388158,4.31282895 7.13388158,3.80756579 L7.13388158,0.944407895 C7.13388158,0.439144737 7.55493421,0.0180921053 8.06019737,0.0180921053 Z" id="形状结合" fill-rule="nonzero"></path>
            </g>
        </g>
    </g>
</svg>