<?xml version="1.0" encoding="UTF-8"?>
<svg width="16px" height="16px" viewBox="0 0 16 16" version="1.1" xmlns="http://www.w3.org/2000/svg" xmlns:xlink="http://www.w3.org/1999/xlink">
    <title>icon-up</title>
    <g id="页面-1" stroke="none" stroke-width="1" fill="none" fill-rule="evenodd">
        <g id="zCloud-icon更新对照表" transform="translate(-2612.000000, -605.000000)" fill="#000000" fill-rule="nonzero">
            <g id="icon-up" transform="translate(2612.000000, 605.000000)">
                <rect id="矩形" opacity="0" x="0.0156097561" y="0" width="15.9843902" height="16"></rect>
                <path d="M14.6098296,12.0608 C14.7971575,12.2589696 15.0764642,12.341015 15.3410685,12.2755991 C15.6056728,12.2101831 15.8147035,12.00741 15.8883212,11.7447289 C15.9619389,11.4820479 15.8887726,11.200033 15.6967681,11.0064 L8.35753534,3.4304 C8.21309554,3.28107094 8.01370666,3.19770245 7.8060674,3.19978082 C7.59842814,3.20193795 7.40077774,3.28935591 7.25940773,3.4416 L0.218283832,11.0176 C0.0341146405,11.2158109 -0.030423593,11.4973145 0.0489800596,11.7560709 C0.128383712,12.0148273 0.339665947,12.2115254 0.603238791,12.2720709 C0.866811635,12.3326164 1.1426321,12.2478109 1.3268013,12.0496 L7.82445593,5.0576 L14.6098296,12.0608 L14.6098296,12.0608 Z" id="路径"></path>
            </g>
        </g>
    </g>
</svg>