<?xml version="1.0" encoding="UTF-8"?>
<svg width="16px" height="16px" viewBox="0 0 16 16" version="1.1" xmlns="http://www.w3.org/2000/svg" xmlns:xlink="http://www.w3.org/1999/xlink">
    <title>icon-opengauss</title>
    <g id="恩墨图标库" stroke="none" stroke-width="1" fill="none" fill-rule="evenodd">
        <g id="zCloud-icon更新对照表" transform="translate(-397.000000, -605.000000)" fill="#000000">
            <g id="icon-opengauss" transform="translate(397.000000, 605.000000)">
                <rect opacity="0" x="0" y="0" width="16" height="16"></rect>
                <path d="M0.506009553,10.0297284 C0.631008266,10.3197552 0.780274127,10.3772965 0.780274127,10.3772965 C0.780274127,10.3772965 5.22253605,13.0167719 6.59019595,13.8265266 C7.95785585,14.6362813 9.27743933,13.8882443 9.27743933,13.8882443 L9.27743933,13.8882443 L9.32514361,13.8600213 C9.87155688,13.5367433 14.9329968,10.5420317 15.1963344,10.3796167 C15.4747198,10.2079209 15.491661,10.0320486 15.491661,10.0320486 L15.491661,10.0320486 L15.4919996,10.0952184 C15.4925206,10.1961584 15.4935299,10.4069871 15.4942137,10.6462737 L15.4944742,11.3680761 C15.4940053,11.496939 15.4931262,11.6067315 15.491661,11.6798646 C15.4843351,12.0455304 15.2810405,12.1439074 15.2810405,12.1439074 C15.2810405,12.1439074 10.4875917,15.0019471 9.32551576,15.6929068 C8.16343982,16.3838665 6.67993862,15.6929068 6.67993862,15.6929068 L6.67993862,15.6929068 L6.63180008,15.6641993 C6.39550992,15.5232891 5.32266015,14.8835221 4.15617774,14.188247 L3.68635205,13.9082275 C2.27245982,13.065593 0.866378576,12.22815 0.751886141,12.1620051 C0.51654058,12.0260406 0.506009553,11.8622335 0.506009553,11.8622335 L0.506009553,10.0297284 Z M15.4912031,7.18328987 L15.4919064,7.31938435 C15.4925902,7.46085553 15.4935995,7.69585712 15.4941205,7.94318162 L15.4941205,8.51884218 C15.4935474,8.64788321 15.4926683,8.75797272 15.4912031,8.83156991 C15.4838772,9.19955585 15.2805826,9.29793292 15.2805826,9.29793292 C15.2805826,9.29793292 10.4875917,12.1559725 9.32551576,12.8469323 C8.16343982,13.537892 6.67993862,12.8469323 6.67993862,12.8469323 L6.67993862,12.8469323 L6.63180008,12.8182248 C6.39550992,12.6773146 5.32266015,12.0375475 4.15617774,11.3422725 L3.68635205,11.062253 C2.27245982,10.2196185 0.866378576,9.38217551 0.751886141,9.31603059 C0.51654058,9.18006605 0.506009553,9.01625894 0.506009553,9.01625894 L0.506009553,7.18328987 C0.631008266,7.47378067 0.780274127,7.53132198 0.780274127,7.53132198 C0.780274127,7.53132198 2.07716206,8.3022635 3.48519075,9.13836689 L3.90974783,9.39044698 C4.97354735,10.0220055 6.03316526,10.6505174 6.58836447,10.9782319 C7.95785585,11.7865945 9.27698146,11.0394856 9.27698146,11.0394856 C9.27698146,11.0394856 14.9174911,7.70301781 15.1958765,7.53132198 C15.4742619,7.35962614 15.4912031,7.18328987 15.4912031,7.18328987 L15.4912031,7.18328987 Z M8.01096886,0.00269154854 L7.99860635,1.81245848 C7.45999962,1.81617961 6.93205212,1.96495981 6.46886021,2.24355424 C5.67903318,2.71223747 1.71707766,5.07699959 1.71707766,5.07699959 L6.68772242,8.07007567 C6.68772242,8.07007567 8.03660962,8.84595524 9.34932503,8.07007567 C9.7595486,7.82761331 10.373936,7.46125514 11.024824,7.07211401 L11.8126793,6.60068006 C12.9885514,5.89653906 14.0653937,5.24962352 14.0653937,5.24962352 L10.7467465,3.40180508 L8.34063579,4.8059986 C8.34063579,4.8059986 7.404748,5.23709436 7.25868723,6.17306869 C7.25868723,6.17306869 7.01601574,6.09928589 7.01601574,5.79162551 L7.01601574,3.99299561 C7.08609178,3.81120182 7.21532129,3.65911115 7.38231233,3.56189984 C7.64970885,3.41665445 10.7705558,1.56651579 10.7705558,1.56651579 L15.4948661,4.20877551 L15.4948661,5.90253174 C15.4948661,5.90253174 15.5713305,6.17306869 15.134064,6.43200458 C14.927577,6.55427986 13.6450333,7.31905426 12.3487541,8.09225643 L11.8924033,8.36446878 C10.6075955,9.13087787 9.43403112,9.8311181 9.43403112,9.8311181 C9.43403112,9.8311181 8.01234247,10.6663951 6.60255846,9.8311181 C5.19277445,8.99584106 0.74501808,6.34569262 0.74501808,6.34569262 C0.74501808,6.34569262 0.522035029,6.28397492 0.506009553,5.95172028 C0.49888712,5.80635887 0.498122015,5.4534235 0.499354442,5.10236447 L0.500833356,4.80680138 C0.502942177,4.47391253 0.506009553,4.20274295 0.506009553,4.20274295 C0.550529582,4.00922738 0.678441809,3.84620227 0.854449187,3.75865399 C1.15801749,3.59902327 6.62682561,0.324737253 6.62682561,0.324737253 C6.62682561,0.324737253 7.35300861,-0.0344318757 8.01096886,0.00269154854 Z" fill-rule="nonzero"></path>
            </g>
        </g>
    </g>
</svg>