<?xml version="1.0" encoding="UTF-8"?>
<svg width="16px" height="16px" viewBox="0 0 16 16" version="1.1" xmlns="http://www.w3.org/2000/svg" xmlns:xlink="http://www.w3.org/1999/xlink">
    <title>icon-break</title>
    <g id="页面-1" stroke="none" stroke-width="1" fill="none" fill-rule="evenodd">
        <g id="zCloud-icon更新对照表" transform="translate(-2612.000000, -1355.000000)">
            <g id="icon-break" transform="translate(2612.000000, 1355.000000)">
                <path d="M13.6976292,13.5775102 L13.5775258,13.6976181 C13.3841619,13.8912177 13.1217669,14 12.8481474,14 C12.5745279,14 12.312133,13.8912177 12.1187691,13.6976181 L8.00022111,9.57891832 L3.87917095,13.6976181 C3.68580705,13.8912177 3.42341211,14 3.14979261,14 C2.87617311,14 2.61377817,13.8912177 2.42041427,13.6976181 L2.3003108,13.5775102 C1.8998964,13.1736754 1.8998964,12.5225345 2.3003108,12.1186998 L6.42136095,8 L2.3003108,3.88130022 C1.89989642,3.47746548 1.89989642,2.82632455 2.3003108,2.42248981 L2.42041427,2.30238191 C2.61377817,2.10878234 2.87617311,2 3.14979261,2 C3.42341211,2 3.68580705,2.10878234 3.87917095,2.30238191 L9.57657908,8 L13.6976292,12.1186998 C13.8912217,12.3120708 14,12.5744754 14,12.848105 C14,13.1217346 13.8912217,13.3841392 13.6976292,13.5775102 Z M12.1187691,2.30238191 C12.312133,2.10878235 12.5745279,2.00000001 12.8481474,2.00000001 C13.1217669,2.00000001 13.3841619,2.10878235 13.5775258,2.30238191 L13.6976292,2.42248981 C13.8912217,2.61586084 14,2.87826544 14,3.15189501 C14,3.42552459 13.8912217,3.68792919 13.6976292,3.88130022 L9.57657908,8.00000001 L8.00022111,6.42108168 L12.1187691,2.30238191 Z" fill="#000000" fill-rule="nonzero"></path>
            </g>
        </g>
    </g>
</svg>