<?xml version="1.0" encoding="UTF-8"?>
<svg width="16px" height="16px" viewBox="0 0 16 16" version="1.1" xmlns="http://www.w3.org/2000/svg" xmlns:xlink="http://www.w3.org/1999/xlink">
    <title>icon-view</title>
    <g id="页面-1" stroke="none" stroke-width="1" fill="none" fill-rule="evenodd">
        <g id="zCloud-icon更新对照表" transform="translate(-1934.000000, -1505.000000)">
            <g id="icon-view" transform="translate(1934.000000, 1505.000000)">
                <rect x="0" y="0" width="16" height="16"></rect>
                <path d="M7.98831658,2.00942211 C13.4653015,2.00942211 15.6819849,7.0369598 15.7728392,7.25082915 C16.0196734,7.7051005 16.0365578,8.485 15.7873116,9.01163317 C15.7873116,9.01886935 13.7209799,14.2329397 7.98831658,14.2329397 C2.25484925,14.2329397 0.194145729,9.02932161 0.174045226,8.9770603 C-0.0607286432,8.5131407 -0.0534924623,7.74932161 0.215854271,7.22027638 C0.289020101,7.04821608 2.51133166,2.00942211 7.98831658,2.00942211 Z M7.98831658,3.36741206 C3.39575377,3.36741206 1.46449749,7.75334171 1.44520101,7.79595477 C1.35354271,7.98007538 1.34791457,8.29525126 1.41625628,8.43113065 C1.51032663,8.66751256 3.20439698,12.8749497 7.98831658,12.8749497 C12.7979648,12.8749497 14.523392,8.52278894 14.5394724,8.47937186 C14.6263065,8.2928392 14.6206784,7.97123116 14.5507286,7.84017588 C14.4470101,7.60701005 12.5567588,3.36741206 7.98831658,3.36741206 Z M7.98831658,4.72540201 C9.48801974,4.72761795 10.7029682,5.94328574 10.7042965,7.44298995 L10.7042965,7.44298995 L10.7042965,8.9690201 C10.7029682,10.4687243 9.48801974,11.6843921 7.98831658,11.686608 C6.48829941,11.684835 5.27286181,10.4690377 5.27153266,8.9690201 L5.27153266,8.9690201 L5.27153266,7.44298995 C5.27286094,5.94328574 6.48780941,4.72761795 7.98751256,4.72540201 Z M7.98831658,6.08419598 C7.23896985,6.08419598 6.62952261,6.69364322 6.62952261,7.44298995 L6.62952261,7.44298995 L6.62952261,8.9690201 C6.62952261,9.71917085 7.23896985,10.3278141 7.98751256,10.3278141 C8.73795375,10.3278141 9.34630653,9.71946129 9.34630653,8.9690201 L9.34630653,8.9690201 L9.34630653,7.44298995 C9.34630653,6.69364322 8.7368593,6.08419598 7.98831658,6.08419598 Z" id="形状结合" fill="#000000" fill-rule="nonzero"></path>
            </g>
        </g>
    </g>
</svg>