<?xml version="1.0" encoding="UTF-8"?>
<svg width="16px" height="16px" viewBox="0 0 16 16" version="1.1" xmlns="http://www.w3.org/2000/svg" xmlns:xlink="http://www.w3.org/1999/xlink">
    <title>icon-mysql</title>
    <g id="恩墨图标库" stroke="none" stroke-width="1" fill="none" fill-rule="evenodd">
        <g id="zCloud-icon更新对照表" transform="translate(-397.000000, -505.000000)" fill="#000000" fill-rule="nonzero">
            <g id="icon-mysql" transform="translate(397.000000, 505.000000)">
                <rect id="矩形" opacity="0" x="0" y="0" width="15.9843902" height="15.9843902"></rect>
                <path d="M1.05882768,0.00955022049 C1.78288617,-0.065572839 3.05358483,0.321231032 4.17163982,1.33539241 C5.03955099,1.00772797 5.91385559,1.03410096 6.77377495,1.41531056 C8.77332719,2.30080372 10.748904,5.20742703 12.3400745,9.60052802 C14.1022698,10.520386 15.8908381,11.9788923 15.9731538,12.5678891 L15.9811456,12.6358196 C15.9931333,12.7788731 15.982744,12.9586889 15.8588708,13.100144 C15.7413911,13.2344065 15.5519851,13.3007386 15.2810626,13.3007386 C14.9374145,13.3007386 14.2716962,13.2695705 13.8776998,13.2503902 C14.0287451,13.4989356 14.3092578,13.8993256 14.7719839,14.3388754 C15.0245253,14.5802283 15.1252222,14.8807205 15.0500991,15.1652292 C14.9804088,15.4192392 14.7774501,15.6148399 14.5210409,15.675107 C14.1901797,15.7574227 13.825753,15.6143692 13.5276582,15.2843072 L13.3694203,15.1124832 C12.9050958,14.6066012 12.4655459,14.130289 11.8126146,12.9706766 C11.624807,12.6390163 11.5872454,12.3712905 11.7023276,12.1730934 C11.8110163,11.9868841 12.0411806,11.8877856 12.3656483,11.8877856 C12.531878,11.8877856 13.0761207,11.9013717 13.5052812,11.9117611 C12.7596448,11.3866988 12.056365,10.9791162 11.4897453,10.7473535 C11.3172329,10.6641616 11.1855605,10.5149137 11.1245193,10.3333775 C11.1029414,10.269443 8.79730265,3.76410515 5.92983924,2.66443133 C5.31766617,2.43027114 4.74545218,2.47262776 4.18123,2.78910366 C3.90071728,2.92816125 3.60422092,2.79469793 3.45077807,2.59490254 C2.94329778,1.95555731 2.22003848,1.61830269 1.72134918,1.48244182 L1.7812878,1.55436816 C2.11694406,1.96035239 2.6260227,2.57332463 2.80104347,3.20707561 C2.9121297,3.61146146 2.99124867,3.9782858 3.06717092,4.33472078 C3.26696631,5.26816484 3.42360588,6.00501022 4.04856587,6.74904824 C4.19401691,6.93286 4.2419678,7.17341365 4.17883245,7.3963853 C4.17084063,7.42115993 4.14846355,7.4739059 4.11090203,7.5522257 C3.3277041,9.20173643 3.33090084,10.7777224 4.11889383,12.2434214 C4.19321772,11.8741995 4.27393505,11.2612273 4.31709086,10.2534593 C4.3282794,9.95776217 4.51209116,9.62050755 4.84055479,9.5445853 C5.1762376,9.46838845 5.51612426,9.65409266 5.63334288,9.97774171 C6.82412338,13.848178 7.67045665,14.4060067 8.03088752,14.644962 C8.08922777,14.6825235 8.13717868,14.7144908 8.17394103,14.7472572 C8.50959728,15.0397577 8.49361364,15.485701 8.28422809,15.7478325 C8.16580675,15.8984655 7.98433495,15.9858081 7.79273143,15.9844072 C7.63289511,15.9844072 7.447485,15.9284475 7.24609125,15.7813981 C6.16479861,14.9982002 5.6461298,13.8953297 5.39199006,13.1632794 C5.23455129,13.751477 4.95403857,13.9808421 4.71508327,14.063957 C4.3458614,14.191826 3.912705,14.0223995 3.55467166,13.6124194 C1.35852076,11.0965959 2.48936265,7.94142712 2.73710893,7.33884422 C2.06579643,6.47093306 1.90356257,5.55027592 1.75891072,4.73670909 C1.64622612,4.10215894 1.54952515,3.55392039 1.23065171,3.18629688 C-0.00088705561,1.76375372 -0.253428433,1.06766659 0.232473959,0.428321358 C0.418683255,0.185370162 0.695999251,0.0447142088 1.05962686,0.0087510322 L1.05882768,0.00955022049 Z M4.48731653,3.79447405 L4.70069801,3.79926914 C5.23295291,3.81205604 5.60377316,3.98547843 5.80356855,4.31554042 C6.0569091,4.73351237 5.9442245,5.30252964 5.80676527,5.58224317 L5.69248231,5.81400582 L5.51826073,5.62220226 C5.1554323,5.22181229 4.58721422,4.39146267 4.52248052,4.00465879 L4.48811572,3.79527323 L4.48731653,3.79447405 Z" id="形状"></path>
            </g>
        </g>
    </g>
</svg>