<?xml version="1.0" encoding="UTF-8"?>
<svg width="16px" height="16px" viewBox="0 0 16 16" version="1.1" xmlns="http://www.w3.org/2000/svg" xmlns:xlink="http://www.w3.org/1999/xlink">
    <title>icon-redis</title>
    <g id="恩墨图标库" stroke="none" stroke-width="1" fill="none" fill-rule="evenodd">
        <g id="zCloud-icon更新对照表" transform="translate(-397.000000, -655.000000)" fill="#000000" fill-rule="nonzero">
            <g id="icon-redis" transform="translate(397.000000, 655.000000)">
                <rect id="矩形" opacity="0" x="0" y="0" width="16" height="16"></rect>
                <path d="M7.264,0.168 C7.736,-0.056 8.272,-0.056 8.744,0.168 L15.328,3.36 C15.736,3.56 16,3.984 16,4.432 L16,11.56 C16,12.016 15.736,12.432 15.328,12.632 L8.736,15.824 C8.27058671,16.0466297 7.72941329,16.0466297 7.264,15.824 L0.96,12.768 L0.68,12.632 C0.272,12.432 0.008,12.008 0.008,11.552 L0.032,4.44 C0.032,3.992 0.296,3.576 0.704,3.376 L7.264,0.168 Z M14.608,9.776 L8.752,12.616 C8.28,12.84 7.744,12.84 7.272,12.616 L1.408,9.776 L1.4,11.44 L7.432,14.368 C7.792,14.544 8.208,14.544 8.568,14.368 L14.608,11.44 L14.608,9.776 L14.608,9.776 Z M14.608,6.616 L8.736,9.464 C8.264,9.688 7.728,9.688 7.256,9.464 L1.408,6.624 L1.408,8.232 L7.432,11.152 C7.792,11.328 8.208,11.328 8.568,11.152 L14.608,8.224 L14.608,6.616 Z M8.584,1.632 C8.216,1.456 7.8,1.456 7.44,1.632 L1.64,4.464 C1.50220393,4.52898237 1.41428377,4.66765019 1.41428377,4.82 C1.41428377,4.97234981 1.50220393,5.11101763 1.64,5.176 L7.44,7.992 C7.8,8.168 8.216,8.168 8.576,7.992 L14.384,5.176 C14.464,5.136 14.528,5.072 14.568,4.992 C14.6105236,4.89377213 14.6216987,4.78481478 14.6,4.68 C14.5626249,4.57907033 14.4882657,4.49613123 14.392,4.448 L8.584,1.632 Z M9.3024,5.7736 C9.31361078,5.77316257 9.32400025,5.77945922 9.3288,5.7896 C9.33398732,5.80013922 9.33427986,5.81242584 9.3296,5.8232 L8.6232,7.4232 C8.6176,7.4344 8.608,7.4416 8.5968,7.4416 C8.5928,7.4416 8.5904,7.4416 8.5864,7.44 L6.0848,6.2272 C6.0728,6.2208 6.0656,6.2056 6.0672,6.1896 C6.0696,6.1736 6.08,6.1624 6.0936,6.16 L9.3024,5.7736 L9.3024,5.7736 Z M11.496,3.748 L13.4504,4.6832 C13.4608,4.688 13.468,4.7008 13.468,4.7144 C13.468,4.7304 13.4616,4.7432 13.4504,4.748 L11.7248,5.5904 C11.7208,5.5904 11.7176,5.5928 11.7144,5.5928 C11.7096,5.5928 11.7064,5.5912 11.7032,5.5904 L9.7392,4.6304 C9.7286801,4.62286152 9.72266522,4.61053101 9.72316711,4.5976 C9.72316711,4.5816 9.7296,4.5696 9.7408,4.5648 L11.4736,3.748 C11.4805306,3.74399863 11.4890694,3.74399863 11.496,3.748 L11.496,3.748 Z M4.708,3.9504 C5.1432,3.9504 5.5584,4.0328 5.876,4.1824 C6.2064,4.3392 6.388,4.5488 6.38880302,4.7728 C6.3896,4.98 6.2312,5.1712 5.944,5.3088 C5.6592,5.4472 5.2752,5.5232 4.8616,5.5232 C4.4184,5.5232 3.9976,5.4368 3.6776,5.2824 C3.356,5.1256 3.1792,4.9184 3.18157588,4.6984 C3.18157588,4.4872 3.3464,4.2944 3.6456,4.1544 C3.9272,4.0232 4.304,3.9504 4.708,3.9504 L4.708,3.9504 Z M7.028,2.184 L8.1432,2.6952 L9.4592,2.3944 C9.472,2.3912 9.4848,2.3984 9.4912,2.4128 C9.4968,2.4272 9.4944,2.4448 9.4832,2.4552 L8.8976,3.0424 L9.9984,3.5464 C10.012,3.5536 10.0192,3.5704 10.016,3.5864 C10.0128,3.604 10,3.6144 9.9856,3.6128 L8.4608,3.48 L7.8272,4.1152 C7.8216,4.1208 7.8144,4.1232 7.808,4.1232 L7.8016,4.1224 C7.79269482,4.12004829 7.78551574,4.11346747 7.7824,4.1048 L7.4824,3.3952 L5.9656,3.2632 C5.9496,3.2616 5.9392,3.2472 5.9384,3.2304 C5.9376,3.2128 5.9464,3.1976 5.9616,3.1952 L7.2712,2.8952 L6.9928,2.2312 C6.98713399,2.21861153 6.98866118,2.20395047 6.9968,2.1928 C7.0048,2.1824 7.0176,2.1792 7.028,2.184 L7.028,2.184 Z" id="形状"></path>
            </g>
        </g>
    </g>
</svg>