<?xml version="1.0" encoding="UTF-8"?>
<svg width="16px" height="16px" viewBox="0 0 16 16" version="1.1" xmlns="http://www.w3.org/2000/svg" xmlns:xlink="http://www.w3.org/1999/xlink">
    <title>icon-circulation</title>
    <g id="页面-1" stroke="none" stroke-width="1" fill="none" fill-rule="evenodd">
        <g id="zCloud-icon更新对照表" transform="translate(-1934.000000, -2355.000000)" fill="#000000">
            <g id="icon-circulation" transform="translate(1934.000000, 2355.000000)">
                <rect opacity="0" x="0" y="0" width="16" height="16"></rect>
                <path d="M10.9237772,2.32412622 L7.48663376,2.32412622 L7.48663376,1.23711468 C7.48663376,1.14704801 7.45278543,1.07768632 7.39021732,1.03834686 C7.29892942,0.98140816 7.16866466,0.988654904 7.03737419,1.05491085 L3.76536957,2.91214769 C3.70998141,2.95045191 3.66690172,3.04465957 3.66690172,3.15232548 C3.66690172,3.25999138 3.70998141,3.35419905 3.78280659,3.40285576 L7.04968267,5.25698686 C7.14097058,5.31806655 7.26302968,5.3170313 7.35842041,5.2642336 C7.40662863,5.23835237 7.48663376,5.17830793 7.48663376,5.06753628 L7.48663376,3.87699983 L10.9237772,3.87699983 C12.8182576,3.87699983 14.3598949,5.47956541 14.3598949,7.44860916 C14.3598949,8.06354711 14.2224502,8.93729733 13.5659978,9.59882149 C13.4593243,9.74789736 13.4029104,10.0067096 13.4459901,10.2313587 C13.4706071,10.3576591 13.5383037,10.5326162 13.722931,10.6423526 C13.9762805,10.8131687 14.1147509,10.8131687 14.3086095,10.8131687 C14.5834989,10.8131687 14.7824861,10.71482 14.9158279,10.5139817 C15.6286941,9.588469 16,8.49731647 16,7.34508425 C15.9015321,4.62755542 13.5762549,2.32412622 10.9237772,2.32412622 L10.9237772,2.32412622 Z M8.93493173,9.63194946 C8.86005513,9.58122226 8.74107315,9.58122226 8.64055388,9.63401996 C8.59337137,9.65990119 8.51234053,9.71994564 8.51234053,9.82968204 L8.51234053,10.9166936 L5.07724854,10.9166936 C3.18174242,10.9166936 1.64010513,9.314128 1.64010513,7.34508425 C1.64010513,6.73946354 1.77344702,5.88538305 2.40117956,5.22799988 C2.52529008,4.95055313 2.56016411,4.48676154 2.17552407,4.25486575 C2.02166806,4.1399531 1.8319123,4.07990865 1.6503622,4.07990865 C1.59907686,4.07990865 1.54779153,4.08404965 1.49958331,4.09336689 C1.37342137,4.11821287 1.20110263,4.18757456 1.0903263,4.37288414 C0.371305853,5.31081981 0,6.40093709 0,7.55213406 C0,10.3297073 2.27706904,12.676617 4.97365216,12.676617 L8.41079556,12.676617 L8.41079556,13.7636285 C8.41079556,13.8547305 8.44464389,13.9230569 8.50823771,13.9623964 C8.5974742,14.0172646 8.72773896,14.0120883 8.86005513,13.9468676 L12.1320597,12.0896308 C12.1874479,12.0502913 12.2305276,11.9571189 12.2305276,11.8484177 C12.2305276,11.7407518 12.1874479,11.6475794 12.1146227,11.5978875 L8.93493173,9.63194946 Z"></path>
            </g>
        </g>
    </g>
</svg>