<?xml version="1.0" encoding="UTF-8"?>
<svg width="16px" height="16px" viewBox="0 0 16 16" version="1.1" xmlns="http://www.w3.org/2000/svg" xmlns:xlink="http://www.w3.org/1999/xlink">
    <title>icon-console</title>
    <g id="恩墨图标库" stroke="none" stroke-width="1" fill="none" fill-rule="evenodd">
        <g id="zCloud-icon更新对照表" transform="translate(-397.000000, -355.000000)" fill="#000000" fill-rule="nonzero">
            <g id="icon-console" transform="translate(397.000000, 355.000000)">
                <rect id="矩形" opacity="0" x="7.10542736e-15" y="7.10542736e-15" width="15.9843902" height="15.9843902"></rect>
                <path d="M7.99219512,0.000799219512 C12.3990915,0.000799219512 15.9843902,3.58609795 15.9843902,7.99299434 C15.9843902,12.3998907 12.3990915,15.9851895 7.99219512,15.9851895 C3.58529873,15.9851895 7.10542736e-15,12.3998907 7.10542736e-15,7.99299434 C7.10542736e-15,3.58609795 3.58529873,0.000799219512 7.99219512,0.000799219512 Z M8.70909502,1.47775688 L8.70909502,3.67161444 L7.27529522,3.67161444 L7.27529522,1.47775688 C4.21772782,1.80287637 1.80207715,4.21852704 1.47695766,7.27609444 L3.67161444,7.27609444 L3.67161444,8.70989424 L1.47695766,8.70989424 C1.80184686,11.7674285 4.21771619,14.1829649 7.27529522,14.5074326 L7.27529522,12.313575 L8.70909502,12.313575 L8.70909502,14.5074326 C11.766674,14.1829649 14.1825434,11.7674285 14.5074326,8.70989424 L12.3127758,8.70989424 L12.3127758,7.27609444 L14.5074326,7.27609444 C14.1823131,4.21852704 11.7666624,1.80287637 8.70909502,1.47775688 Z M4.24305639,10.780672 L5.26206127,11.7988777 L4.24305639,12.8170833 L3.22325229,11.7988777 L4.24305639,10.7798728 L4.24305639,10.780672 Z M11.7421331,10.780672 L12.7619372,11.7988777 L11.7421331,12.8170833 L10.7231282,11.7988777 L11.7421331,10.7798728 L11.7421331,10.780672 Z M11.0923676,4.87923512 L9.17983532,8.4461518 C9.01279844,8.93047883 8.53406595,9.2693479 7.99778966,9.2693479 C7.29263944,9.26848342 6.72023176,8.69893064 6.71584156,7.99379356 C6.72162714,7.4548345 7.05871803,6.97509158 7.56381346,6.7869721 L11.0923676,4.87923512 Z M4.24305639,3.22485073 L5.26046283,4.24385561 L4.24225717,5.26286049 L3.22325229,4.24385561 L4.24225717,3.22485073 L4.24305639,3.22485073 Z M11.7421331,3.21046478 L12.761138,4.22946966 L11.7421331,5.24927376 L10.7231282,4.22946966 L11.7421331,3.21046478 Z" id="形状"></path>
            </g>
        </g>
    </g>
</svg>