<?xml version="1.0" encoding="UTF-8"?>
<svg width="16px" height="16px" viewBox="0 0 16 16" version="1.1" xmlns="http://www.w3.org/2000/svg" xmlns:xlink="http://www.w3.org/1999/xlink">
    <title>icon-backup</title>
    <g id="恩墨图标库" stroke="none" stroke-width="1" fill="none" fill-rule="evenodd">
        <g id="zCloud-icon更新对照表" transform="translate(-397.000000, -1355.000000)" fill="#000000" fill-rule="nonzero">
            <g id="icon-backup" transform="translate(397.000000, 1355.000000)">
                <rect id="矩形" opacity="0" x="0" y="0" width="16" height="16"></rect>
                <path d="M6.98010198,2.33176683 L7.01609839,2.3669633 L10.4573543,5.80341966 L10.4573543,8.49675033 C10.1565843,8.94790522 9.59984002,9.4230577 9.09429058,9.65103489 L9.09429058,7.10648934 L5.68343166,7.10648934 L5.68343166,3.69323067 L1.66383361,3.69323067 C1.49813339,3.69452976 1.36400296,3.82830441 1.36226378,3.99400059 L1.36226378,14.3385661 C1.3630637,14.5041496 1.49825019,14.6385361 1.66383361,14.6393361 L8.79272073,14.6393361 C8.9589095,14.6384614 9.09341588,14.503955 9.09429058,14.3377662 L9.09429058,12.160384 C9.72542747,12.0435956 10.3037696,11.6348365 10.4309569,11.540446 L10.4573543,11.5212479 L10.4573543,14.3385661 C10.4560299,15.2568512 9.7110066,16.0004424 8.79272073,16.0000002 L1.66383361,16.0000002 C0.745860026,16.0000002 0.00132399484,15.2565388 0,14.3385661 L0,3.99320069 C0.00132343896,3.07554026 0.745372425,2.33220705 1.6630337,2.33176683 L6.98010198,2.33176683 Z M12.5219478,0.00159984375 L12.5579442,0.0367963281 L15.9984002,3.47325267 L15.9984002,12.0083992 C15.997517,12.9269967 15.2523645,13.671075 14.3337666,13.6706331 L11.4252575,13.6706331 L11.4252575,12.3091691 L14.3337666,12.3091691 C14.4996458,12.3082989 14.6340257,12.1742755 14.6353365,12.0083992 L14.6353365,4.77632238 L11.2244775,4.77632238 L11.2244775,1.36306369 L5.56104389,1.36306369 L5.6050395,1.20627938 C5.8122048,0.494400433 6.46347318,0.00399533715 7.20487952,0.00159984375 L12.5219478,0.00159984375 L12.5219478,0.00159984375 Z M12.0435956,6.08099191 C12.419558,6.08099191 12.7235508,6.38736127 12.7235508,6.76252375 C12.7276637,8.14686317 12.1767751,9.47510407 11.1940806,10.450155 C10.3520546,11.2906619 9.24840119,11.8186434 8.06559344,11.9468053 L8.06559344,13.0026997 L4.9171083,11.1868813 L8.06559344,9.37266273 L8.06559344,10.5749425 C9.95914404,10.3001249 11.3632055,8.67591205 11.3612639,6.76252375 C11.3625846,6.38648998 11.6675598,6.08222983 12.0435956,6.08179183 L12.0435956,6.08099191 Z M7.04649534,4.32356764 L7.04649534,5.74422558 L8.46955305,5.74422558 L7.04569544,4.32356764 L7.04649534,4.32356764 Z M12.589941,1.9950005 L12.589941,3.41565844 L14.0121988,3.41565844 L12.589941,1.9950005 Z" id="形状"></path>
            </g>
        </g>
    </g>
</svg>