<?xml version="1.0" encoding="UTF-8"?>
<svg width="16px" height="16px" viewBox="0 0 16 16" version="1.1" xmlns="http://www.w3.org/2000/svg" xmlns:xlink="http://www.w3.org/1999/xlink">
    <title>icon-time</title>
    <g id="恩墨图标库" stroke="none" stroke-width="1" fill="none" fill-rule="evenodd">
        <g id="zCloud-icon更新对照表" transform="translate(-1934.000000, -1655.000000)" fill="#000000" fill-rule="nonzero">
            <g id="icon-time" transform="translate(1934.000000, 1655.000000)">
                <rect id="矩形" opacity="0" x="0" y="0" width="16" height="16"></rect>
                <path d="M8,14.6664 C4.324,14.6664 1.3336,11.676 1.3336,8 C1.3336,4.324 4.324,1.3336 8,1.3336 C11.676,1.3336 14.6664,4.324 14.6664,8 C14.6664,11.676 11.676,14.6664 8,14.6664 M8,0 C3.5888,0 0,3.5888 0,8 C0,12.4112 3.5888,16 8,16 C12.4112,16 16,12.4112 16,8 C16,3.5888 12.4112,0 8,0 M8.396,7.9048 L8.396,3.8912 C8.396,3.5096 8.128,3.2 7.7976,3.2 C7.468,3.2 7.2,3.5096 7.2,3.8912 L7.2,8.1912 C7.2,8.3744 7.2624,8.5504 7.3752,8.6792 L9.38,10.9968 C9.492,11.1272 9.644,11.2 9.8024,11.2 C9.96618901,11.1975014 10.1206202,11.1232107 10.2248,10.9968 C10.4579086,10.7129227 10.4579086,10.3038773 10.2248,10.02 L8.396,7.904 L8.396,7.9048 Z" id="形状"></path>
            </g>
        </g>
    </g>
</svg>