<?xml version="1.0" encoding="UTF-8"?>
<svg width="16px" height="16px" viewBox="0 0 16 16" version="1.1" xmlns="http://www.w3.org/2000/svg" xmlns:xlink="http://www.w3.org/1999/xlink">
    <title>icon-more-2</title>
    <g id="页面-1" stroke="none" stroke-width="1" fill="none" fill-rule="evenodd">
        <g id="zCloud-icon更新对照表" transform="translate(-2612.000000, -1005.000000)" fill="#000000" fill-rule="nonzero">
            <g id="icon-more-2" transform="translate(2612.000000, 1005.000000)">
                <rect opacity="0" x="0" y="0" width="16" height="16"></rect>
                <path d="M8,3.2 C8.5904,3.2 9.1008,2.876 9.3784,2.4 C9.5152,2.164 9.6,1.8928 9.6,1.6 C9.6,0.7163444 8.8836556,0 8,0 C7.1163444,0 6.4,0.7163444 6.4,1.6 C6.4,1.8928 6.4848,2.164 6.6216,2.4 C6.8992,2.876 7.4096,3.2 8,3.2 M8,6.4 C7.4096,6.4 6.8992,6.724 6.6216,7.2 C6.4776,7.4424 6.4016,7.7184 6.4,8 C6.4,8.2928 6.4848,8.564 6.6216,8.8 C6.8992,9.276 7.4096,9.6 8,9.6 C8.5904,9.6 9.1008,9.276 9.3784,8.8 C9.5152,8.564 9.6,8.2928 9.6,8 C9.6,7.7072 9.5152,7.436 9.3784,7.2 C9.1008,6.724 8.5904,6.4 8,6.4 M8,12.8 C7.4096,12.8 6.8992,13.124 6.6216,13.6 C6.4776,13.8424 6.4016,14.1184 6.4,14.4 C6.4,15.2836556 7.1163444,16 8,16 C8.8836556,16 9.6,15.2836556 9.6,14.4 C9.6,14.1072 9.5152,13.836 9.3784,13.6 C9.1008,13.124 8.5904,12.8 8,12.8" id="形状" transform="translate(8.000000, 8.000000) rotate(90.000000) translate(-8.000000, -8.000000) "></path>
            </g>
        </g>
    </g>
</svg>