<?xml version="1.0" encoding="UTF-8"?>
<svg width="16px" height="16px" viewBox="0 0 16 16" version="1.1" xmlns="http://www.w3.org/2000/svg" xmlns:xlink="http://www.w3.org/1999/xlink">
    <title>icon-db2</title>
    <g id="恩墨图标库" stroke="none" stroke-width="1" fill="none" fill-rule="evenodd">
        <g id="zCloud-icon更新对照表" transform="translate(-397.000000, -755.000000)" fill="#000000" fill-rule="nonzero">
            <g id="icon-db2" transform="translate(397.000000, 755.000000)">
                <rect id="icon-DB2" opacity="0" x="0" y="0" width="15.9843902" height="15.9843902"></rect>
                <path d="M8,0 C12.418278,0 16,3.581722 16,8 C16,12.418278 12.418278,16 8,16 C3.581722,16 0,12.418278 0,8 C0,3.581722 3.581722,0 8,0 Z M8,1 C4.13400675,1 1,4.13400675 1,8 C1,11.8659932 4.13400675,15 8,15 C11.8659932,15 15,11.8659932 15,8 C15,4.13400675 11.8659932,1 8,1 Z M10.6851,5.4078 L11.5091,7.6568 L12.2581,5.4078 L14.2061,5.4078 L14.2061,6.3818 L13.5301,6.3818 L13.5301,9.3038 L14.2061,9.3038 L14.2061,10.3158 L12.4831,10.3158 L12.5201,7.5058 L11.5091,10.3158 L11.4721,10.3158 L10.4571,7.5248 L10.4601,10.3158 L8.7741,10.3158 L8.7741,9.3038 L9.4081,9.3038 L9.4081,6.3818 L8.7371,6.3818 L8.7371,5.4078 L10.6851,5.4078 Z M7.2711,5.4078 C7.9561,5.4078 8.5111,5.9638 8.5111,6.6478 C8.5111,7.2458 8.0881,7.7448 7.5241,7.8618 C8.0881,7.9788 8.5111,8.4778 8.5111,9.0748 C8.5111,9.7598 7.9561,10.3158 7.2711,10.3158 L7.2711,10.3158 L4.6921,10.3158 L4.6921,9.3038 L5.3661,9.3038 L5.3661,6.3818 L4.6921,6.3818 L4.6921,5.4078 Z M4.3541,5.4078 L4.3541,6.3818 L3.6801,6.3818 L3.6801,9.3038 L4.3541,9.3038 L4.3541,10.3158 L1.9571,10.3158 L1.9571,9.3038 L2.6311,9.3038 L2.6311,6.3818 L1.9571,6.3818 L1.9571,5.4078 L4.3541,5.4078 Z M7.3881,8.3668 L6.4141,8.3668 L6.4141,9.3038 L7.3881,9.3038 L7.3881,8.3668 Z M7.3881,6.3818 L6.4141,6.3818 L6.4141,7.3558 L7.3881,7.3558 L7.3881,6.3818 Z" id="形状结合"></path>
            </g>
        </g>
    </g>
</svg>