<?xml version="1.0" encoding="UTF-8"?>
<svg width="16px" height="16px" viewBox="0 0 16 16" version="1.1" xmlns="http://www.w3.org/2000/svg" xmlns:xlink="http://www.w3.org/1999/xlink">
    <title>icon-user-management</title>
    <g id="恩墨图标库" stroke="none" stroke-width="1" fill="none" fill-rule="evenodd">
        <g id="zCloud-icon更新对照表" transform="translate(-397.000000, -955.000000)" fill="#000000" fill-rule="nonzero">
            <g id="icon-user-management" transform="translate(397.000000, 955.000000)">
                <rect id="矩形" opacity="0" x="0" y="0.0156097561" width="16" height="15.9843902"></rect>
                <path d="M10.032,7.52028098 C13.3153274,7.54330633 15.972548,10.194376 16,13.4744663 L16,15.0657124 C15.9978297,15.4492169 15.6878693,15.7599428 15.304,15.763431 C14.9207415,15.7608345 14.6103199,15.4517826 14.6064,15.0689093 L14.6064,13.4784624 C14.5910143,12.2471345 14.0834809,11.0730619 13.1968,10.2176468 C12.3138551,9.35753167 11.1234373,8.88562737 9.8904,8.90692683 C7.37153865,8.93029046 5.33446653,10.9628882 5.308,13.4792617 L5.308,14.6061612 L12.908,14.6061612 C13.2838641,14.6188826 13.5819797,14.9269681 13.5819797,15.302681 C13.5819797,15.6783939 13.2838641,15.9864794 12.908,15.9992008 L4.5104,15.9992008 L4.5104,15.9792203 C4.32518273,15.9534313 4.15814567,15.854265 4.04693085,15.7040685 C3.93571603,15.553872 3.88968107,15.3652829 3.9192,15.1808 C3.91167746,15.1415805 3.90899079,15.1015883 3.9112,15.0617163 L3.9112,13.4760648 C3.952,10.1736898 6.6568,7.51868254 9.9544,7.51868254 L10.032,7.52028098 Z M5.3824,7.74006634 C5.8064,7.74006634 6.228,7.79041717 6.6352,7.88792195 C6.70373213,7.90514791 6.75283577,7.96524931 6.75605137,8.03577756 C6.75789729,8.11023337 6.70705537,8.17572872 6.6344,8.19242459 C5.94224965,8.38580497 5.29481532,8.71300785 4.7288,9.1554841 L4.6928,9.1762638 C4.6775223,9.18334894 4.66084174,9.18690034 4.644,9.18665366 C2.78215817,9.50239187 1.41989845,11.1138959 1.42,13.0005292 L1.42,13.9739785 L2.9024,13.9739785 C2.9784,13.9667856 3.0544,14.0363177 3.056,14.1202357 L3.056,15.2015797 C3.05840243,15.2369854 3.04882281,15.2721702 3.0288,15.3014821 C2.99984923,15.3419582 2.9537611,15.3667506 2.904,15.3686166 L0.6984,15.3686166 C0.248,15.3686166 0,15.1128663 0,14.6501182 L0,12.9933362 C0.0248,10.0881733 2.4024,7.74006634 5.3064,7.74006634 L5.3824,7.74006634 Z M9.8832,11.4180745 C10.2459415,11.4342023 10.5365898,11.723874 10.5536,12.086222 L10.5456,13.6782673 C10.5039922,14.0168742 10.2182553,14.2726256 9.8768,14.2768827 C9.48597868,14.2822303 9.16424599,13.9711683 9.1568,13.5807625 L9.1568,12.0902181 C9.16270734,11.9039761 9.24344837,11.7279595 9.3808,11.601895 C9.51788824,11.4775537 9.69815369,11.4115973 9.8832,11.4180745 L9.8832,11.4180745 Z M9.8832,9.68216976 C10.2457729,9.69876115 10.5358259,9.98887772 10.552,10.3511165 C10.5562554,10.5336736 10.4867648,10.7102553 10.3592,10.841038 C10.2326727,10.9726242 10.0586259,11.0480477 9.876,11.0504336 L9.8488,11.0504336 C9.46710808,11.0452369 9.15944271,10.736452 9.156,10.3551126 C9.16219904,10.1683734 9.24353591,9.99202733 9.3816,9.86599024 C9.51868139,9.74269335 9.69802281,9.67686541 9.8824,9.68216976 L9.8832,9.68216976 Z M2.416,2.18389229 C3.31541834,1.30238789 4.59073343,0.918224898 5.828,1.156096 C5.8757058,1.16558475 5.9167339,1.19574026 5.94,1.23841561 C5.94940425,1.25736791 5.95484812,1.27803443 5.956,1.29915629 L5.964,1.29915629 L5.956,1.3119438 C5.95515302,1.35045077 5.93937868,1.38712616 5.912,1.4142439 C5.89418256,1.42620211 5.87849842,1.44106049 5.8656,1.45820098 L5.8072,1.41983844 L5.8552,1.46779161 C5.5832,1.74112468 5.3496,2.0488242 5.1592,2.38369717 C5.148,2.42685502 5.092,2.46601678 5.0296,2.46601678 C4.42288841,2.48651079 3.84606337,2.73413241 3.4136,3.15973932 C2.47982788,4.08280574 2.47159106,5.58724158 3.3952,6.52045737 C3.53029114,6.64157509 3.61116331,6.81172544 3.61973283,6.9928614 C3.62830234,7.17399735 3.56385436,7.35100937 3.4408,7.4843161 L3.4096,7.51548566 C3.27053831,7.64037762 3.09019362,7.70954193 2.9032,7.70970328 C2.721275,7.71052858 2.5463056,7.63992024 2.416,7.513088 C1.69796372,6.81198497 1.29159527,5.8523363 1.28799103,4.84928937 C1.28578786,3.84459679 1.69303809,2.88228866 2.416,2.18389229 L2.416,2.18389229 Z M6.9032,1.25999454 C8.5917713,-0.399257543 11.3002287,-0.399257543 12.9888,1.25999454 C13.7888,2.040832 14.2368,3.0854119 14.2496,4.20272078 C14.2655222,5.31228643 13.8362712,6.38206474 13.0576,7.17341971 L12.9888,7.2429518 C12.8674518,7.37031888 12.6992097,7.4425173 12.5232,7.44275668 L12.5088,7.44275668 L12.412,7.43236683 C12.2623148,7.41406129 12.1225651,7.34789914 12.0136,7.24375102 C11.8832187,7.12217443 11.8067743,6.95365744 11.8012177,6.77556708 C11.795661,6.59747672 11.8614512,6.42453045 11.984,6.29507746 C11.9928,6.28468761 12.0024,6.2758962 12.0128,6.26550634 C13.1256218,5.18175239 13.1492523,3.40225395 12.0656,2.28938927 L12.0128,2.23504234 C11.4648125,1.6957635 10.7260058,1.39421088 9.9568,1.39586185 L9.9376,1.39586185 C9.1746854,1.39744391 8.44303635,1.69889011 7.9008,2.23504234 C6.78690444,3.318715 6.76255573,5.0990871 7.8464,6.21275785 L7.9,6.26630556 C8.03014617,6.39383163 8.10380654,6.56807907 8.10455797,6.75019806 C8.1053094,6.93231705 8.03308941,7.10716523 7.904,7.23575883 C7.77049774,7.36880133 7.58852834,7.44180664 7.4,7.43796137 L7.3872,7.43796137 C7.20718816,7.43739791 7.03424723,7.36788855 6.904,7.24375102 C5.25069288,5.62962124 5.2191826,2.98247793 6.8336,1.32952663 L6.9032,1.25999454 Z" id="形状"></path>
            </g>
        </g>
    </g>
</svg>