<?xml version="1.0" encoding="UTF-8"?>
<svg width="16px" height="16px" viewBox="0 0 16 16" version="1.1" xmlns="http://www.w3.org/2000/svg" xmlns:xlink="http://www.w3.org/1999/xlink">
    <title>icon-oracle</title>
    <g id="恩墨图标库" stroke="none" stroke-width="1" fill="none" fill-rule="evenodd">
        <g id="zCloud-icon更新对照表" transform="translate(-397.000000, -455.000000)" fill="#000000" fill-rule="nonzero">
            <g id="icon-oracle" transform="translate(397.000000, 455.000000)">
                <rect id="矩形" opacity="0" x="0" y="0" width="16" height="16"></rect>
                <path d="M11.3056,11.1336 L4.6936,11.1336 C2.90461655,11.1318353 1.454923,9.68178383 1.45358821,7.8928 C1.45127346,7.03309798 1.79325393,6.20825375 2.4032,5.6024 C3.00892751,4.99343601 3.83308349,4.65207815 4.692,4.65438823 L11.3056,4.65438823 C13.093959,4.6566048 14.5430368,6.10604052 14.5448,7.8944 C14.543036,9.68262959 13.0938296,11.131836 11.3056,11.1336 M11.3056,3.2 L4.6936,3.2 C2.10236361,3.20308661 0.00264498314,5.30316312 0,7.8944 C0.00308574914,10.4853245 2.10267553,12.5849143 4.6936,12.588 L11.3056,12.588 C13.8966544,12.5849152 15.9964736,10.4854539 16,7.8944 C15.9969142,5.30303371 13.8969663,3.20308575 11.3056,3.2" id="形状"></path>
            </g>
        </g>
    </g>
</svg>