<?xml version="1.0" encoding="UTF-8"?>
<svg width="16px" height="16px" viewBox="0 0 16 16" version="1.1" xmlns="http://www.w3.org/2000/svg" xmlns:xlink="http://www.w3.org/1999/xlink">
    <title>icon-expand</title>
    <defs>
        <rect id="path-1" x="2242" y="1138" width="694" height="50"></rect>
        <filter x="-0.1%" y="-1.0%" width="100.1%" height="102.0%" filterUnits="objectBoundingBox" id="filter-2">
            <feOffset dx="0" dy="-1" in="SourceAlpha" result="shadowOffsetInner1"></feOffset>
            <feComposite in="shadowOffsetInner1" in2="SourceAlpha" operator="arithmetic" k2="-1" k3="1" result="shadowInnerInner1"></feComposite>
            <feColorMatrix values="0 0 0 0 0.909803922   0 0 0 0 0.909803922   0 0 0 0 0.909803922  0 0 0 1 0" type="matrix" in="shadowInnerInner1"></feColorMatrix>
        </filter>
    </defs>
    <g id="恩墨图标库" stroke="none" stroke-width="1" fill="none" fill-rule="evenodd">
        <g id="zCloud-icon更新对照表" transform="translate(-2612.000000, -1155.000000)">
            <rect fill="#F5F5F7" x="0" y="0" width="2976" height="2604"></rect>
            <g id="矩形备份-23">
                <use fill="#FFFFFF" fill-rule="evenodd" xlink:href="#path-1"></use>
                <use fill="black" fill-opacity="1" filter="url(#filter-2)" xlink:href="#path-1"></use>
            </g>
            <g id="icon-expand" transform="translate(2612.000000, 1155.000000)">
                <rect x="0" y="0" width="16" height="16"></rect>
                <path d="M13.2785019,15.9585898 L2.68005653,15.9585898 C1.21821608,15.9585898 0,14.7403737 0,13.2785176 L0,2.68005653 C0,1.21823178 1.21820038,0 2.68005653,0 L13.2785176,0 C14.7403423,0 15.9585741,1.21821608 15.9585741,2.68007224 L15.9585741,13.4003298 C15.9585741,14.8621859 14.740358,15.9585898 13.2785019,15.9585898 L13.2785019,15.9585898 Z M2.68005653,1.21821608 C1.94913631,1.21821608 1.21821608,1.94913631 1.21821608,2.68005653 L1.21821608,13.2785176 C1.21821608,14.0094378 1.94913631,14.740358 2.68005653,14.740358 L13.2785176,14.740358 C14.13125,14.740358 14.740358,14.1312657 14.740358,13.4003298 L14.740358,2.68007224 C14.740358,1.94913631 14.0094378,1.21821608 13.2785176,1.21821608 L2.68005653,1.21821608 Z M7.91837312,12.3039573 C7.55290515,12.3039573 7.30926508,12.0603015 7.30926508,11.6948335 L7.30926508,4.38556847 C7.30926508,4.0201005 7.55290515,3.77646043 7.91837312,3.77646043 C8.28384108,3.77646043 8.52748116,4.0201005 8.52748116,4.38556847 L8.52748116,11.5730214 C8.52748116,11.9384736 8.28384108,12.3039573 7.91837312,12.3039573 L7.91837312,12.3039573 Z M3.77644472,8.04020101 C3.77644472,7.67473304 4.0201005,7.43109296 4.38555276,7.43109296 L11.5730057,7.43109296 C11.9384736,7.43109296 12.1821137,7.67473304 12.1821137,8.04020101 C12.1821137,8.40566897 11.9384736,8.64930905 11.5730057,8.64930905 L4.38555276,8.64930905 C4.0201005,8.64930905 3.77644472,8.40566897 3.77644472,8.04020101 Z" id="形状" fill="#000000" fill-rule="nonzero"></path>
            </g>
        </g>
    </g>
</svg>