<?xml version="1.0" encoding="UTF-8"?>
<svg width="17px" height="16px" viewBox="0 0 17 16" version="1.1" xmlns="http://www.w3.org/2000/svg" xmlns:xlink="http://www.w3.org/1999/xlink">
    <title>icon-change-management</title>
    <g id="恩墨图标库" stroke="none" stroke-width="1" fill="none" fill-rule="evenodd">
        <g id="zCloud-icon更新对照表" transform="translate(-397.000000, -855.000000)" fill="#000000" fill-rule="nonzero">
            <g id="icon-change-management" transform="translate(397.000000, 855.000000)">
                <rect opacity="0" x="0.0146915352" y="0" width="16" height="16"></rect>
                <path d="M11.7532302,0 C12.6767309,0 13.4296558,0.741892595 13.4296558,1.65253854 L13.4296558,4.59522363 C13.430079,4.84930193 13.2921826,5.0843023 13.0679089,5.21170236 C12.8436352,5.33910243 12.5670567,5.3395471 12.3423578,5.21286886 C12.1176589,5.08619062 11.9789769,4.85163493 11.9785517,4.59755663 L11.9785517,1.65253854 C11.9781245,1.52919426 11.8766816,1.42906857 11.75085,1.4277933 L1.6764406,1.4277933 C1.55128168,1.43073243 1.4511473,1.53060466 1.45032572,1.6533162 L1.45032572,13.9007653 C1.45032572,14.0228588 1.55425922,14.1255106 1.6764406,14.1255106 L4.48343859,14.1255106 C4.88568299,14.1252958 5.21194411,14.4447441 5.2121632,14.8390184 C5.21238229,15.2332927 4.88647638,15.5530891 4.48423198,15.5533085 L1.67485383,15.5533085 C1.23009538,15.5540374 0.803643904,15.3797767 0.491122619,15.0695961 C0.175580113,14.7599935 -0.00114715381,14.3399426 5.60419755e-06,13.9023207 L5.60419755e-06,1.6533162 C5.60419755e-06,0.742670261 0.752146458,0 1.6764406,0 L11.7532302,0 Z M8.7343178,6.80457045 C9.15163858,6.80457045 9.49200097,7.12496851 9.49200097,7.51846709 C9.49200097,7.91196569 9.15163858,8.23236374 8.7343178,8.23236374 L3.73499659,8.23236374 C3.3176758,8.23236374 2.97810679,7.91196569 2.97810679,7.51846709 C2.97810679,7.12496851 3.3176758,6.80457045 3.73499659,6.80457045 L8.7343178,6.80457045 Z M9.77114697,3.88832597 C10.1940215,3.88832597 10.5375574,4.20872403 10.5375574,4.60222262 C10.5375574,4.99572121 10.1940215,5.31611927 9.77194036,5.31611927 L3.74372383,5.31611927 C3.32084934,5.31611927 2.97810679,4.99572121 2.97810679,4.60222262 C2.97810679,4.20872403 3.32084934,3.88832597 3.74372383,3.88832597 L9.77114697,3.88832597 Z M12.3288469,6.86484993 C11.9736752,6.99599705 11.7421577,7.31384553 11.745463,7.66577263 L11.745463,8.13959739 L10.8791802,8.14958849 C10.5583896,8.14958849 10.3394994,8.48086274 10.3394994,8.77584035 C10.3394994,9.07081797 10.5583896,9.42807421 10.8791802,9.42807421 L12.3273224,9.4180831 C12.6484884,9.4180831 12.9081653,8.96949162 12.9081653,8.67370161 L12.9081653,8.21810089 L14.7558862,10.0105977 L12.9081653,11.8030945 L12.9081653,11.3456246 C12.9081653,11.0503019 12.6489966,10.8115204 12.3273224,10.8115204 L9.20408458,10.8115204 L9.20154371,10.1549 C9.20476652,9.80285731 8.97810481,9.54908134 8.62273346,9.4180831 C8.27838576,9.28973393 7.7150681,9.28498291 7.46171512,9.5349038 L4.9362386,12.0867351 C4.59325229,12.4200548 4.59325229,12.9417155 4.9362386,13.2750352 L7.46171512,15.5533039 C7.77648654,15.8511013 8.09673968,16 8.42247454,16 C8.88910081,16 9.14879053,15.7862258 9.20154371,15.3586772 L9.20154371,14.5516518 L9.93483889,14.5516518 C10.2556296,14.5516518 10.4740116,14.1909863 10.4740116,13.8960087 C10.4740116,13.6010311 10.2556296,13.2750352 9.93483889,13.2750352 L8.62273346,13.2750352 C8.30156744,13.2750352 8.04036598,13.7217576 8.04036598,14.0175476 L8.04036598,14.4731484 L6.19416961,12.6806515 L8.04189051,10.8881547 L8.04189051,11.4947778 C8.04189051,11.7901005 8.30105927,12.0867351 8.62273346,12.0867351 L11.7459712,12.0867351 L11.7459712,12.5162056 C11.7459712,12.8732096 11.9746496,13.1446634 12.3288469,13.2750352 C12.6731946,13.4033845 13.0679578,13.2044001 13.3213108,12.9544793 L15.7427602,10.6063833 C16.0857466,10.2730635 16.0857466,9.75140286 15.7427602,9.4180831 L13.3213108,7.06671609 C13.1501802,6.90001924 12.9120154,6.8053894 12.6627173,6.80502976 C12.3482765,6.80457614 12.6230653,6.75620978 12.3288469,6.86484993 Z"></path>
            </g>
        </g>
    </g>
</svg>