<?xml version="1.0" encoding="UTF-8"?>
<svg width="16px" height="16px" viewBox="0 0 16 16" version="1.1" xmlns="http://www.w3.org/2000/svg" xmlns:xlink="http://www.w3.org/1999/xlink">
    <title>icon-start</title>
    <g id="页面-1" stroke="none" stroke-width="1" fill="none" fill-rule="evenodd">
        <g id="zCloud-icon更新对照表" transform="translate(-1934.000000, -1605.000000)" fill="#000000" fill-rule="nonzero">
            <g id="icon-start" transform="translate(1934.000000, 1605.000000)">
                <rect opacity="0" x="0" y="0" width="16" height="16"></rect>
                <path d="M8,0 C12.4112,0 16,3.5888 16,8 C16,12.4112 12.4112,16 8,16 C3.5888,16 0,12.4112 0,8 C0,3.5888 3.5888,0 8,0 Z M8,1.3336 C4.324,1.3336 1.3336,4.324 1.3336,8 C1.3336,11.676 4.324,14.6664 8,14.6664 C11.676,14.6664 14.6664,11.676 14.6664,8 C14.6664,4.324 11.676,1.3336 8,1.3336 Z M6.63667797,5.05638347 L10.7859189,7.60280522 C11.0713604,7.76638512 11.0713604,8.21023751 10.7859189,8.3738174 L6.63667797,10.9435777 C6.3513024,11.1071576 6,10.8969006 6,10.5464724 L6,5.45355882 C6,5.1031306 6.35123654,4.89287366 6.63667797,5.05638347 Z"></path>
            </g>
        </g>
    </g>
</svg>