<?xml version="1.0" encoding="UTF-8"?>
<svg width="16px" height="16px" viewBox="0 0 16 16" version="1.1" xmlns="http://www.w3.org/2000/svg" xmlns:xlink="http://www.w3.org/1999/xlink">
    <title>icon-storage</title>
    <g id="恩墨图标库" stroke="none" stroke-width="1" fill="none" fill-rule="evenodd">
        <g id="zCloud-icon更新对照表" transform="translate(-1934.000000, -1755.000000)">
            <g id="icon-storage" transform="translate(1934.000000, 1755.000000)">
                <path d="M13.1423955,1.00364161e-13 C14.0128912,1.00364161e-13 14.7279964,0.669289655 14.8008593,1.52101708 L14.8069729,1.66457741 L14.8069729,14.315483 C14.8069729,15.1859786 14.1376833,15.9010838 13.2859558,15.9739467 L13.1423955,15.9800604 L2.82188768,15.9800604 C1.95139202,15.9800604 1.2362868,15.3107707 1.16342391,14.4590433 L1.15731027,14.315483 L1.15731027,1.66457741 C1.15731027,0.794081751 1.82659992,0.078976535 2.67832735,0.00611364703 L2.82188768,1.00364161e-13 L13.1423955,1.00364161e-13 Z M13.1423955,1.5 L2.82188768,1.5 C2.73145827,1.5 2.65731027,1.57414801 2.65731027,1.66457741 L2.65731027,14.315483 C2.65731027,14.4059124 2.73145827,14.4800604 2.82188768,14.4800604 L13.1423955,14.4800604 C13.2328249,14.4800604 13.3069729,14.4059124 13.3069729,14.315483 L13.3069729,1.66457741 C13.3069729,1.57414801 13.2328249,1.5 13.1423955,1.5 Z M8.8755593,9.1500799 C8.99240945,9.26993075 12.2649947,11.5737127 12.6442205,11.9532404 C13.1099876,12.4226474 13.1099876,13.1783647 12.6442205,13.6444869 C12.1781516,14.1102539 11.4220969,14.1102539 10.9529741,13.6444869 C10.5534712,13.244984 8.25933061,9.98239524 8.14981357,9.87582564 C7.95006214,9.67273615 7.95006214,9.34983132 8.14981357,9.1500799 C8.34956499,8.94997337 8.67216797,8.94997337 8.8755593,9.1500799 Z M4.83231534,12 C5.29174361,12 5.66463068,12.3728871 5.66463068,12.8323153 C5.66463068,13.2917436 5.29174361,13.6646307 4.83231534,13.6646307 C4.37288707,13.6646307 4,13.2917436 4,12.8323153 C4,12.3728871 4.37288707,12 4.83231534,12 Z M7.98216822,2 C10.4657265,2 12.4765752,4.01084872 12.4765752,6.49440696 C12.4765752,7.78945312 11.9302506,8.95799006 11.0516995,9.77697088 C10.6022499,9.43703835 10.1827719,9.10415483 9.94308797,8.86145241 C9.22762277,8.14568537 8.06876268,8.14568537 7.35296013,8.86145241 C6.81063058,9.40411932 6.68044592,10.2064276 6.96009791,10.8723011 C4.96922433,10.4095348 3.48776126,8.62508878 3.48776126,6.49440696 C3.48776126,4.01084872 5.49857447,2 7.98216822,2 Z M7.98211496,5.66209162 C7.52268669,5.66209162 7.14983513,6.03497869 7.14983513,6.49440696 C7.14983513,6.95383523 7.5227222,7.3267223 7.98215047,7.3267223 C8.44157873,7.3267223 8.8144303,6.95383523 8.8144303,6.49440696 C8.8144303,6.03497869 8.44154322,5.66209162 7.98211496,5.66209162 Z" fill="#000000" fill-rule="nonzero"></path>
            </g>
        </g>
    </g>
</svg>