<?xml version="1.0" encoding="UTF-8"?>
<svg width="16px" height="16px" viewBox="0 0 16 16" version="1.1" xmlns="http://www.w3.org/2000/svg" xmlns:xlink="http://www.w3.org/1999/xlink">
    <g fill="#000" fill-rule="nonzero">
        <path d="M6.8700565,1.31073446 C9.93545763,1.31073446 12.4293785,2.03046328 12.4293785,2.91525424 C12.4293785,3.8000452 9.93545763,4.51977401 6.8700565,4.51977401 C3.80465537,4.51977401 1.31073446,3.8000452 1.31073446,2.91525424 C1.31073446,2.03046328 3.80465537,1.31073446 6.8700565,1.31073446 L6.8700565,1.31073446 Z M8.58693785,14.6783277 L8.55746893,14.6268023 L8.49853107,14.6333107 C7.99502825,14.6892655 7.42309605,14.6892655 6.8700565,14.6892655 C3.80465537,14.6892655 1.31073446,13.9694463 1.31073446,13.0847458 L1.31073446,9.74101695 C2.59444068,10.4781921 4.65464407,10.9152542 6.8700565,10.9152542 C7.31724294,10.9152542 7.77970621,10.9152542 8.23719774,10.8580339 L8.29649718,10.8506215 L8.31294915,10.7931299 C8.42287006,10.4083164 8.53658757,10.0103051 8.70237288,9.67882486 L8.77568362,9.53211299 L8.61242938,9.54847458 C8.05911864,9.60379661 7.48700565,9.66101695 6.8700565,9.66101695 C3.80465537,9.66101695 1.31073446,8.94119774 1.31073446,8.05649718 L1.31073446,4.65627119 C2.59444068,5.39344633 4.65464407,5.83050847 6.8700565,5.83050847 C9.08546893,5.83050847 11.1456723,5.39344633 12.4293785,4.65627119 L12.4293785,5.26553672 L13.740113,5.26553672 L13.740113,2.91525424 C13.740113,1.28054237 10.7224407,0 6.8700565,0 C3.01767232,0 1.95399252e-13,1.28054237 1.95399252e-13,2.91525424 L1.95399252e-13,13.0847458 C1.95399252e-13,14.7194576 3.01767232,16 6.8700565,16 C7.73658757,16 8.57726554,15.9426893 9.36876836,15.8296045 L9.5699887,15.8008588 L9.41387571,15.6705989 C9.08474576,15.3964294 8.80650847,15.0625989 8.58693785,14.6783277 L8.58693785,14.6783277 Z M13.1751412,13.5783955 L13.1751412,8.40370621 C14.3205424,9.68551412 14.5811525,10.4240452 14.6900791,11.4585311 C14.8487232,12.6213785 14.5213107,13.0932429 13.1751412,13.5783955 L13.1751412,13.5783955 Z M11.8656723,13.5319322 C11.8117966,13.5181017 11.7571073,13.5047232 11.7018757,13.4912542 C10.9663277,13.3119096 10.2058305,13.1263277 10.3502825,11.3898305 C10.3502825,10.5980565 11.1187345,9.1679096 11.9188249,8.42630508 L11.8656723,13.5319322 Z M15.9430508,11.4372881 L15.9429605,11.4363842 C15.8117062,10.2551864 15.2960904,9.02571751 13.2051525,6.86264407 L12.519774,6.17726554 L11.3763616,7.32131073 C11.2490847,7.47679096 11.1115932,7.63543503 10.9660565,7.80329944 C10.5337853,8.30183051 10.0438418,8.86698305 9.6140113,9.5980113 C9.33740113,10.1514124 9.03954802,10.9658757 9.04,11.4372881 C8.8640904,13.196565 9.69265537,14.2193898 11.8079096,14.8473672 L11.8079096,16 L13.1186441,16 L13.1186441,14.8473672 C15.2440226,14.216226 16.1155254,13.1623955 15.9430508,11.4372881 L15.9430508,11.4372881 Z" id="path-1"></path>
    </g>
</svg>