<?xml version="1.0" encoding="UTF-8"?>
<svg width="16px" height="16px" viewBox="0 0 16 16" version="1.1" xmlns="http://www.w3.org/2000/svg" xmlns:xlink="http://www.w3.org/1999/xlink">
    <title>icon-expand2</title>
    <g id="页面-1" stroke="none" stroke-width="1" fill="none" fill-rule="evenodd">
        <g id="zCloud-icon更新对照表" transform="translate(-1934.000000, -1005.000000)" fill="#000000" fill-rule="nonzero">
            <g id="icon-expand2" transform="translate(1942.000000, 1013.000000) rotate(-90.000000) translate(-1942.000000, -1013.000000) translate(1934.000000, 1005.000000)">
                <rect id="矩形" opacity="0" x="0" y="0" width="16" height="16"></rect>
                <path d="M8,14.6664 C4.324,14.6664 1.3336,11.676 1.3336,8 C1.3336,4.324 4.324,1.3336 8,1.3336 C11.676,1.3336 14.6664,4.324 14.6664,8 C14.6664,11.676 11.676,14.6664 8,14.6664 M8,0 C3.5888,0 0,3.5888 0,8 C0,12.4112 3.5888,16 8,16 C12.4112,16 16,12.4112 16,8 C16,3.5888 12.4112,0 8,0 M7.112,4.8376 C6.93479627,4.67854536 6.68619863,4.62610988 6.4598514,4.70004549 C6.23350417,4.7739811 6.06379489,4.96305524 6.0146514,5.19604549 C5.96550791,5.42903574 6.04439627,5.67054536 6.2216,5.8296 L9.0136,8.336 L6.2112,10.9576 C5.94234778,11.209 5.92819998,11.6307478 6.1796,11.8996 C6.43100002,12.1684522 6.85274778,12.1826 7.1216,11.9312 L10.4552,8.8128 C10.591912,8.68522027 10.6687317,8.50607114 10.6669378,8.31908603 C10.6650802,8.13210091 10.5847771,7.95448594 10.4456,7.8296 L7.112,4.8368 L7.112,4.8376 Z" id="形状"></path>
            </g>
        </g>
    </g>
</svg>