<?xml version="1.0" encoding="UTF-8"?>
<svg width="16px" height="16px" viewBox="0 0 16 16" version="1.1" xmlns="http://www.w3.org/2000/svg" xmlns:xlink="http://www.w3.org/1999/xlink">
    <title>icon-time-selection</title>
    <g id="页面-1" stroke="none" stroke-width="1" fill="none" fill-rule="evenodd">
        <g id="zCloud-icon更新对照表" transform="translate(-2612.000000, -805.000000)" fill="#000000" fill-rule="nonzero">
            <g id="icon-time-selection" transform="translate(2612.000000, 805.000000)">
                <rect opacity="0" x="0" y="0" width="16" height="15.9843902"></rect>
                <path d="M3.62550311,1.68982191 L3.62550311,3.14017922 L2.27120683,3.14017922 C1.98117169,3.14017922 1.77902598,3.3995992 1.77902598,3.63187988 L1.77902598,5.72958984 L14.1698383,5.72958984 L14.1698383,3.63187988 C14.1698383,3.34292592 13.910165,3.14017922 13.6768585,3.14017922 L12.2722255,3.14017922 L12.2722255,1.68982191 L13.6249238,1.68982191 C14.7147528,1.68982191 15.6144211,2.55987665 15.6728672,3.67179064 L15.6728672,13.9911188 C15.6785874,14.5216392 15.4701565,15.0321216 15.0945578,15.4072037 C14.718959,15.7822859 14.2078946,15.990309 13.6768585,15.9843907 L2.32314148,15.9843907 C1.79224316,15.9900926 1.28138642,15.7819739 0.905961932,15.4069157 C0.530537446,15.0318575 0.322215547,14.5214992 0.327931925,13.9911188 L0.327931925,3.68376387 C0.327931925,2.56626237 1.20374969,1.68982191 2.32394048,1.68982191 L3.62550311,1.68982191 Z M14.1698383,7.17994715 L1.77902598,7.17994715 L1.77902598,14.0422046 C1.77902598,14.3319567 2.03869931,14.5347034 2.27120683,14.5347034 L13.6768585,14.5347034 C13.9668937,14.5347034 14.1698383,14.2752834 14.1698383,14.0422046 L14.1698383,7.17994715 Z M4.44926683,11.40091 C4.9670155,11.40091 5.38249283,11.8151837 5.38249283,12.3332255 C5.38249283,12.8512673 4.9670155,13.2655497 4.44926683,13.2655497 C4.2014341,13.2666078 3.9634435,13.1687246 3.78819767,12.9936497 C3.61295184,12.8185748 3.51497303,12.5808164 3.51603219,12.3332255 C3.51603219,11.8143855 3.93071916,11.40091 4.44926683,11.40091 Z M7.9216985,11.40091 C8.44104516,11.40091 8.8549245,11.8151837 8.8549245,12.3332255 C8.8549245,12.8512673 8.44104516,13.2655441 7.9216985,13.2655441 C7.67406935,13.2661801 7.43640973,13.1681339 7.2613839,12.993129 C7.08635807,12.8181241 6.98841971,12.5806124 6.98926599,12.3332255 C6.98926599,11.8143855 7.40474883,11.40091 7.9224975,11.40091 L7.9216985,11.40091 Z M11.4476628,8.08671978 C11.9654115,8.08671978 12.3808888,8.50099355 12.3808888,9.01903532 C12.3808888,9.53627887 11.9654115,9.95055265 11.4476628,9.95055265 C10.8771805,9.95055265 10.4633012,9.53548066 10.5144368,9.01903532 C10.5144368,8.50019534 10.9299142,8.08671978 11.4476628,8.08671978 Z M4.44846783,8.08671978 C4.9670155,8.08671978 5.38249283,8.50099355 5.38249283,9.01903532 C5.38249283,9.53627887 4.9670155,9.95056126 4.44926683,9.95056126 C4.20157313,9.95161798 3.96370474,9.85384406 3.78848223,9.67894237 C3.61325971,9.50404068 3.51518661,9.26648819 3.51603529,9.01903532 C3.51603529,8.50019534 3.93071916,8.08671978 4.44926683,8.08671978 L4.44846783,8.08671978 Z M7.9224975,8.08671978 C8.44104517,8.08671978 8.8549245,8.50099355 8.8549245,9.01903532 C8.8549245,9.53627887 8.44104516,9.95055817 7.9216985,9.95055817 C7.674143,9.95140472 7.43648066,9.85353665 7.26143145,9.67865821 C7.08638223,9.50377978 6.98841859,9.2663493 6.98926598,9.01903532 C6.98926598,8.50019534 7.40474883,8.08671978 7.9224975,8.08671978 L7.9224975,8.08671978 Z M4.91587983,0.0199553873 C5.3864878,0.0199553873 5.78438723,0.416668425 5.78438723,0.887615485 L5.78438723,3.94238565 C5.78438723,4.41333271 5.3864878,4.81084396 4.91587983,4.81084396 C4.44447286,4.81084396 4.04737241,4.41333271 4.04737241,3.94238565 L4.04737241,0.886817264 C4.05384063,0.410585494 4.43917188,0.0263384595 4.91587983,0.0207535922 L4.91587983,0.0199553873 Z M10.9802508,0.0199553873 C11.4516578,0.0199553873 11.8495573,0.416668425 11.8495573,0.886817264 L11.8495573,3.94318386 C11.8495573,4.41253449 11.4516578,4.81084396 10.9810498,4.81084396 C10.5039118,4.8043819 10.1189319,4.41906931 10.1133414,3.94238565 L10.1133414,0.886817264 C10.1197904,0.411197715 10.5041668,0.027196274 10.9802508,0.0207535922 L10.9802508,0.0199553873 Z M9.68987414,1.68982191 L9.68987414,3.191265 L6.20625653,3.191265 L6.20625653,1.68982191 L9.68987414,1.68982191 Z"></path>
            </g>
        </g>
    </g>
</svg>