<?xml version="1.0" encoding="UTF-8"?>
<svg width="16px" height="16px" viewBox="0 0 16 16" version="1.1" xmlns="http://www.w3.org/2000/svg" xmlns:xlink="http://www.w3.org/1999/xlink">
    <title>icon-down</title>
    <g id="页面-1" stroke="none" stroke-width="1" fill="none" fill-rule="evenodd">
        <g id="zCloud-icon更新对照表" transform="translate(-2612.000000, -505.000000)" fill="#000000" fill-rule="nonzero">
            <g id="icon-down" transform="translate(2612.000000, 505.000000)">
                <rect opacity="0" x="0" y="0" width="16" height="16"></rect>
                <path d="M1.312,3.4656 C1.02457918,3.17153127 0.555053989,3.16042701 0.254052857,3.44057958 C-0.0469482743,3.72073215 -0.0695171691,4.18984606 0.2032,4.4976 L7.2512,12.0736 C7.39279655,12.2254833 7.59052809,12.3125901 7.79816779,12.3145901 C8.00580748,12.316522 8.20515293,12.2331749 8.3496,12.084 L15.6952,4.508 C15.887392,4.31436701 15.9606298,4.03235213 15.8869401,3.76967109 C15.8132505,3.50699005 15.6040157,3.30421688 15.339153,3.23880092 C15.0742903,3.17338496 14.7947108,3.25543042 14.6072,3.4536 L7.8168,10.4568 L1.3128,3.4648 L1.312,3.4656 Z"></path>
            </g>
        </g>
    </g>
</svg>