<?xml version="1.0" encoding="UTF-8"?>
<svg width="16px" height="16px" viewBox="0 0 16 16" version="1.1" xmlns="http://www.w3.org/2000/svg" xmlns:xlink="http://www.w3.org/1999/xlink">
    <title>icon-upload</title>
    <g id="页面-1" stroke="none" stroke-width="1" fill="none" fill-rule="evenodd">
        <g id="zCloud-icon更新对照表" transform="translate(-1934.000000, -2105.000000)">
            <g id="icon-upload" transform="translate(1934.000000, 2105.000000)">
                <rect x="0" y="0" width="16" height="16"></rect>
                <path d="M14.7042591,6.72742545 C14.0627874,6.10247795 13.2357528,5.68752625 12.339932,5.53800924 C11.9736053,3.49349013 10.1419716,2 7.99840032,2 C5.85482903,2 4.02319536,3.49349013 3.65846831,5.53800924 C2.76104779,5.68752625 1.93561288,6.10247795 1.29414117,6.72742545 C0.459108178,7.53380932 0,8.60226795 0,9.73624528 C0,10.8719026 0.459108178,11.9403612 1.29254149,12.748425 C2.12597481,13.5564889 3.23135373,14 4.40391922,14 L8.08318336,14 C8.5294941,14 8.89262148,13.648887 8.89262148,13.2171357 L8.89262148,10.2351953 L9.54529094,10.8685426 C9.86202759,11.1742965 10.3739252,11.1742965 10.6890622,10.8685426 C11.0041992,10.5627887 11.0041992,10.0671987 10.6890622,9.76144477 L8.65426915,7.79252415 L8.65266947,7.79084418 C8.64307139,7.78244435 8.63507299,7.77404452 8.62547491,7.76564469 L8.61107778,7.75220496 L8.59668066,7.74044519 L8.5774845,7.72532549 L8.56628674,7.71692566 C8.55988802,7.71188576 8.55188962,7.70684586 8.5454909,7.70180596 L8.53429314,7.69340613 C8.52629474,7.68836623 8.51989602,7.6850063 8.51189762,7.6799664 C8.50869826,7.67660647 8.50389922,7.6749265 8.50069986,7.67156657 C8.49270146,7.66652667 8.48630274,7.66316674 8.47830434,7.6598068 L8.4655069,7.65308694 C8.4575085,7.64972701 8.45110978,7.64636707 8.44471106,7.64300714 L8.43031394,7.63628727 L8.41111778,7.62788744 L8.3935213,7.62116758 L8.37592482,7.61276774 C8.36952609,7.60940781 8.36312737,7.60772785 8.35672865,7.60604788 C8.35192961,7.60436791 8.34713057,7.60268795 8.34073185,7.60100798 L8.31833633,7.59428811 L8.30553889,7.59092818 L8.28154369,7.58420832 L8.26874625,7.58252835 L8.24315137,7.57580848 L8.23035393,7.57412852 C8.22235553,7.57244855 8.21275745,7.57076858 8.20475905,7.56908862 L8.19036193,7.56740865 C8.18236353,7.56572869 8.17436513,7.56404872 8.16636673,7.56404872 C8.15836833,7.56404872 8.15356929,7.56404872 8.14717057,7.56236875 C8.14077185,7.56236875 8.13437313,7.56068879 8.12797441,7.56068879 C8.11517696,7.56068879 8.1039792,7.56068879 8.09278144,7.55900882 L8.08638272,7.55900882 C8.07358528,7.55900882 8.06238752,7.55900882 8.05118976,7.56068879 C8.04479104,7.56068879 8.03839232,7.56236875 8.03039392,7.56236875 C8.0239952,7.56404872 8.01759648,7.56236875 8.01119776,7.56404872 C8.00479904,7.56572869 7.99520096,7.56572869 7.98720256,7.56740865 L7.97280544,7.56908862 C7.96480704,7.57076858 7.95520896,7.57076858 7.94721056,7.57412852 L7.93441312,7.57580848 L7.90881824,7.58252835 L7.8960208,7.58420832 L7.87042591,7.59092818 C7.86562687,7.59260815 7.86082783,7.59260815 7.85602879,7.59428811 L7.83363327,7.60100798 L7.81923615,7.60604788 L7.79844031,7.61276774 L7.78084383,7.62116758 C7.77444511,7.62284754 7.76964607,7.62620748 7.76324735,7.62788744 L7.74405119,7.63628727 L7.72965407,7.64300714 L7.70885823,7.65308694 L7.69606079,7.6598068 C7.68806239,7.6648467 7.68166367,7.66820664 7.67366527,7.67156657 C7.67046591,7.6749265 7.66566687,7.67660647 7.66246751,7.6799664 C7.65446911,7.68332633 7.64807039,7.68836623 7.64007199,7.69340613 C7.63687263,7.6950861 7.63207359,7.69844603 7.62887423,7.70180596 C7.6224755,7.70684586 7.6144771,7.71188576 7.60807838,7.71692566 L7.59688062,7.72532549 L7.57768446,7.74044519 L7.56168766,7.75388492 C7.55688862,7.75892482 7.55208958,7.76228475 7.54729054,7.76564469 C7.53769246,7.77404452 7.52969406,7.78244435 7.52009598,7.79084418 L7.5184963,7.79252415 L7.51689662,7.79252415 C7.50889822,7.80260395 7.49930014,7.80932381 7.49130174,7.81940361 L7.4785043,7.83452331 C7.47370526,7.83788324 7.4705059,7.84460311 7.46570686,7.84964301 L7.45930814,7.85804284 L5.47730454,9.76816464 C5.16216757,10.0739185 5.16216757,10.5695086 5.47730454,10.8752625 C5.79404119,11.1793364 6.30593881,11.1793364 6.62107578,10.8752625 L7.27374525,10.2419152 L7.27374525,12.4342713 L4.40391922,12.4342713 C2.86822635,12.4342713 1.61727654,11.2246955 1.61727654,9.73792524 C1.61727654,8.25283494 2.86662667,7.04157917 4.40391922,7.04157917 L5.21335733,7.04157917 L5.21335733,6.25871483 C5.21335733,4.77194456 6.46270746,3.56236875 8,3.56236875 C9.53569286,3.56236875 10.7866427,4.77194456 10.7866427,6.25871483 L10.7866427,7.04157917 L11.5960808,7.04157917 C13.1317736,7.04157917 14.3811238,8.25115498 14.3811238,9.73792524 C14.3811238,11.2246955 13.1317736,12.4342713 11.5960808,12.4342713 C11.14977,12.4342713 10.7866427,12.7837043 10.7866427,13.2171357 C10.7866427,13.648887 11.1481704,14 11.5960808,14 C12.7686463,14 13.8724255,13.5548089 14.7074585,12.748425 C15.5408918,11.9420412 16,10.8735825 16,9.73792524 C15.9968006,8.60226795 15.5376925,7.53380932 14.7042591,6.72742545 Z" fill="#000000" fill-rule="nonzero"></path>
            </g>
        </g>
    </g>
</svg>