<?xml version="1.0" encoding="UTF-8"?>
<svg width="16px" height="16px" viewBox="0 0 16 16" version="1.1" xmlns="http://www.w3.org/2000/svg" xmlns:xlink="http://www.w3.org/1999/xlink">
    <title>icon-copy</title>
    <g id="页面-1" stroke="none" stroke-width="1" fill="none" fill-rule="evenodd">
        <g id="zCloud-icon更新对照表" transform="translate(-1934.000000, -855.000000)">
            <g id="icon-copy" transform="translate(1934.000000, 855.000000)">
                <polygon id="Fill-2" points="0 16 15.9997381 16 15.9997381 0.000261856179 0 0.000261856179"></polygon>
                <path d="M11.9078851,0.00034185487 C12.0806823,-0.00525805348 12.2558794,0.0579409122 12.3878773,0.189938752 L12.3878773,0.189938752 L15.4342274,3.23548891 C15.5702252,3.37148668 15.6326242,3.55228372 15.6238243,3.72908083 L15.6238243,3.72908083 L15.6254243,12.6185353 C15.6254243,13.3361236 15.0414338,13.920914 14.3230456,13.920914 L14.3230456,13.920914 L11.7462878,13.920914 L11.7462878,14.6977013 C11.7462878,15.4160896 11.1630973,16.00008 10.4447091,16.00008 L10.4447091,16.00008 L1.67685256,16.00008 C0.958464314,16.00008 0.374473871,15.4160896 0.374473871,14.6977013 L0.374473871,14.6977013 L0.374473871,3.38428647 C0.374473871,2.66589823 0.958464314,2.08190779 1.67685256,2.08190779 L1.67685256,2.08190779 L4.2528104,2.08190779 L4.2528104,1.30272054 C4.2528104,0.585132284 4.83680084,0.00034185487 5.55518908,0.00034185487 L5.55518908,0.00034185487 Z M4.2528104,3.5106844 L1.80405047,3.5106844 L1.80405047,14.5729034 L10.3175111,14.5729034 L10.3175111,13.920914 L5.55518908,13.920914 C4.83680084,13.920914 4.2528104,13.3361236 4.2528104,12.6185353 L4.2528104,12.6185353 L4.2528104,3.5106844 Z M10.7199046,1.42991846 L5.68158701,1.42991846 L5.68158701,12.4913374 L14.1942477,12.4913374 L14.1942477,4.7754637 L11.9198849,4.7754637 C11.2590957,4.7754637 10.7199046,4.2378725 10.7199046,3.57468336 L10.7199046,3.57468336 L10.7199046,1.42991846 Z M12.2130001,9.12035259 C12.6001938,9.12035259 12.9185886,9.4379474 12.9185886,9.82594105 C12.9185886,10.2139347 12.6001938,10.5315295 12.2130001,10.5315295 L12.2130001,10.5315295 L7.66347458,10.5315295 C7.27548093,10.5315295 6.95788613,10.2139347 6.95788613,9.82594105 C6.95788613,9.4379474 7.27548093,9.12035259 7.66347458,9.12035259 L7.66347458,9.12035259 Z M12.2130001,6.72679177 C12.6001938,6.72679177 12.9185886,7.04438657 12.9185886,7.43238022 C12.9185886,7.82037387 12.6001938,8.13796867 12.2130001,8.13796867 L12.2130001,8.13796867 L7.66347458,8.13796867 C7.27548093,8.13796867 6.95788613,7.82037387 6.95788613,7.43238022 C6.95788613,7.04438657 7.27548093,6.72679177 7.66347458,6.72679177 L7.66347458,6.72679177 Z M11.9382846,1.57311611 L11.9382846,3.55788363 L13.9230521,3.55788363 L11.9382846,1.57311611 Z" id="形状结合" fill="#000000"></path>
            </g>
        </g>
    </g>
</svg>