<?xml version="1.0" encoding="UTF-8"?>
<svg width="16px" height="16px" viewBox="0 0 16 16" version="1.1" xmlns="http://www.w3.org/2000/svg" xmlns:xlink="http://www.w3.org/1999/xlink">
    <title>icon-edit</title>
    <g id="页面-1" stroke="none" stroke-width="1" fill="none" fill-rule="evenodd">
        <g id="zCloud-icon更新对照表" transform="translate(-1934.000000, -1155.000000)" fill="#000000" fill-rule="nonzero">
            <g id="icon-edit" transform="translate(1934.000000, 1155.000000)">
                <rect id="矩形" opacity="0" x="0" y="0" width="16" height="16"></rect>
                <path d="M13.1008,6.644 L9.2944,2.836 L10.7328,1.3984 L14.5376,5.2064 L13.1008,6.644 Z M5.2248,14.5248 L1.4144,10.7152 L1.42,10.7168 L8.3192,3.8128 L12.1264,7.6192 L5.224,14.5248 L5.2248,14.5248 Z M1.4008,14.5456 L1.4008,12.652 L3.2912,14.5416 L1.4016,14.5456 L1.4008,14.5456 Z M15.5184,4.2328 L11.7088,0.424 C11.4538616,0.15907888 11.0995662,0.0131242528 10.732,0.0216 C10.3666917,0.0228064258 10.0168022,0.168977391 9.7592,0.428 L0.444,9.7416 C0.137638089,10.0495053 -0.00556678662,10.4838638 0.0576,10.9136 C0.0416,10.9712 0.0208,11.028 0.0208,11.0912 L0.0208,14.5456 C0.0208,15.3032 0.6368,15.9184 1.3936,15.9184 L4.8496,15.9184 C4.9112,15.9184 4.968,15.8984 5.0256,15.8832 C5.0896,15.8912 5.1536,15.9008 5.2184,15.9008 C5.5728,15.9008 5.928,15.7656 6.1984,15.4952 L15.512,6.1816 C16.0508183,5.64450683 16.052966,4.77254091 15.5168,4.2328 L15.5184,4.2328 Z" id="形状"></path>
            </g>
        </g>
    </g>
</svg>