<?xml version="1.0" encoding="UTF-8"?>
<svg width="16px" height="16px" viewBox="0 0 16 16" version="1.1" xmlns="http://www.w3.org/2000/svg" xmlns:xlink="http://www.w3.org/1999/xlink">
    <title>icon-serious</title>
    <g id="恩墨图标库" stroke="none" stroke-width="1" fill="none" fill-rule="evenodd">
        <g id="zCloud-icon更新对照表" transform="translate(-1934.000000, -505.000000)" fill="#000000" fill-rule="nonzero">
            <g id="icon-serious" transform="translate(1934.000000, 505.000000)">
                <rect id="矩形" opacity="0" x="0" y="0" width="16" height="16"></rect>
                <path d="M8,1.12 C8.96,1.12 9.84,1.28 10.64,1.68 C11.44,2 12.16,2.56 12.8,3.12 C13.44,3.76 13.92,4.48 14.24,5.28 C14.56,6.16 14.8,7.04 14.8,7.92 C14.8,8.8 14.64,9.76 14.24,10.56 C13.92,11.36 13.36,12.08 12.8,12.72 C12.16,13.36 11.44,13.84 10.64,14.16 C9.76,14.48 8.88,14.72 8,14.72 C7.12,14.72 6.16,14.56 5.36,14.16 C4.56,13.84 3.84,13.28 3.2,12.72 C2.56,12.08 2.08,11.36 1.76,10.56 C1.44,9.68 1.2,8.8 1.2,7.92 C1.2,7.04 1.36,6.08 1.76,5.28 C2.08,4.48 2.64,3.76 3.2,3.12 C3.84,2.48 4.56,2 5.36,1.68 C6.16,1.28 7.04,1.12 8,1.12 Z M8,0 C3.6,0 0,3.6 0,8 C0,12.4 3.6,16 8,16 C12.4,16 16,12.4 16,8 C16,3.6 12.4,0 8,0 Z M8,10 C7.68,10 7.36,9.76 7.36,9.36 L7.36,3.6 C7.36,3.28 7.6,2.96 8,2.96 C8.4,2.96 8.64,3.2 8.64,3.6 L8.64,9.36 C8.64,9.76 8.32,10 8,10 Z M7.28,11.68 C7.28,11.28 7.6,10.96 8,10.96 C8.4,10.96 8.72,11.28 8.72,11.68 C8.72,12.08 8.4,12.4 8,12.4 C7.6,12.4 7.28,12.08 7.28,11.68 Z" id="形状"></path>
            </g>
        </g>
    </g>
</svg>