<?xml version="1.0" encoding="UTF-8"?>
<svg width="16px" height="16px" viewBox="0 0 16 16" version="1.1" xmlns="http://www.w3.org/2000/svg" xmlns:xlink="http://www.w3.org/1999/xlink">
    <title>icon-export</title>
    <g id="恩墨图标库" stroke="none" stroke-width="1" fill="none" fill-rule="evenodd">
        <g id="zCloud-icon更新对照表" transform="translate(-1934.000000, -655.000000)">
            <g id="icon-export" transform="translate(1934.000000, 655.000000)">
                <polygon id="Fill-2" points="0 16 16 16 16 0 0 0"></polygon>
                <path d="M11.0448412,0.0005 L11.0719412,0.004 C11.2463412,0.0256 11.3975412,0.104 11.5103412,0.2264 L11.5103412,0.2264 L15.2207412,4.0816 C15.3415412,4.204 15.4175412,4.3672 15.4335412,4.5392 L15.4335412,4.5392 L15.4359412,4.6792 L15.4359412,15.256 C15.4359412,15.4528 15.3623412,15.6384 15.2271412,15.78 C15.0951412,15.92 14.9079412,16 14.7159412,16 L14.7159412,16 L8.66154117,16 C8.25674117,15.992 7.93514117,15.6576 7.94154117,15.2536 C7.93514117,14.8536 8.25754117,14.5192 8.66074117,14.512 L8.66074117,14.512 L13.9967412,14.512 L13.9967412,5.3568 L10.9895412,5.3568 C10.7983412,5.3568 10.6119412,5.276 10.4783412,5.1376 C10.3431412,4.9952 10.2695412,4.8088 10.2703412,4.6128 L10.2703412,4.6128 L10.2703412,1.4872 L3.32634117,1.4872 L3.32634117,7.5168 C3.33354117,7.9184 3.01114117,8.2528 2.60794117,8.2608 C2.20154117,8.2528 1.87834117,7.9184 1.88542318,7.5152 L1.88542318,7.5152 L1.88542318,0.7432 C1.88542318,0.5464 1.95994117,0.36 2.09354117,0.2192 C2.22714117,0.0792 2.41434117,0 2.60634117,0 L2.60634117,0 L11.0448412,0.0005 L11.0448412,0.0005 Z M5.67930117,7.60576 C5.92810117,7.53536 6.19770117,7.60976 6.37850117,7.79856 L6.37850117,7.79856 L8.87850117,10.39536 C9.15290117,10.68016 9.15210117,11.12576 8.87770117,11.40976 L8.87770117,11.40976 L6.37690117,14.00656 C6.24810117,14.14256 6.07290117,14.22096 5.88570117,14.22576 L5.88570117,14.22576 L5.86570117,14.22576 C5.68570117,14.22576 5.51530117,14.15776 5.38330117,14.03296 C5.37290117,14.02336 5.36330117,14.01456 5.35530117,14.00496 C5.07850117,13.71216 5.07850117,13.25216 5.35690117,12.95856 L5.35690117,12.95856 L6.62010117,11.64576 L1.52250117,11.64576 C1.32490117,11.64256 1.14170117,11.56256 1.00570117,11.42176 C0.869701172,11.28176 0.796901172,11.09616 0.800101172,10.90016 C0.793701172,10.50016 1.11610117,10.16576 1.52010117,10.15856 L1.52010117,10.15856 L6.62010117,10.15856 L5.35770117,8.84736 C5.17450117,8.65536 5.10490117,8.38816 5.17130117,8.13136 C5.23450117,7.87936 5.42890117,7.67776 5.67930117,7.60576 Z M11.7095412,2.5464 L11.7095412,3.8704 L12.9855412,3.8704 L11.7095412,2.5464 Z" id="形状结合" fill="#000000"></path>
            </g>
        </g>
    </g>
</svg>