<?xml version="1.0" encoding="UTF-8"?>
<svg width="16px" height="16px" viewBox="0 0 16 16" version="1.1" xmlns="http://www.w3.org/2000/svg" xmlns:xlink="http://www.w3.org/1999/xlink">
    <title>icon-expand</title>
    <g id="恩墨图标库" stroke="none" stroke-width="1" fill="none" fill-rule="evenodd">
        <g id="zCloud-icon更新对照表" transform="translate(-397.000000, -1505.000000)" fill="#000000" fill-rule="nonzero">
            <g id="icon-expand" transform="translate(405.000000, 1513.000000) scale(-1, 1) translate(-405.000000, -1513.000000) translate(397.000000, 1505.000000)">
                <rect id="矩形" opacity="0" x="0" y="0" width="16" height="16"></rect>
                <path d="M7.728,0 C9.8096,0 11.7624,0.8456 13.2256,2.3792 C13.4709134,2.63878785 13.4645243,3.04662371 13.2112,3.2984 C12.9601765,3.54566262 12.5562912,3.54279819 12.3088,3.292 C11.0808,2.0064 9.4576,1.304 7.728,1.304 C6.008,1.304 4.392,1.9992 3.176,3.2624 C1.9584,4.5272 1.288,6.2096 1.288,8 C1.288,11.6928 4.1768,14.6968 7.728,14.6968 C9.5184,14.6968 11.2416,13.9128 12.4576,12.5464 C12.6916605,12.2828717 13.0947394,12.2581934 13.3592,12.4912 C13.6284349,12.7327722 13.6527108,13.1461768 13.4136,13.4176 C11.9544,15.0592 9.8808,16 7.728,16 C3.4656,16 0,12.4112 0,8 C0,3.5888 3.4672,0 7.728,0 Z M9.1728,4.5696 C9.44646518,4.31103639 9.87542779,4.31456694 10.1448,4.5776 C10.4113907,4.84022283 10.415681,5.26889405 10.1544,5.5368 L10.1232,5.5664 L8.548,7.116 L15.3032,7.116 C15.6872,7.116 16.0000022,7.4456 16.0000022,7.8512 C16.0004656,8.04360622 15.9281648,8.22907344 15.7976,8.3704 C15.6702071,8.5082995 15.490937,8.58662138 15.3032,8.5864 L8.2888,8.5864 L10.1528,10.4184 C10.2797112,10.5457399 10.3503052,10.7186234 10.3488,10.8984 C10.3486401,11.0781654 10.2766318,11.2504091 10.1488,11.3768 C9.88108631,11.6445899 9.44862731,11.6499157 9.1744,11.3888 L6.1984,8.4632 C5.93163902,8.20184682 5.92662992,7.77392596 6.1872,7.5064 L9.1728,4.5696 Z" id="形状"></path>
            </g>
        </g>
    </g>
</svg>