<?xml version="1.0" encoding="UTF-8"?>
<svg width="16px" height="16px" viewBox="0 0 16 16" version="1.1" xmlns="http://www.w3.org/2000/svg" xmlns:xlink="http://www.w3.org/1999/xlink">
    <title>icon-phone</title>
    <g id="页面-1" stroke="none" stroke-width="1" fill="none" fill-rule="evenodd">
        <g id="zCloud-icon更新对照表" transform="translate(-1934.000000, -1055.000000)">
            <g id="icon-phone" transform="translate(1934.000000, 1055.000000)">
                <rect x="0" y="0" width="16" height="16"></rect>
                <path d="M6.1077602,4.76480771 C6.71767477,4.19386313 6.7939141,3.3017329 6.22211918,2.65940559 L4.46856783,0.589687508 C3.89675726,-0.088323841 2.82937545,-0.19537595 2.10511755,0.339899253 C2.06698223,0.411267325 1.99074291,0.411267325 1.99074291,0.446951362 L0.46592517,1.87431283 C-0.982653251,3.23035018 1.0758554,6.9415486 4.84978009,10.4743415 C8.62370478,14.0071344 12.5119884,15.8984469 13.9605668,14.5781229 L15.4853846,13.1507322 C16.1715385,12.5084195 16.1715385,11.5092372 15.4853846,10.938278 L15.3710257,10.8312258 L13.1600383,9.18973082 C12.4738688,8.65445565 11.520846,8.72582373 10.9109314,9.29678295 L9.95790856,10.1888985 C8.92866203,9.61795395 8.05189425,8.97561195 7.25136568,8.22623252 C6.48894116,7.51255177 5.84090693,6.69178965 5.19285704,5.72830601 L6.10774455,4.76482237 L6.1077602,4.76480771 Z M5.30723167,3.37310098 C5.45971032,3.5872052 5.45971032,3.90837618 5.26911201,4.05111233 L4.01113189,5.26439888 C3.82053359,5.44281906 3.78241393,5.69260732 3.89677291,5.90671154 C4.5448228,7.04861536 5.38347099,8.08348173 6.37459783,9.01129599 C7.36574032,9.93909562 8.47122612,10.7241591 9.69108661,11.3308023 C9.91980452,11.4378545 10.1866578,11.4021704 10.3772405,11.2237356 L11.673356,10.0104783 C11.9020739,9.79637408 12.1689115,9.79637408 12.3976452,9.97477966 L14.6086324,11.6519586 C14.6086324,11.6519586 14.6467521,11.6519586 14.6467521,11.6876427 C14.87547,11.8660629 14.87547,12.1872192 14.6848718,12.4013381 L14.6467521,12.4370221 L13.1219344,13.8644129 C12.3976452,14.5424243 8.89055807,12.7938918 5.57408495,9.76067541 C2.29568454,6.69176034 0.46589386,3.37308633 1.22830273,2.65939094 L2.79124013,1.19631613 C3.0199581,1.05357998 3.40117036,1.05357998 3.59178432,1.30336824 L5.30720036,3.37308633 L5.30723167,3.37310098 Z" fill="#000000" fill-rule="nonzero"></path>
            </g>
        </g>
    </g>
</svg>