<?xml version="1.0" encoding="UTF-8"?>
<svg width="16px" height="16px" viewBox="0 0 16 16" version="1.1" xmlns="http://www.w3.org/2000/svg" xmlns:xlink="http://www.w3.org/1999/xlink">
    <title>icon-db2-fill</title>
    <g id="恩墨图标库" stroke="none" stroke-width="1" fill="none" fill-rule="evenodd">
        <g id="zCloud-icon更新对照表" transform="translate(-1131.000000, -505.000000)" fill="#000000" fill-rule="nonzero">
            <g id="icon-db2-fill" transform="translate(1131.000000, 505.000000)">
                <rect opacity="0" x="0" y="0" width="16" height="16"></rect>
                <path d="M7.62683577,7.51381299 L7.18073202,7.51381299 L7.18073202,6.33856037 L7.69575109,6.33856037 C8.34613959,6.33856037 8.41567023,6.67083074 8.41567025,6.83696593 C8.4399535,7.03770213 8.3459374,7.23436846 8.17446656,7.34152465 C8.03826472,7.49647631 7.82722079,7.56287215 7.62683577,7.51381299 Z M8.58795859,9.05825492 C8.61224184,9.25899112 8.51822575,9.45565744 8.34675491,9.56281363 C8.19284201,9.73757566 7.96257101,9.82507864 7.73143941,9.79663352 L7.18319328,9.79663352 L7.18319328,8.38756101 L7.69575109,8.38756101 C8.58795858,8.38756101 8.62487752,8.75675032 8.58795859,9.05825492 L8.58795859,9.05825492 Z M13.8292161,3.3173612 L8.30552877,0.197711572 C8.01005237,0.0641992344 7.68892929,-0.00300769187 7.36471136,0.000810603047 C7.05304359,-0.00828806452 6.74391382,0.0593274715 6.46450477,0.197711572 L0.941432734,3.3173612 C0.403109346,3.66499534 0.0556230464,4.24186802 -8.52651283e-14,4.8802626 L-8.52651283e-14,11.1195619 C0.0542586636,11.7567706 0.402315849,12.3323161 0.941432734,12.6763101 L6.42389394,15.7959598 C6.7178739,15.9346159 7.03971273,16.0040776 7.36471136,15.9990139 C7.67720212,16.0093712 7.9871324,15.9394622 8.26491795,15.7959598 L13.78799,12.6763101 C14.3271069,12.3323161 14.675164,11.7567706 14.7294227,11.1195619 L14.7718795,4.8802626 C14.7160658,4.2416136 14.3680768,3.66466059 13.8292161,3.3173612 Z M4.97913312,9.83355246 C4.46967313,10.3097439 3.78517179,10.5526962 3.08949919,10.5042464 L1.64535369,10.5042464 L1.64535369,5.56326282 L3.15902984,5.56326282 C3.82799125,5.55135955 4.48170077,5.76363103 5.01605205,6.16627202 C5.51574401,6.60443224 5.78223644,7.25075033 5.73658652,7.91376807 C5.75870137,8.63060468 5.48475278,9.32493418 4.97913312,9.83355246 L4.97913312,9.83355246 Z M9.07098127,10.0673724 C8.74691895,10.349557 8.33158437,10.504761 7.9018818,10.5042476 L6.32236687,10.5042476 L6.32236687,5.56326282 L7.83235114,5.56326282 C8.21820169,5.53700134 8.5996701,5.65792792 8.89992356,5.90168635 C9.17171683,6.1250597 9.33424124,6.45459196 9.3460273,6.80620015 C9.34952078,7.07962257 9.25202485,7.34472385 9.07221189,7.55073192 L8.72825053,7.88300229 C8.92227379,7.95779105 9.09807672,8.07317484 9.24388492,8.22142582 C9.46289699,8.44504314 9.58607169,8.74525388 9.58723098,9.05825492 C9.57371819,9.45464667 9.38452178,9.82447039 9.07098127,10.0673724 Z M13.0557645,9.72894882 L13.0557645,10.5042464 L9.92996172,10.5042464 L9.92996172,9.83355246 L11.3371883,8.41832679 C11.597627,8.15643813 11.8396148,7.87682607 12.0614147,7.5814977 C12.1519538,7.40232776 12.2102718,7.20862876 12.233703,7.00925427 C12.2331435,6.80581086 12.1732701,6.6069458 12.0614147,6.43701084 C11.899727,6.32303033 11.7053592,6.26471996 11.5076307,6.27087565 C11.0817618,6.29785019 10.6797524,6.47690923 10.3748348,6.77543437 L10.1336312,7.00925427 L10.1336312,6.00013684 L10.2031618,5.93860527 C10.5964329,5.61291706 11.1014683,5.45392035 11.6103884,5.49557812 C12.0110162,5.45005607 12.4088781,5.6014041 12.6779608,5.90168635 C12.9663915,6.15713851 13.129256,6.52554913 13.1240645,6.91080379 C13.1174417,7.23170933 13.0227179,7.5446171 12.8502491,7.81531759 C12.6779608,8.08605642 12.3346147,8.41832679 11.9537344,8.95980443 L11.1316729,9.76586776 L13.0557645,9.72894882 Z M3.08765323,6.40624507 L2.53940712,6.40624507 L2.53940712,9.79663352 L3.08765323,9.79663352 C3.56146781,9.81550191 4.02576989,9.66007783 4.39273744,9.35975952 C4.74529261,9.01753897 4.93301488,8.53982278 4.90775652,8.04913748 C4.94730062,7.57589966 4.75540379,7.11277947 4.39273744,6.80620015 C4.02294358,6.5159011 3.55847632,6.37335922 3.08949919,6.40624507 L3.08765323,6.40624507 Z"></path>
            </g>
        </g>
    </g>
</svg>