<?xml version="1.0" encoding="UTF-8"?>
<svg width="16px" height="16px" viewBox="0 0 16 16" version="1.1" xmlns="http://www.w3.org/2000/svg" xmlns:xlink="http://www.w3.org/1999/xlink">
    <title>icon-setting-fill</title>
    <g id="页面-1" stroke="none" stroke-width="1" fill="none" fill-rule="evenodd">
        <g id="zCloud-icon更新对照表" transform="translate(-1878.000000, -805.000000)" fill="#000000" fill-rule="nonzero">
            <g id="icon-setting-fill" transform="translate(1878.000000, 805.000000)">
                <rect id="矩形" opacity="0" x="0" y="0" width="16" height="16"></rect>
                <path d="M11.2792,7.7488 C11.277436,9.5772359 9.7956359,11.059036 7.9672,11.0608 C6.13938897,11.0581544 4.65856238,9.57661209 4.6568,7.7488 C4.65856405,5.92080593 6.14000593,4.43936405 7.968,4.4376 C9.79630611,4.43936472 11.277877,5.92129352 11.2792,7.7496 M15.6144,5.5768 C15.5307139,5.27545594 15.2463697,5.07474236 14.9344,5.0968 C14.4313977,5.13009642 13.9533507,4.87399984 13.7024,4.4368 C13.4493246,4.00123356 13.4663973,3.45956455 13.7464,3.0408 C13.9185838,2.78146252 13.8869562,2.43722152 13.6704,2.2136 C13.2640068,1.80332335 12.8141568,1.43850758 12.3288,1.1256 C11.5895133,0.630381127 10.7718742,0.263620115 9.9104,0.0408 C9.60811367,-0.0356511647 9.29347812,0.109334496 9.1552,0.3888 C8.93324848,0.840763313 8.47311969,1.1267138 7.9696,1.1256 L7.9656,1.1256 C7.46226016,1.12686343 7.00217766,0.841252161 6.78,0.3896 C6.64183138,0.110410186 6.32779964,-0.0347837065 6.0256,0.0408 C5.16376017,0.263680801 4.34582475,0.630723909 3.6064,1.1264 C3.1209111,1.43881906 2.67103781,1.80338543 2.2648,2.2136 C2.04756908,2.43715049 2.01559148,2.78190904 2.188,3.0416 C2.468,3.46 2.4856,4.0016 2.232,4.4376 C2.04216921,4.76748965 1.71843689,4.99868532 1.3448,5.0712 C1.232,5.0952 1.116,5.104 1.0008,5.0976 C0.68820495,5.07328509 0.402568586,5.27491076 0.3208,5.5776 C0.120775994,6.28395679 0.019811725,7.01466885 0.0207928148,7.7488 C0.0207928148,8.4864 0.1216,9.2168 0.3216,9.9192 C0.4056,10.22 0.6896,10.42 1,10.3992 C1.11562254,10.3935554 1.23149266,10.402696 1.3448,10.4264 C1.77828191,10.5113172 2.14055755,10.8074308 2.31002775,11.2153491 C2.47949795,11.6232674 2.43369769,12.0889167 2.188,12.456 C2.01559148,12.715691 2.04756908,13.0604495 2.2648,13.284 C2.67134919,13.6938704 3.12118326,14.058405 3.6064,14.3712 C4.34551082,14.8672591 5.16356041,15.2340829 6.0256,15.456 C6.32785988,15.5322261 6.64228174,15.3868518 6.78,15.1072 C7.0025575,14.6547678 7.46379567,14.3690175 7.968,14.3712 C8.4752,14.3712 8.9296,14.6536 9.1552,15.108 C9.2936,15.388 9.608,15.532 9.9104,15.4568 C10.7721301,15.2347098 11.5898882,14.8678953 12.3288,14.372 C12.8142914,14.0592782 13.2641608,13.6944467 13.6704,13.284 C13.8864,13.06 13.9184,12.716 13.7464,12.4568 C13.4662694,12.0380021 13.4495005,11.4961176 13.7032,11.0608 C13.8923515,10.7298492 14.2162382,10.4976671 14.5904,10.4248 C14.7032,10.4016 14.8192,10.3936 14.9344,10.4008 C15.2458062,10.4199527 15.5286361,10.2199753 15.6144,9.92 C15.8140402,9.21356281 15.914997,8.48290446 15.9144026,7.7488 C15.9144026,7.0112 15.8136,6.2808 15.6144,5.5776" id="形状"></path>
            </g>
        </g>
    </g>
</svg>