<?xml version="1.0" encoding="UTF-8"?>
<svg width="16px" height="16px" viewBox="0 0 16 16" version="1.1" xmlns="http://www.w3.org/2000/svg" xmlns:xlink="http://www.w3.org/1999/xlink">
    <title>icon-download-fill</title>
    <g id="页面-1" stroke="none" stroke-width="1" fill="none" fill-rule="evenodd">
        <g id="zCloud-icon更新对照表" transform="translate(-1878.000000, -2205.000000)">
            <g id="icon-download-fill" transform="translate(1878.000000, 2205.000000)">
                <path d="M15.9675952,11.4156095 L15.9675952,14.4781003 C15.9675952,14.7443835 15.8677507,14.9440723 15.7014999,15.1438551 C15.5351551,15.3102938 15.30231,15.4101382 15.0361208,15.4101382 L0.931474366,15.4101382 C0.665285167,15.4101382 0.465690222,15.3102938 0.266095276,15.1438551 C0.0998444268,14.9774164 0,14.7443835 0,14.4781003 L0,11.4156095 C0,11.1493264 0.0998444268,10.9495436 0.266095276,10.7498547 C0.432440049,10.583416 0.665285153,10.4835716 0.931474366,10.4835716 L5.38906338,10.4835716 L6.68638351,11.7817371 C7.05232323,12.1479586 7.48476326,12.3143033 7.98379758,12.3143033 C8.4828319,12.3143033 8.91527195,12.1479586 9.28121166,11.7817371 L10.5785318,10.4835716 L15.0361208,10.4835716 C15.30231,10.4835716 15.501905,10.583416 15.7014999,10.7498547 C15.8677507,10.9162934 15.9675952,11.1493264 15.9675952,11.4156095 L15.9675952,11.4156095 Z M12.8405765,5.92303854 C12.9404209,6.1894156 12.9071708,6.42244856 12.7075758,6.58888726 L8.41623763,10.9162934 C8.31648713,11.0161378 8.15014235,11.0827321 7.98379758,11.0827321 C7.81754673,11.0827321 7.65110804,11.0161378 7.55135755,10.9162934 L3.26001937,6.62213743 C3.06042442,6.42244856 3.02717427,6.22266577 3.12701869,5.95638263 C3.2267692,5.72344359 3.42636414,5.59016115 3.69245942,5.59016115 L6.15419296,5.59016115 L6.15419296,1.26284892 C6.15419296,1.09641022 6.22069329,0.963221688 6.32044381,0.830127088 C6.45363233,0.696844643 6.58672693,0.66359447 6.7530717,0.66359447 L9.21471132,0.66359447 C9.38105609,0.66359447 9.51415069,0.730188738 9.64715137,0.830033165 C9.78024597,0.963221688 9.81349614,1.0963163 9.81349614,1.262755 L9.81349614,5.55691097 L12.2752297,5.55691097 C12.541325,5.55691097 12.7409199,5.6900995 12.8406704,5.92303854 L12.8405765,5.92303854 Z M12.108791,13.9787842 C12.2417917,13.8455957 12.2750418,13.7125011 12.2750418,13.5459685 C12.2750418,13.3795298 12.2085415,13.2463412 12.108791,13.1132466 C11.9756964,12.980152 11.8426018,12.9468079 11.676257,12.9468079 C11.5100062,12.9468079 11.3769116,13.0134961 11.243817,13.1132466 C11.1108163,13.2464352 11.0775661,13.3795298 11.0775661,13.5459685 C11.0775661,13.7125011 11.1440664,13.8455957 11.243817,13.9787842 C11.3769116,14.1118788 11.5100062,14.1452229 11.6763509,14.1452229 C11.8426018,14.1784731 11.9756964,14.1118788 12.108791,13.9787842 L12.108791,13.9787842 Z M14.5704306,13.9787842 C14.7035252,13.8455957 14.7366814,13.7125011 14.7366814,13.5459685 C14.7366814,13.3795298 14.6701811,13.2463412 14.5704306,13.1132466 C14.437336,12.980152 14.3043353,12.9468079 14.1379906,12.9468079 C13.9716458,12.9468079 13.8385512,13.0134961 13.7055505,13.1132466 C13.5724559,13.2464352 13.5392057,13.3795298 13.5392057,13.5459685 C13.5392057,13.7125011 13.6057061,13.8455957 13.7054566,13.9787842 C13.8385512,14.1118788 13.9716458,14.1452229 14.1379906,14.1452229 C14.3042414,14.1784731 14.437336,14.1118788 14.5704306,13.9787842 L14.5704306,13.9787842 Z" fill="#000000" fill-rule="nonzero"></path>
            </g>
        </g>
    </g>
</svg>