<?xml version="1.0" encoding="UTF-8"?>
<svg width="16px" height="16px" viewBox="0 0 16 16" version="1.1" xmlns="http://www.w3.org/2000/svg" xmlns:xlink="http://www.w3.org/1999/xlink">
    <title>icon-doubt-fill</title>
    <g id="恩墨图标库" stroke="none" stroke-width="1" fill="none" fill-rule="evenodd">
        <g id="zCloud-icon更新对照表" transform="translate(-1878.000000, -555.000000)" fill="#000000" fill-rule="nonzero">
            <g id="icon-doubt-fill" transform="translate(1878.000000, 555.000000)">
                <rect opacity="0" x="0" y="0" width="16" height="16"></rect>
                <path d="M8.6664,9.452 L8.6664,9.7744 C8.6664,10.1424426 8.36804256,10.4408 8,10.4408 C7.63195744,10.4408 7.3336,10.1424426 7.3336,9.7744 L7.3336,9 C7.3336,8.6904 7.548,8.4424 7.8336,8.3664 C9.3344,7.74 9.3344,6.8104 9.3336,6.7704 L9.3328,5.7464 C9.3328,5.1512 8.7344,4.6664 7.9992,4.6664 C7.2648,4.6664 6.6664,5.1512 6.6664,5.7464 L6.6664,6.0704 C6.6664,6.43844256 6.36804256,6.7368 6,6.7368 C5.63195744,6.7368 5.3336,6.43844256 5.3336,6.0704 L5.3336,5.7464 C5.3336,4.416 6.5296,3.3328 7.9992,3.3328 C9.4696,3.3328 10.6656,4.416 10.6656,5.7456 L10.6656,6.7376 C10.6696,6.764 10.7632,8.42 8.6664,9.452 M8,12.6664 C7.63195744,12.6664 7.3336,12.3680426 7.3336,12 C7.3336,11.6319574 7.63195744,11.3336 8,11.3336 C8.36804256,11.3336 8.6664,11.6319574 8.6664,12 C8.6664,12.3680426 8.36804256,12.6664 8,12.6664 M8,0 C3.5888,0 0,3.5896 0,8 C0,12.4112 3.5888,16 8,16 C12.4112,16 16,12.4112 16,8 C16,3.5896 12.4112,0 8,0"></path>
            </g>
        </g>
    </g>
</svg>