<?xml version="1.0" encoding="UTF-8"?>
<svg width="16px" height="16px" viewBox="0 0 16 16" version="1.1" xmlns="http://www.w3.org/2000/svg" xmlns:xlink="http://www.w3.org/1999/xlink">
    <title>icon-create-fill</title>
    <g id="页面-1" stroke="none" stroke-width="1" fill="none" fill-rule="evenodd">
        <g id="zCloud-icon更新对照表" transform="translate(-1878.000000, -905.000000)" fill="#000000" fill-rule="nonzero">
            <g id="icon-create-fill" transform="translate(1878.000000, 905.000000)">
                <rect opacity="0" x="0" y="0" width="16" height="16"></rect>
                <path d="M11.5824,8.4784 L8.6664,8.4784 L8.6664,11.3936 C8.6664,11.7616426 8.36804256,12.06 8,12.06 C7.63195744,12.06 7.3336,11.7616426 7.3336,11.3936 L7.3336,8.4776 L4.4176,8.4776 C4.04955744,8.4776 3.7512,8.17924256 3.7512,7.8112 C3.7512,7.44315744 4.04955744,7.1448 4.4176,7.1448 L7.3336,7.1448 L7.3336,4.2288 C7.3336,3.86075744 7.63195744,3.5624 8,3.5624 C8.36804256,3.5624 8.6664,3.86075744 8.6664,4.2288 L8.6664,7.144 L11.5824,7.144 C11.9506635,7.144 12.2492,7.44253653 12.2492,7.8108 C12.2492,8.17906347 11.9506635,8.4776 11.5824,8.4776 M8,0 C3.5888,0 0,3.5896 0,8 C0,12.4112 3.5888,16 8,16 C12.4112,16 16,12.4112 16,8 C16,3.5896 12.4112,0 8,0"></path>
            </g>
        </g>
    </g>
</svg>