<?xml version="1.0" encoding="UTF-8"?>
<svg width="16px" height="16px" viewBox="0 0 16 16" version="1.1" xmlns="http://www.w3.org/2000/svg" xmlns:xlink="http://www.w3.org/1999/xlink">
    <title>icon-prompt-fill</title>
    <g id="恩墨图标库" stroke="none" stroke-width="1" fill="none" fill-rule="evenodd">
        <g id="zCloud-icon更新对照表" transform="translate(-1878.000000, -355.000000)" fill-rule="nonzero">
            <g id="icon-prompt-fill" transform="translate(1878.000000, 355.000000)">
                <path d="M7.99959894,0 C12.4177069,0 16,3.58229308 16,7.99959894 C16,12.4177069 12.4177069,16 7.99959894,16 C3.58149095,16 0,12.4169048 0,7.99959894 C0,3.58229308 3.58229308,0 7.99959894,0 Z M7.99959894,6.66646614 C7.63177777,6.66690876 7.33383466,6.9652111 7.33383466,7.33303254 L7.33383466,11.9997995 C7.33383466,12.3679339 7.6322666,12.6663659 8.00040106,12.6663659 C8.36853552,12.6663659 8.66696746,12.3679339 8.66696746,11.9997995 L8.66696746,7.33303254 C8.66675485,7.1562481 8.59632354,6.98678876 8.47116764,6.86193371 C8.34601173,6.73707866 8.17638338,6.6670554 7.99959894,6.66726826 L7.99959894,6.66646614 Z M7.93302251,3.33363413 C7.59362596,3.3207256 7.2739901,3.49313947 7.09836902,3.78385219 C6.92274793,4.07456491 6.91884644,4.43771556 7.0881812,4.7321343 C7.25751595,5.02655303 7.57337382,5.20579429 7.91296937,5.20018048 C8.41863804,5.19182133 8.82572433,4.78237267 8.83115738,4.27666409 C8.83659044,3.77095551 8.43839488,3.35285534 7.93302251,3.33363413 L7.93302251,3.33363413 Z" id="形状" fill="#000000"></path>
            </g>
        </g>
    </g>
</svg>