<?xml version="1.0" encoding="UTF-8"?>
<svg width="16px" height="16px" viewBox="0 0 16 16" version="1.1" xmlns="http://www.w3.org/2000/svg" xmlns:xlink="http://www.w3.org/1999/xlink">
    <title>icon-head-menu-fill</title>
    <g id="恩墨图标库" stroke="none" stroke-width="1" fill="none" fill-rule="evenodd">
        <g id="zCloud-icon更新对照表" transform="translate(-1131.000000, -755.000000)" fill="#000000" fill-rule="nonzero">
            <g id="icon-head-menu-fill" transform="translate(1131.000000, 755.000000)">
                <rect id="矩形" opacity="0" x="0" y="0" width="16" height="16"></rect>
                <path d="M5.4816,0.8512 L1.368,0.8512 C0.612839968,0.852081682 0.000881682199,1.46403997 0,2.2192 L0,6.3328 C0.000881682199,7.08796003 0.612839968,7.69991832 1.368,7.7008 L5.4816,7.7008 C6.23676003,7.69991832 6.84871832,7.08796003 6.8496,6.3328 L6.8496,2.2192 C6.84871832,1.46403997 6.23676003,0.852081682 5.4816,0.8512 M15.52,3.308 L12.6112,0.4 C12.0766259,-0.133192967 11.2113741,-0.133192967 10.6768,0.4 L10.2736,0.8024 L7.768,3.308 C7.512,3.564 7.36798681,3.9104 7.36798681,4.2728 C7.3664,4.636 7.5104,4.9856 7.768,5.2424 L8.1704,5.6456 L10.2744,7.7496 L10.6768,8.1528 C11.2110093,8.68687448 12.0769907,8.68687448 12.6112,8.1528 L15.1168,5.6456 L15.52,5.2432 C16.0540745,4.70899071 16.0540745,3.84300929 15.52,3.3088 M5.4816,9.0704 L1.368,9.0704 C0.612839968,9.07128168 0.000881682199,9.68323997 0,10.4384 L0,14.552 C0.000881682199,15.30716 0.612839968,15.9191183 1.368,15.92 L5.4816,15.92 C6.23676003,15.9191183 6.84871832,15.30716 6.8496,14.552 L6.8496,10.4384 C6.84871832,9.68323997 6.23676003,9.07128168 5.4816,9.0704 M13.7008,9.0704 L9.5872,9.0704 C8.83203997,9.07128168 8.22008168,9.68323997 8.2192,10.4384 L8.2192,14.552 C8.22008168,15.30716 8.83203997,15.9191183 9.5872,15.92 L13.7008,15.92 C14.45596,15.9191183 15.0679183,15.30716 15.0688,14.552 L15.0688,10.4384 C15.0679183,9.68323997 14.45596,9.07128168 13.7008,9.0704" id="形状"></path>
            </g>
        </g>
    </g>
</svg>