<?xml version="1.0" encoding="UTF-8"?>
<svg width="16px" height="16px" viewBox="0 0 16 16" version="1.1" xmlns="http://www.w3.org/2000/svg" xmlns:xlink="http://www.w3.org/1999/xlink">
    <title>icon-mysql-fill</title>
    <g id="恩墨图标库" stroke="none" stroke-width="1" fill="none" fill-rule="evenodd">
        <g id="zCloud-icon更新对照表" transform="translate(-453.000000, -505.000000)" fill="#000000" fill-rule="nonzero">
            <g id="icon-mysql-fill" transform="translate(453.000000, 505.000000)">
                <rect id="矩形" opacity="0" x="0" y="0" width="15.9843902" height="16"></rect>
                <path d="M2.90316488,3.448 L3.79189698,4.7592 C3.95014244,4.5872 4.03645815,4.3616 4.03326127,4.1272 C4.03326127,3.6632 3.7151719,3.2872 3.32275512,3.2872 C3.16813206,3.28886087 3.0193493,3.34655628 2.9039641,3.4496 M4.12197463,9.38 C4.09080507,9.5224 4.07402146,9.6792 4.07402146,9.852 C4.07402146,10.1904 4.04365112,10.444 3.97891434,10.62 C3.8910002,10.8552 3.71677034,10.9896 3.4857959,10.9496 L3.43784273,10.936 C2.95111805,10.7336 2.6010599,10.2544 2.37807766,9.512 C2.19425717,8.832 2.19825327,8.1168 2.38606985,7.364 C2.50115746,6.8256 2.506752,6.4424 2.41484176,6.2248 C2.10314615,5.8328 1.8473959,5.3224 1.64359493,4.6928 C1.36866341,3.8368 1.18484293,3.4992 0.732484683,2.9824 C0.347260878,2.5448 0.129873171,2.2464 0.0403605854,1.9664 C-0.0379629268,1.7248 0.00599414634,1.508 0.21379122,1.3824 C0.395214049,1.276 0.67254322,1.2664 1.07854673,1.3424 C1.47975493,1.4368 1.78425756,1.5656 2.07197659,1.7424 C2.17827278,1.8064 2.47957854,2.0128 2.47638166,2.012 C2.67938341,2.1448 2.82963668,2.2064 3.04222907,2.2304 L3.16291122,2.2432 L3.28119571,2.256 C3.46261854,2.2752 3.57530849,2.288 3.69359298,2.3064 C4.26983024,2.3912 4.75655493,2.5512 5.423104,2.9064 C6.67548098,3.5752 7.95662985,4.8144 8.79660956,6.3328 C8.9868238,6.6768 9.14187239,7.0224 9.289728,7.4128 C9.37844137,7.6472 9.4615602,7.884 9.53828527,8.1232 L9.61261268,8.336 C9.75407454,8.7384 9.86356761,8.9832 10.0042302,9.1816 C10.1624757,9.4056 10.3558868,9.5568 10.6220269,9.6528 C11.9487313,10.1328 12.5960991,10.4952 13.367346,11.2472 C13.5144023,11.3872 13.6103087,11.5 13.6606595,11.5992 C13.7373846,11.7456 13.7301916,11.8976 13.607911,12.0048 C13.5287883,12.0736 13.4296851,12.1008 13.2906209,12.1152 C13.207502,12.1216 13.1355723,12.1232 12.9229799,12.1232 C12.7404258,12.1198837 12.5578115,12.1233527 12.3755145,12.1336 C12.1628428,12.1505757 11.9517714,12.1837382 11.7441311,12.2328 L11.4867824,12.2888 C13.0812254,13.776 14.7459996,14.2784 15.8992734,14.448 C16.0247508,14.4664 16.014361,14.648 15.8880843,14.656 C6.5779762,15.3056 4.36813424,9.9032 4.12197463,9.38" id="形状"></path>
            </g>
        </g>
    </g>
</svg>