<?xml version="1.0" encoding="UTF-8"?>
<svg width="16px" height="16px" viewBox="0 0 16 16" version="1.1" xmlns="http://www.w3.org/2000/svg" xmlns:xlink="http://www.w3.org/1999/xlink">
    <title>icon-exit-fill</title>
    <g id="页面-1" stroke="none" stroke-width="1" fill="none" fill-rule="evenodd">
        <g id="zCloud-icon更新对照表" transform="translate(-1878.000000, -1355.000000)">
            <g id="icon-exit-fill" transform="translate(1878.000000, 1355.000000)">
                <path d="M14.4692,0.000157079455 L14.4388,0.000157079455 L1.5668,0.000157079455 C0.7164,-0.00144 0.0204,0.65456 0.0004,1.50336 L0.0004,6.98576 L8.2572,6.98496 L6.8452,5.52656 C6.6684,5.35056 6.5676,5.11056 6.5676,4.85456 C6.5668,4.59856 6.6668,4.35776 6.8476,4.17616 C6.8932,4.12896 6.9452,4.08816 6.9972,4.05376 C7.4476,3.72816 8.0844,3.77216 8.4964,4.17376 L11.5404,7.32976 C11.6924,7.48736 11.786,7.69456 11.8052,7.91376 C11.8204,8.10656 11.7868,8.28176 11.7084,8.43936 C11.6828,8.47936 11.658,8.51376 11.6348,8.54256 L11.5468,8.66576 L8.5036,11.81856 C8.29,12.03856 7.9948,12.16256 7.6908,12.16256 C7.6724,12.16176 7.6564,12.16256 7.6436,12.16256 C7.258,12.16256 6.8868,11.94976 6.6868,11.60256 C6.482,11.22496 6.5516,10.76176 6.8524,10.46816 L8.2588,9.01616 L0.0004,9.01616 L0.0004,14.50176 C0.0204,15.33376 0.7068,16.0001571 1.5308,16.0001571 C1.5412,16.0001571 1.5516,15.99936 1.5612,15.99936 L14.4364,15.99936 C14.4452,15.99936 14.4548,16.0001571 14.4636,16.0001571 C15.2932,15.99936 15.9796,15.33376 15.9996,14.49616 L15.9996,1.49776 C15.9796,0.66576 15.2932,0.000157079455 14.4692,0.000157079455" id="Fill-8" fill="#000000"></path>
            </g>
        </g>
    </g>
</svg>