<?xml version="1.0" encoding="UTF-8"?>
<svg width="16px" height="16px" viewBox="0 0 16 16" version="1.1" xmlns="http://www.w3.org/2000/svg" xmlns:xlink="http://www.w3.org/1999/xlink">
    <title>icon-create-mysql-fill</title>
    <g id="恩墨图标库" stroke="none" stroke-width="1" fill="none" fill-rule="evenodd">
        <g id="zCloud-icon更新对照表" transform="translate(-1131.000000, -405.000000)" fill="#000000" fill-rule="nonzero">
            <g id="icon-create-mysql-fill" transform="translate(1131.000000, 405.000000)">
                <rect opacity="0" x="0" y="0" width="16" height="16"></rect>
                <path d="M-4.61852778e-14,9.71945666 C-4.61852778e-14,10.8658606 2.52280151,11.7951005 5.63511307,11.7951005 C7.36509108,11.7951005 8.91113379,11.5073964 9.94470791,11.0555119 C10.009712,11.1287988 10.0767772,11.2002313 10.1458229,11.2697236 C10.1991834,11.3225817 10.2478643,11.3812814 10.298147,11.4411432 C10.3913945,11.5522456 10.4969221,11.6776696 10.6420226,11.7963882 C10.6958386,11.8384422 10.7329931,11.8752356 10.7720477,11.9134422 C10.8728172,12.0117462 10.9813599,12.1169598 11.258527,12.2935773 C11.1395729,13.4011621 8.67129397,14.2865421 5.63511307,14.2865421 C2.52272299,14.2865421 -4.61852778e-14,13.3569095 -4.61852778e-14,12.2105057 L-4.61852778e-14,12.2105057 Z M7.96851239,2.82116975 L8.05191583,2.82661746 C8.42675879,2.87184359 8.85551193,3.18812814 9.06912688,3.36834171 C9.13380967,3.42228329 9.19979978,3.51501158 9.26836919,3.58083386 L9.33784548,3.6352544 L9.82041457,3.7160647 C10.1131753,3.82399497 10.3891175,3.91091394 10.6099089,4.08344849 C11.6492776,4.89630967 12.06819,5.42075391 12.6822052,6.62666457 C13.2962205,7.83257523 13.5680745,8.5932138 13.8313643,9.64948977 C14.9604976,10.2606703 15.8234925,11.5607726 15.9255653,11.6996859 C15.3300393,11.6127176 14.8033084,11.6127176 14.3453725,11.6996859 C14.9435536,12.3401539 15.1759187,13.6006536 15.453344,14.2357865 C12.4782337,12.9355001 10.2405637,11.0694395 9.53743719,9.19483354 C9.43362647,9.79970163 9.28076319,10.1344012 9.07884736,10.1989322 C8.73227073,10.3098775 8.52883166,9.90835427 8.44484925,9.7214196 C8.17033606,9.11243719 8.18366834,8.13826947 8.49324749,7.38511307 C8.56176193,7.21777638 8.58852073,7.00664259 8.69299623,6.87971106 C8.69065641,6.75646985 8.60111495,6.71124372 8.55505653,6.62666457 C8.48027638,6.48834799 8.42005339,6.33029209 8.36556219,6.17938128 C8.25656407,5.8798995 8.19973304,5.53310302 8.12435616,5.21372487 C8.09389133,5.08362123 8.09736181,4.96520101 8.05840138,4.84136307 C8.00006281,4.65383166 7.8798995,4.45920226 7.78847362,4.28831658 C7.65783606,4.04425251 7.2741049,3.55753769 7.49247802,3.12473304 C7.58976131,2.93177999 7.7290731,2.84547052 7.88769654,2.82569733 L7.96851239,2.82116975 Z M0.000157035176,5.9825691 C0.000157035176,7.12897299 2.52294284,8.05836997 5.6352544,8.05836997 C6.36022299,8.05836997 7.05069095,8.00614008 7.68717023,7.91418028 C7.54621545,8.64729899 7.59919912,9.42887877 7.85216709,9.98960427 C7.91488693,10.1288317 7.98369975,10.2461997 8.05786746,10.3457601 C7.32309987,10.4748744 6.50375314,10.5496545 5.6352544,10.5496545 C2.52286432,10.5496545 0.000157035176,9.61958229 0.000157035176,8.47346106 L0.000157035176,8.47346106 Z M5.63533291,1 C8.74726759,1 11.2700691,1.92971106 11.2700691,3.07603643 L11.2700691,3.07603643 L11.2700691,3.92553392 C11.0857453,3.75928741 10.8958328,3.59934402 10.7006595,3.4459799 C10.4490578,3.24916771 10.1525126,3.14183417 9.8660804,3.03826947 L9.8660804,3.03826947 L9.75233982,2.99681219 L9.24663945,2.90643844 C9.22462312,2.8843593 9.19802136,2.85337626 9.17804648,2.83022927 C9.12649183,2.77030465 9.07402638,2.71287688 9.02449749,2.67134108 C8.76075691,2.4491206 8.24428392,2.0669598 7.7473147,2.00703518 C7.3432946,1.95782035 7.00147613,2.1361652 6.81633166,2.50354899 C6.53668342,3.05749058 6.88153266,3.62870603 7.06689698,3.93555276 L7.10859768,4.00506635 L7.10859768,4.00506635 L7.14346734,4.06648869 L7.21364636,4.19409548 C7.29294912,4.33762563 7.37540829,4.48611809 7.41617462,4.61711683 C7.43412374,4.67470163 7.43963568,4.73093593 7.44663945,4.78814384 C7.45552764,4.85794598 7.46479271,4.92834485 7.48206658,5.00243405 C7.50478866,5.10030254 7.52650255,5.19840238 7.54720477,5.29671796 C7.60425565,5.5629397 7.6634108,5.83844221 7.75621859,6.09359296 C7.81945666,6.26937814 7.89082915,6.45511935 7.98128141,6.62251884 C7.26648869,6.74327889 6.4736809,6.81284548 5.63533291,6.81284548 C2.52286432,6.81284548 0.000157035176,5.88285176 0.000157035176,4.73680905 L0.000157035176,4.73680905 L0.000157035176,3.07603643 C0.000157035176,1.92963254 2.52294284,1 5.63533291,1 Z M9.24769158,4.38789259 C9.47616206,4.57679462 9.47616206,4.86812186 9.55854271,5.12757538 C9.88115578,4.98654209 9.93211003,4.56483351 9.8538477,4.38789259 C9.77558537,4.21095167 9.67139836,4.12301349 9.51198979,4.0740633 C9.35258122,4.0251131 9.05065955,4.22771671 9.24769158,4.38789259 Z"></path>
            </g>
        </g>
    </g>
</svg>