<?xml version="1.0" encoding="UTF-8"?>
<svg width="16px" height="16px" viewBox="0 0 16 16" version="1.1" xmlns="http://www.w3.org/2000/svg" xmlns:xlink="http://www.w3.org/1999/xlink">
    <title>icon-delete-fill</title>
    <g id="页面-1" stroke="none" stroke-width="1" fill="none" fill-rule="evenodd">
        <g id="zCloud-icon更新对照表" transform="translate(-1878.000000, -955.000000)" fill="#000000" fill-rule="nonzero">
            <g id="icon-delete-fill" transform="translate(1878.000000, 955.000000)">
                <rect id="矩形" opacity="0" x="0" y="0" width="16" height="16"></rect>
                <path d="M15.2184,2.8984 L12.32,2.8984 L12.32,0.9656 C12.32,0.4984 11.94,0 10.8728,0 L5.0704,0 C4.004,0 3.624,0.4984 3.624,0.9656 L3.624,2.8984 L0.7256,2.8984 C0.466653897,2.89839999 0.227377828,3.03654609 0.0979047746,3.2608 C-0.0315682786,3.4850539 -0.0315682786,3.7613461 0.0979047746,3.9856 C0.227377828,4.20985391 0.466653897,4.348 0.7256,4.348 L15.2168,4.348 C15.617096,4.348 15.9416,4.02349599 15.9416,3.6232 C15.9416,3.22290401 15.617096,2.8984 15.2168,2.8984 L15.2184,2.8984 Z M5.0728,6.5224 C5.08578578,6.13169193 5.40627619,5.82167654 5.7972,5.82167654 C6.18812381,5.82167654 6.50861422,6.13169193 6.5216,6.5224 L6.5216,11.2888 C6.53039253,11.5533441 6.39427795,11.8016443 6.16652921,11.9365199 C5.93878048,12.0713954 5.65561952,12.0713954 5.42787079,11.9365199 C5.20012205,11.8016443 5.06400747,11.5533441 5.0728,11.2888 L5.0728,6.5216 L5.0728,6.5224 Z M9.42,6.5224 C9.42,6.12210401 9.74450401,5.7976 10.1448,5.7976 C10.545096,5.7976 10.8696,6.12210401 10.8696,6.5224 L10.8696,11.2888 C10.8696,11.689096 10.545096,12.0136 10.1448,12.0136 C9.74450401,12.0136 9.42,11.689096 9.42,11.2888 L9.42,6.5216 L9.42,6.5224 Z M10.1448,5.4544 L1.4496,5.4544 L1.4496,14.492 C1.4496,14.96 1.676,15.372 2.02,15.6368 C2.2648,15.8256 2.5672,15.9424 2.9,15.9424 L13.044,15.9424 C13.376,15.9424 13.6792,15.8256 13.924,15.6368 C14.268,15.372 14.4936,14.96 14.4936,14.492 L14.4936,5.4544 L10.1448,5.4544 Z" id="形状"></path>
            </g>
        </g>
    </g>
</svg>