<?xml version="1.0" encoding="UTF-8"?>
<svg width="16px" height="16px" viewBox="0 0 16 16" version="1.1" xmlns="http://www.w3.org/2000/svg" xmlns:xlink="http://www.w3.org/1999/xlink">
    <title>icon-caveat-fill</title>
    <g id="恩墨图标库" stroke="none" stroke-width="1" fill="none" fill-rule="evenodd">
        <g id="zCloud-icon更新对照表" transform="translate(-1878.000000, -605.000000)" fill="#000000" fill-rule="nonzero">
            <g id="icon-caveat-fill" transform="translate(1878.000000, 605.000000)">
                <rect opacity="0" x="0" y="0" width="16" height="16"></rect>
                <path d="M7.95636522,1 C8.31436522,1 8.63736522,1.204 8.84136522,1.559 L8.84136522,1.559 L15.7493652,13.574 C15.9533652,13.928 15.9673652,14.308 15.7873652,14.618 C15.6093652,14.929 15.2733652,15.105 14.8653652,15.105 L14.8653652,15.105 L1.04736522,15.105 C0.641365222,15.105 0.304365222,14.928 0.124365222,14.618 C-0.0546347775,14.309 -0.0396347775,13.928 0.164365222,13.573 L0.164365222,13.573 L7.07136522,1.558 C7.27636522,1.203 7.59736522,1 7.95636522,1 Z M7.99936522,11.6285714 C7.36818265,11.6285714 6.85650808,12.140246 6.85650808,12.7714286 C6.85650808,13.4026111 7.36818265,13.9142857 7.99936522,13.9142857 C8.63054779,13.9142857 9.14222237,13.4026111 9.14222237,12.7714286 C9.14222237,12.140246 8.63054779,11.6285714 7.99936522,11.6285714 Z M7.99936522,3.62857143 C7.36818265,3.62857143 6.85650808,4.06695544 6.85650808,4.60772953 L6.85650808,4.60772953 L6.85650808,9.50655618 C6.85650808,10.0473303 7.36818265,10.4857143 7.99936522,10.4857143 C8.63054779,10.4857143 9.14222237,10.0473303 9.14222237,9.50655618 L9.14222237,9.50655618 L9.14222237,4.60772953 C9.14222237,4.06695544 8.63054779,3.62857143 7.99936522,3.62857143 Z"></path>
            </g>
        </g>
    </g>
</svg>