<?xml version="1.0" encoding="UTF-8"?>
<svg width="16px" height="16px" viewBox="0 0 16 16" version="1.1" xmlns="http://www.w3.org/2000/svg" xmlns:xlink="http://www.w3.org/1999/xlink">
    <title>icon-redis-fill</title>
    <g id="恩墨图标库" stroke="none" stroke-width="1" fill="none" fill-rule="evenodd">
        <g id="zCloud-icon更新对照表" transform="translate(-1131.000000, -455.000000)" fill="#000000" fill-rule="nonzero">
            <g id="icon-redis-fill" transform="translate(1131.000000, 455.000000)">
                <rect opacity="0" x="0" y="0" width="15.9843902" height="16"></rect>
                <path d="M15.9655212,10.4420843 C15.9759108,10.4628837 15.9815051,10.485283 15.9839027,10.5084822 L15.9839027,12.7284134 C15.9818342,12.7921537 15.9423279,12.8486464 15.8832042,12.872409 L8.05109577,15.9883124 C8.03235801,15.9960651 8.01222747,15.9998773 7.99195536,15.999536 C7.97200112,15.9992471 7.95225053,15.9954556 7.93361414,15.9883124 L0.100706529,12.871609 C0.0409184263,12.8488359 0.00124123376,12.7916449 0.000807180488,12.7276134 C0.00240557268,12.6732151 0.00240557268,11.1540622 0.00160638439,10.6596775 L0.00160638439,10.5076823 C0.00160638439,10.483683 0.00640154537,10.4612837 0.0175902751,10.4412843 C0.0335741659,10.4764832 0.0639435707,10.5052823 0.100706529,10.5196819 L7.93281495,13.6355853 C7.95145134,13.6427286 7.97120193,13.64652 7.99115617,13.646785 C8.01113603,13.646785 8.03111591,13.643585 8.04949738,13.6355853 L15.8816058,10.5196819 C15.9183944,10.5049836 15.948338,10.4770089 15.9655212,10.4412843 L15.9655212,10.4420843 Z M0.0167910868,6.79419738 C0.0335741815,6.83019627 0.0639435707,6.85819539 0.100706529,6.87419491 L7.93281495,9.99009831 C7.95145135,9.99724157 7.97120193,10.001033 7.99115617,10.001298 C8.01113603,10.001298 8.03111591,9.99809805 8.04949738,9.99009831 L15.8816058,6.87499488 C15.9186768,6.85990931 15.9486611,6.83132495 15.9655212,6.79499736 C15.9759108,6.81659669 15.9815051,6.838996 15.9839027,6.86219527 L15.9839027,9.08212645 C15.9818342,9.14586671 15.9423279,9.20235938 15.8832042,9.22612198 L8.05109577,12.3420254 C8.03235801,12.3497782 8.01222747,12.3535904 7.99195536,12.353249 C7.97200112,12.3529601 7.95225053,12.3491687 7.93361414,12.3420254 L0.100706529,9.22612198 C0.040923046,9.20230273 0.00123727399,9.14492286 7.99219512e-06,9.0805265 L0.000807180488,7.6517708 L7.99219512e-06,6.8613953 C7.99219512e-06,6.83739605 0.00640154537,6.81499673 0.0167910868,6.79419738 Z M7.99195536,3.82291085e-06 C8.01193522,3.82291085e-06 8.0319151,0.00480784387 8.05029659,0.0112076564 L15.882405,3.12791103 C15.9431438,3.15191028 15.9823044,3.20790855 15.9839027,3.27190658 C15.9815052,3.33670456 15.9815052,5.42943969 15.9847019,5.4934377 C15.9826334,5.55717796 15.9431271,5.61367063 15.8840034,5.63743323 L8.05189496,8.75333664 C8.03315721,8.76108941 8.01302667,8.76490161 7.99275456,8.76456028 C7.97280032,8.76427139 7.95304974,8.7604799 7.93441335,8.75333664 L0.100706529,5.63823322 C0.040923046,5.61441397 0.00123727399,5.5570341 7.99219512e-06,5.49263773 L0.000807180488,4.06308205 L7.99219512e-06,3.27270655 C0.00123727399,3.20831019 0.040923046,3.15093031 0.100706529,3.12711106 L7.93281495,0.0112076564 C7.95105663,0.00366763309 7.97062179,-0.000140418902 7.99035698,3.82291085e-06 L7.99195536,3.82291085e-06 Z M9.11322558,4.37827228 L5.4649016,4.7486608 C5.4501018,4.75075471 5.43824162,4.76198475 5.4353314,4.77665992 C5.43341021,4.79196587 5.44190364,4.80668039 5.45611047,4.81265881 L8.29964533,5.9742228 L8.31163326,5.97662898 C8.32425477,5.97687185 8.33584073,5.96966273 8.34120347,5.9582233 L9.14519337,4.42547081 C9.15078773,4.41587111 9.15078773,4.40147156 9.14439418,4.3934718 C9.13762522,4.38301079 9.12562733,4.37715996 9.11322558,4.37827228 L9.11322558,4.37827228 Z M11.5955244,2.43433253 L11.5827373,2.43753244 L9.61192309,3.22070816 C9.59959533,3.2256958 9.59163914,3.23780103 9.59194323,3.25110722 C9.59034484,3.2647068 9.59993517,3.27670642 9.6111239,3.28310622 L11.8432748,4.2030777 L11.8560619,4.20467766 L11.8680498,4.20227773 L13.8300729,3.39590273 C13.8420608,3.39110289 13.8500612,3.37830328 13.8500612,3.36390372 C13.8503569,3.35059753 13.8424007,3.3384923 13.8300729,3.33350466 L11.6083116,2.43753244 C11.6001582,2.43397052 11.5908907,2.43397052 11.5827373,2.43753244 L11.5955244,2.43433253 Z M3.88968877,2.63192641 C3.43095099,2.63192641 3.00258262,2.70152425 2.68130633,2.82792033 C2.34164858,2.96151619 2.15382837,3.14631045 2.15382837,3.34790422 C2.15223942,3.55909767 2.3536365,3.75749152 2.71806929,3.90788686 C3.08250209,4.05588227 3.56042054,4.13827972 4.06471243,4.13827972 C4.53463894,4.13827972 4.97099926,4.06628195 5.29547233,3.93348606 C5.62154377,3.80069017 5.8021618,3.61749586 5.80136523,3.41910202 C5.7997642,3.20470866 5.59357196,3.00391489 5.21795042,2.85511948 C4.8575136,2.71112395 4.38518951,2.63112644 3.88968877,2.63112644 L3.88968877,2.63192641 Z M6.50864993,0.939178891 L6.49266604,0.947178641 C6.4826408,0.957451134 6.48068025,0.973150879 6.48787088,0.985577453 L6.80435198,1.62155773 L5.31465299,1.90794886 C5.29857892,1.91115705 5.28753306,1.9260144 5.28907876,1.94234778 C5.28907876,1.95834728 5.30266507,1.97194686 5.31944816,1.97354681 L7.04411041,2.09994291 L7.38456737,2.77992183 C7.38936253,2.78792158 7.39735449,2.79432138 7.40774402,2.79592133 C7.40971172,2.7969718 7.4119075,2.79752128 7.41413757,2.79752128 C7.42212951,2.79752128 7.43012146,2.79512136 7.43571582,2.78952153 L8.15658949,2.18154038 L9.89084205,2.30953641 C9.90695496,2.31038003 9.92138781,2.29962882 9.92520743,2.2839372 C9.92913163,2.26793075 9.92057981,2.25149522 9.90522757,2.24553839 L8.6536886,1.76155339 L9.32021702,1.1999708 C9.33171886,1.18970341 9.33498556,1.17302695 9.32820897,1.15917206 C9.32137296,1.14557097 9.30641787,1.13808613 9.29144601,1.14077264 L7.79535346,1.42956369 L6.5278306,0.939978859 C6.51529479,0.935643216 6.50138834,0.938736558 6.49186685,0.947978609 L6.50864993,0.939178891 Z"></path>
            </g>
        </g>
    </g>
</svg>