<?xml version="1.0" encoding="UTF-8"?>
<svg width="16px" height="16px" viewBox="0 0 16 16" version="1.1" xmlns="http://www.w3.org/2000/svg" xmlns:xlink="http://www.w3.org/1999/xlink">
    <title>icon-invisible-fill</title>
    <g id="页面-1" stroke="none" stroke-width="1" fill="none" fill-rule="evenodd">
        <g id="zCloud-icon更新对照表" transform="translate(-1878.000000, -1555.000000)">
            <g id="icon-invisible-fill" transform="translate(1878.000000, 1555.000000)">
                <path d="M0.91449939,0.91449939 C1.24494302,0.584055759 1.780698,0.584055759 2.11114164,0.91449939 L2.11114164,0.91449939 L15.0855006,13.8888584 C15.4159442,14.219302 15.4159442,14.755057 15.0855006,15.0855006 C14.755057,15.4159442 14.219302,15.4159442 13.8888584,15.0855006 L13.8888584,15.0855006 L12.0338249,13.2303202 C10.9599282,13.8332649 9.6268767,14.254175 7.9968,14.254175 C5.0728,14.254175 3.1064,12.903775 1.8744,11.570975 C0.6856,10.284575 0.1792,9.015775 0.1688,8.988575 C-0.0656,8.522975 -0.0592,7.757375 0.2112,7.228575 C0.2456,7.147775 0.7664,5.982175 1.8744,4.773375 C2.13112812,4.49299216 2.4194947,4.21038607 2.74106979,3.93846383 L0.91449939,2.11114164 C0.584055759,1.780698 0.584055759,1.24494302 0.91449939,0.91449939 Z M5.28295005,7.24793651 L5.2752,7.452575 L5.2752,8.980575 C5.27652252,10.4832546 6.49412088,11.7012108 7.9968,11.702975 C8.69379705,11.7019521 9.32939764,11.4392864 9.81068425,11.0079501 L5.40963231,6.60731838 C5.34291993,6.81131698 5.29963315,7.02591602 5.28295005,7.24793651 Z M7.9968,2.009375 C10.896,2.009375 12.876,3.415775 14.1192,4.774175 C15.1744381,5.92769881 15.7006966,7.04784393 15.7857414,7.23829248 L15.7952,7.259775 C16.01696,7.668735 16.05404,8.342727 15.87728,8.8595142 L15.8104,9.025375 L15.7986919,9.05390779 C15.717042,9.24787481 15.2038957,10.400088 14.1192,11.570975 L14.1612574,11.522375 L10.7172574,8.078375 L10.7176,7.452575 C10.7163273,6.00585054 9.58765535,4.82297964 8.16250847,4.73537525 L7.9968,4.730175 C7.80218551,4.73040348 7.61235275,4.75103148 7.4293246,4.79003555 L5.14973836,2.512492 C5.97943502,2.2016373 6.9254684,2.009375 7.9968,2.009375 Z" id="形状结合" fill="#000000" fill-rule="nonzero"></path>
            </g>
        </g>
    </g>
</svg>