<?xml version="1.0" encoding="UTF-8"?>
<svg width="16px" height="16px" viewBox="0 0 16 16" version="1.1" xmlns="http://www.w3.org/2000/svg" xmlns:xlink="http://www.w3.org/1999/xlink">
    <title>icon-obiecte-flii@2x</title>
    <g id="页面-1" stroke="none" stroke-width="1" fill="none" fill-rule="evenodd">
        <g id="zCloud-icon更新对照表" transform="translate(-1878.000000, -1905.000000)">
            <g id="icon-obiecte-flii" transform="translate(1878.000000, 1905.000000)">
                <path d="M15.2298851,5.33057471 C15.2510345,5.36735632 15.262069,5.41057471 15.262069,5.4537931 L15.2896552,12.3485057 L9.20045977,15.8344828 C9.12334329,15.8787873 9.02845986,15.8786341 8.95148684,15.8340808 C8.87451383,15.7895274 8.82712015,15.7073281 8.82712644,15.6183908 L8.79954023,8.7245977 L14.8887356,5.23770115 C14.9461574,5.20480342 15.0142855,5.19617856 15.0781056,5.21359971 C15.1419257,5.23102087 15.1961994,5.27310405 15.2289655,5.33057471 L15.2298851,5.33057471 Z M1.38344828,5.26344828 L1.40183908,5.27264368 L7.4891954,8.75862069 L7.46252874,15.6533333 C7.46220705,15.7388246 7.41824158,15.8182295 7.34595468,15.8638746 C7.27366778,15.9095196 7.18307441,15.9150811 7.10574713,15.8786207 L7.0891954,15.8694253 L1,12.3825287 L1.02758621,5.48781609 C1.02836442,5.40274552 1.07233109,5.32390373 1.14429565,5.27853073 C1.21626021,5.23315772 1.30635357,5.22747587 1.38344828,5.26344828 Z M8.24137931,0 L14.5981609,3.46666667 C14.6750471,3.51147772 14.7223324,3.59376699 14.7223324,3.68275862 C14.7223324,3.77175025 14.6750471,3.85403953 14.5981609,3.89885057 L8.24137931,7.58436782 L2.02804598,3.96505747 C1.95115982,3.92024642 1.90387448,3.83795715 1.90387448,3.74896552 C1.90387448,3.65997388 1.95115982,3.57768461 2.02804598,3.53287356 L8.24137931,0.00091954023 L8.24137931,0 Z" fill="#000000" fill-rule="nonzero"></path>
            </g>
        </g>
    </g>
</svg>