<?xml version="1.0" encoding="UTF-8"?>
<svg width="16px" height="16px" viewBox="0 0 16 16" version="1.1" xmlns="http://www.w3.org/2000/svg" xmlns:xlink="http://www.w3.org/1999/xlink">
    <title>icon-task-fill</title>
    <g id="恩墨图标库" stroke="none" stroke-width="1" fill="none" fill-rule="evenodd">
        <g id="zCloud-icon更新对照表" transform="translate(-1131.000000, -705.000000)" fill="#000000" fill-rule="nonzero">
            <g id="icon-task-fill" transform="translate(1131.000000, 705.000000)">
                <rect id="矩形" opacity="0" x="0" y="0" width="16" height="16"></rect>
                <path d="M10.9872,7.4984 L7.176,11.6656 C7.04421477,11.8093119 6.85818835,11.8912 6.6632,11.8912 L6.66,11.8912 C6.46346809,11.8899632 6.27661998,11.8056926 6.1456,11.6592 L4.2856,9.576 C4.12025748,9.39093642 4.06620494,9.13172145 4.14380344,8.89599884 C4.22140194,8.66027623 4.41886243,8.48385787 4.66180344,8.43319884 C4.90474446,8.38253981 5.15625748,8.46533642 5.3216,8.6504 L6.6696,10.1608 L9.9616,6.5608 C10.2237297,6.29306735 10.6508812,6.28123891 10.9274256,6.53405491 C11.2039701,6.78687091 11.2304062,7.21336755 10.9872,7.4984 M13.8864,0.7208 L12.5,0.7208 C12.4984,0.7208 12.5,1.1664 12.5,1.4224 L12.5,2.7976 C12.5026594,3.56513859 11.8835305,4.18999344 11.116,4.1944 L4.164,4.1944 C3.3955306,4.19131302 2.77494388,3.56607101 2.7776,2.7976 L2.7776,1.424 C2.7776,1.1664 2.7752,0.9576 2.7752,0.7224 L1.3832,0.7224 C0.62008651,0.722839959 0.00132319158,1.34088753 0,2.104 L0,14.616 C0,15.3784 0.62,15.9984 1.384,15.9984 L13.896,15.9984 C14.6588005,15.9970777 15.2767193,15.3788011 15.2776,14.616 L15.2776,2.104 C15.2776,1.3416 14.6528,0.7208 13.8856,0.7208 M11.0376,0.4656 C10.8737825,0.178885827 10.5694109,0.00138654749 10.2392,0 L5.1184,0 C4.776,0 4.4792,0.1872 4.3184,0.464 C4.23353852,0.606895396 4.18825407,0.769808985 4.1872,0.936 L4.1872,1.8584 C4.1872,2.376 4.604,2.796 5.1184,2.796 L10.2384,2.796 C10.7512,2.796 11.168,2.376 11.168,1.8584 L11.168,0.936 C11.168,0.7624 11.1184,0.6048 11.0376,0.4656" id="形状"></path>
            </g>
        </g>
    </g>
</svg>