<?xml version="1.0" encoding="UTF-8"?>
<svg width="16px" height="16px" viewBox="0 0 16 16" version="1.1" xmlns="http://www.w3.org/2000/svg" xmlns:xlink="http://www.w3.org/1999/xlink">
    <title>icon-menu-fill</title>
    <g id="页面-1" stroke="none" stroke-width="1" fill="none" fill-rule="evenodd">
        <g id="zCloud-icon更新对照表" transform="translate(-1878.000000, -1405.000000)" fill="#000000" fill-rule="nonzero">
            <g id="icon-menu-fill" transform="translate(1878.000000, 1405.000000)">
                <path d="M7.97245558,0.0102266868 C3.57456461,0.0102266868 0.00974520597,3.57506428 0.00974520597,7.97259183 C0.00974520597,12.3701376 3.57456463,15.9349752 7.97245558,15.9349752 C12.3696561,15.9349752 15.9348389,12.3701557 15.9348389,7.97259183 C15.9348389,3.57504611 12.3696379,0.0102266868 7.97245558,0.0102266868 Z M11.2297926,11.5918471 L4.71479155,11.5918471 C4.11534343,11.5918471 3.62900044,11.467604 3.62900044,10.8679924 C3.62900044,10.2681809 4.11534343,10.1441377 4.71479155,10.1441377 L11.2297926,10.1441377 C11.8295859,10.1441377 12.3155655,10.2681809 12.3155655,10.8679924 C12.3155655,11.467604 11.8295859,11.5918471 11.2297926,11.5918471 Z M11.2297926,8.69644654 L4.71479155,8.69644654 C4.11534343,8.69644654 3.62900044,8.57203997 3.62900044,7.97259185 C3.62900044,7.37279851 4.11534343,7.24875534 4.71479155,7.24875534 L11.2297926,7.24875534 C11.8295859,7.24875534 12.3155655,7.37279851 12.3155655,7.97259185 C12.3155655,8.57203997 11.8295859,8.69644654 11.2297926,8.69644654 Z M11.2297926,5.80104597 L4.71479155,5.80104597 C4.11534343,5.80104597 3.62900044,5.67680293 3.62900044,5.07719128 C3.62900044,4.47739794 4.11534343,4.35335478 4.71479155,4.35335478 L11.2297926,4.35335478 C11.8295859,4.35335478 12.3155655,4.47741612 12.3155655,5.07719128 C12.3155655,5.67680295 11.8295859,5.80104597 11.2297926,5.80104597 Z" id="形状"></path>
            </g>
        </g>
    </g>
</svg>