<?xml version="1.0" encoding="UTF-8"?>
<svg width="16px" height="16px" viewBox="0 0 16 16" version="1.1" xmlns="http://www.w3.org/2000/svg" xmlns:xlink="http://www.w3.org/1999/xlink">
    <title>icon-copy-fill</title>
    <g id="页面-1" stroke="none" stroke-width="1" fill="none" fill-rule="evenodd">
        <g id="zCloud-icon更新对照表" transform="translate(-1878.000000, -855.000000)">
            <g id="icon-copy-fill" transform="translate(1878.000000, 855.000000)">
                <polygon id="Fill-1" points="0 16 16 16 16 0 0 0"></polygon>
                <path d="M3.29288,2.0812 L3.29288,12.602 C3.29288,13.858 4.31448,14.8796 5.56968,14.8796 L5.56968,14.8796 L11.72728,14.8796 C11.63128,15.5132 11.08968,15.9996 10.42968,15.9996 L10.42968,15.9996 L1.69128,15.9996 C0.96408,15.9996 0.37448,15.4108 0.37448,14.6828 L0.37448,14.6828 L0.37448,3.3988 C0.37448,2.6716 0.96408,2.0812 1.69128,2.0812 L1.69128,2.0812 L3.29288,2.0812 Z M10.72144,0.00016 L10.72144,3.57456 C10.72144,4.23776 11.26064,4.77536 11.92144,4.77536 L11.92144,4.77536 L15.62464,4.77536 L15.62624,12.61856 C15.62624,13.33616 15.04144,13.92096 14.32304,13.92096 L14.32304,13.92096 L5.55504,13.92096 C4.83664,13.92096 4.25264,13.33616 4.25264,12.61856 L4.25264,12.61856 L4.25264,1.30256 C4.25264,0.58496 4.83664,0.00016 5.55504,0.00016 L5.55504,0.00016 L10.72144,0.00016 Z M12.21344,9.12016 L7.66384,9.12016 C7.27584,9.12016 6.95744,9.43776 6.95744,9.82576 C6.95744,10.21376 7.27584,10.53136 7.66384,10.53136 L7.66384,10.53136 L12.21344,10.53136 C12.60064,10.53136 12.91904,10.21376 12.91904,9.82576 C12.91904,9.43776 12.60064,9.12016 12.21344,9.12016 L12.21344,9.12016 Z M12.21344,6.72656 L7.66384,6.72656 C7.27584,6.72656 6.95744,7.04416 6.95744,7.43216 C6.95744,7.82016 7.27584,8.13776 7.66384,8.13776 L7.66384,8.13776 L12.21344,8.13776 C12.60064,8.13776 12.91904,7.82016 12.91904,7.43216 C12.91904,7.04416 12.60064,6.72656 12.21344,6.72656 L12.21344,6.72656 Z M11.9392,1.57256 L13.924,3.55736 L11.9392,3.55736 L11.9392,1.57256 Z" id="形状结合" fill="#000000"></path>
            </g>
        </g>
    </g>
</svg>