<?xml version="1.0" encoding="UTF-8"?>
<svg width="16px" height="16px" viewBox="0 0 16 16" version="1.1" xmlns="http://www.w3.org/2000/svg" xmlns:xlink="http://www.w3.org/1999/xlink">
    <title>icon-variable-fill</title>
    <g id="页面-1" stroke="none" stroke-width="1" fill="none" fill-rule="evenodd">
        <g id="zCloud-icon更新对照表" transform="translate(-1878.000000, -2255.000000)">
            <g id="icon-variable-fill" transform="translate(1878.000000, 2255.000000)">
                <rect x="0" y="0" width="16" height="16"></rect>
                <path d="M15.7404066,10.8198024 C15.9397194,11.2161369 15.7816438,11.6972365 15.3853093,11.8965493 L7.9374284,15.6491266 L0.578894618,11.9881873 C0.182560139,11.7911655 0.0199026389,11.3100659 0.219215347,10.9137314 C0.416237118,10.5173969 0.897336771,10.3547394 1.29367125,10.5540521 L7.93284651,13.8576031 L14.6636598,10.464705 C15.0599943,10.2653923 15.5410939,10.4234679 15.7404066,10.8198024 Z M15.7404066,7.22300974 C15.9397194,7.61934422 15.7816438,8.10044387 15.3853093,8.29975658 L7.9374284,12.0523339 L0.578894618,8.39139462 C0.182560139,8.19437285 0.0199026389,7.71327319 0.219215347,7.31693872 C0.416237118,6.92060424 0.897336771,6.75794674 1.29367125,6.95725944 L7.93284651,10.2608104 L14.6636598,6.86791238 C15.0599943,6.66859967 15.5410939,6.82667526 15.7404066,7.22300974 Z M8.49642038,0.139390035 L15.3463631,3.33068443 C15.909937,3.61247137 16.0977949,4.17604526 15.816008,4.6433992 C15.6281501,4.73732818 15.4402921,4.92518615 15.2524341,5.01911512 L8.40249141,8.30433849 C8.12070446,8.49219646 7.65105957,8.49219646 7.36927262,8.30433849 L0.615549826,5.01911512 C0.0519759375,4.83125715 -0.135882014,4.17375429 0.145904931,3.80032932 C0.239833906,3.61247135 0.54223941,3.47272337 0.615549826,3.4246134 L7.46549255,0.139390035 C7.74498854,-0.0461769792 8.12070446,-0.0461769792 8.49642038,0.139390035 Z" fill="#000000" fill-rule="nonzero"></path>
            </g>
        </g>
    </g>
</svg>