<?xml version="1.0" encoding="UTF-8"?>
<svg width="16px" height="16px" viewBox="0 0 16 16" version="1.1" xmlns="http://www.w3.org/2000/svg" xmlns:xlink="http://www.w3.org/1999/xlink">
    <title>icon-time-fill</title>
    <g id="恩墨图标库" stroke="none" stroke-width="1" fill="none" fill-rule="evenodd">
        <g id="zCloud-icon更新对照表" transform="translate(-1878.000000, -1655.000000)" fill="#000000" fill-rule="nonzero">
            <g id="icon-time-fill" transform="translate(1878.000000, 1655.000000)">
                <rect id="矩形" opacity="0" x="0" y="0" width="16" height="16"></rect>
                <path d="M10.7064,10.8536 C10.5817417,10.9791558 10.4121292,11.0497682 10.2352,11.0497682 C10.0582708,11.0497682 9.88865829,10.9791558 9.764,10.8536 L7.5288,8.6192 C7.40359944,8.49438234 7.33334371,8.3247896 7.3335993,8.148 L7.3335993,4 C7.3335993,3.63195744 7.63195744,3.3336 8,3.3336 C8.36804256,3.3336 8.6664,3.63195744 8.6664,4 L8.6664,7.872 L10.7064,9.912 C10.8315608,10.0368686 10.9019001,10.2064023 10.9019001,10.3832 C10.9019001,10.5599977 10.8315608,10.7295314 10.7064,10.8544 M8,0 C3.5888,0 0,3.5888 0,8 C0,12.4112 3.5888,16 8,16 C12.4112,16 16,12.4112 16,8 C16,3.5888 12.4112,0 8,0" id="形状"></path>
            </g>
        </g>
    </g>
</svg>