<?xml version="1.0" encoding="UTF-8"?>
<svg width="16px" height="16px" viewBox="0 0 16 16" version="1.1" xmlns="http://www.w3.org/2000/svg" xmlns:xlink="http://www.w3.org/1999/xlink">
    <title>icon-success-fill</title>
    <g id="恩墨图标库" stroke="none" stroke-width="1" fill="none" fill-rule="evenodd">
        <g id="zCloud-icon更新对照表" transform="translate(-1878.000000, -405.000000)" fill="#000000" fill-rule="nonzero">
            <g id="icon-success-fill" transform="translate(1878.000000, 405.000000)">
                <rect opacity="0" x="0" y="0" width="16" height="16"></rect>
                <path d="M11.14,7.1456 L7.5056,11.12 C7.38040602,11.2576931 7.20289919,11.3361331 7.0168,11.3360002 L7.0128,11.3360002 C6.82534081,11.334854 6.64714522,11.2543317 6.5224,11.1144 L4.748,9.1272 C4.58789418,8.95094507 4.53471059,8.70231734 4.60870009,8.47598743 C4.68268959,8.24965752 4.87246579,8.08045576 5.10576712,8.03280955 C5.33906845,7.98516333 5.57999174,8.06640501 5.7368,8.2456 L7.0224,9.6856 L10.1624,6.2528 C10.3204492,6.07195773 10.5640055,5.99083356 10.7989276,6.04078426 C11.0338497,6.09073497 11.2233301,6.26393428 11.2941292,6.49343581 C11.3649283,6.72293733 11.3059534,6.97278283 11.14,7.1464 M7.948,0.02 C3.564,0.02 0,3.5872 0,7.968 C0,12.3504 3.564,15.9144 7.9472,15.9144 C12.328,15.9144 15.8944,12.3504 15.8944,7.968 C15.8944,3.5872 12.328,0.0208 7.9472,0.0208"></path>
            </g>
        </g>
    </g>
</svg>