<?xml version="1.0" encoding="UTF-8"?>
<svg width="16px" height="16px" viewBox="0 0 16 16" version="1.1" xmlns="http://www.w3.org/2000/svg" xmlns:xlink="http://www.w3.org/1999/xlink">
    <title>icon-compression-fill</title>
    <g id="页面-1" stroke="none" stroke-width="1" fill="none" fill-rule="evenodd">
        <g id="zCloud-icon更新对照表" transform="translate(-1878.000000, -2005.000000)">
            <g id="icon-compression-fill" transform="translate(1878.000000, 2005.000000)">
                <path d="M16,12.5454545 L16,15.4545455 L7.10542736e-15,15.4545455 L7.10542736e-15,12.5454545 L16,12.5454545 Z M16,8.72727273 L16,11.6363636 L7.10542736e-15,11.6363636 L7.10542736e-15,8.72727273 L16,8.72727273 Z M9.45454545,7.81818182 L9.45454545,8.18181818 L7.81818182,8.18181818 L8.72727273,7.63636364 C8.90909091,7.45454545 9.27272727,7.45454545 9.45454545,7.81818182 Z M9.45454545,5.81818182 C9.63636364,6 9.45454545,6.36363636 9.27272727,6.54545455 L7.45454545,7.81818182 C7.27272727,8 6.90909091,7.81818182 6.72727273,7.63636364 C6.54545455,7.45454545 6.72727273,7.09090909 6.90909091,6.90909091 L8.72727273,5.63636364 C8.90909091,5.45454545 9.27272727,5.45454545 9.45454545,5.81818182 Z M9.27272727,3.63636364 C9.63636364,3.81818182 9.45454545,4.18181818 9.27272727,4.36363636 L7.45454545,5.63636364 C7.27272727,5.81818182 6.90909091,5.63636364 6.72727273,5.45454545 C6.54545455,5.27272727 6.54545455,4.90909091 6.72727273,4.72727273 L8.54545455,3.45454545 C8.72727273,3.27272727 9.09090909,3.27272727 9.27272727,3.63636364 Z M8.36363636,2.90909091 L7.45454545,3.45454545 C7.27272727,3.45454545 7.09090909,3.63636364 7.09090909,3.45454545 C6.72727273,3.63636364 6.54545455,3.27272727 6.54545455,2.90909091 L8.36363636,2.90909091 Z M13.4545455,0.545454545 C13.9566225,0.545454545 14.3636364,0.952468409 14.3636364,1.45454545 C14.3636364,1.9566225 13.9566225,2.36363636 13.4545455,2.36363636 L2.54545455,2.36363636 C2.0433775,2.36363636 1.63636364,1.9566225 1.63636364,1.45454545 C1.63636364,0.952468409 2.0433775,0.545454545 2.54545455,0.545454545 L13.4545455,0.545454545 Z" fill="#000000"></path>
            </g>
        </g>
    </g>
</svg>