<?xml version="1.0" encoding="UTF-8"?>
<svg width="16px" height="16px" viewBox="0 0 16 16" version="1.1" xmlns="http://www.w3.org/2000/svg" xmlns:xlink="http://www.w3.org/1999/xlink">
    <title>icon-monitor-fill</title>
    <g id="恩墨图标库" stroke="none" stroke-width="1" fill="none" fill-rule="evenodd">
        <g id="zCloud-icon更新对照表" transform="translate(-1131.000000, -555.000000)" fill="#000000" fill-rule="nonzero">
            <g id="icon-monitor-fill" transform="translate(1131.000000, 555.000000)">
                <rect id="矩形" opacity="0" x="0" y="0" width="16" height="16"></rect>
                <path d="M13.0573568,12.0215276 L14.24586,14.4935037 C14.3792148,14.7616274 14.338463,15.0815461 14.1419326,15.3093775 C13.766195,15.7860288 12.9267813,16 12.2632447,16 L3.72609606,16 C2.94886111,16 2.22847535,15.7460179 1.88915678,15.351128 C1.68139234,15.1277865 1.61926236,14.8091416 1.72838018,14.5265561 L1.74170421,14.4935037 L2.93376055,12.0215276 C4.23862699,13.1053004 6.02582323,13.7785268 7.99511452,13.7785268 C9.96262927,13.7785268 11.7507138,13.10704 13.0555802,12.0215276 L13.0573568,12.0215276 L13.0573568,12.0215276 Z M8.00044413,0 C11.8653004,0 15,2.95732536 15,6.60440337 C15,10.2523512 11.8653004,13.2096765 7.99955587,13.2096765 C4.13292304,13.2096765 1,10.2523512 1,6.60440337 C1,2.95732536 4.13292304,0 8.00044413,0 Z M8.00044413,11.5587932 C10.2006852,11.5587932 11.9843284,9.8748573 11.9843284,7.79864094 C11.9843284,5.72155477 10.2006852,4.03848872 8.00044413,4.03848872 C5.80020303,4.03848872 4.01567159,5.72155477 4.01567159,7.79864094 C4.01567159,9.8748573 5.8010913,11.5587932 8.00044413,11.5587932 Z M8.00044413,5.82854036 C9.19960662,5.82854036 10.1704841,6.74618103 10.1704841,7.87692308 C10.1704841,9.00940473 9.19871836,9.92704539 7.99955587,9.92704539 C6.80039338,9.92704539 5.82773936,9.00940473 5.82773936,7.87692308 C5.82773936,6.74618103 6.80039338,5.83027997 8.00044413,5.83027997 L8.00044413,5.82854036 L8.00044413,5.82854036 Z" id="形状"></path>
            </g>
        </g>
    </g>
</svg>