<?xml version="1.0" encoding="UTF-8"?>
<svg width="16px" height="16px" viewBox="0 0 16 16" version="1.1" xmlns="http://www.w3.org/2000/svg" xmlns:xlink="http://www.w3.org/1999/xlink">
    <title>icon-search-fill</title>
    <g id="页面-1" stroke="none" stroke-width="1" fill="none" fill-rule="evenodd">
        <g id="zCloud-icon更新对照表" transform="translate(-1878.000000, -705.000000)" fill="#000000" fill-rule="nonzero">
            <g id="icon-search-fill" transform="translate(1878.000000, 705.000000)">
                <rect id="矩形" opacity="0" x="0" y="0" width="16" height="16"></rect>
                <path d="M14.8288244,14.8409778 L11.7772638,11.7275308 C12.9742594,10.4399339 13.64108,8.73261784 13.6400985,6.95796087 C13.6400985,5.11259493 12.9216011,3.34281036 11.6426674,2.03793959 C10.3637338,0.733068814 8.62912747,0 6.82044213,0 C5.01162067,-0.000212569523 3.27681253,0.732762336 1.99770893,2.03765616 C0.718605335,3.34254998 0,5.11245603 0,6.95796087 C-0.000208344247,8.8034657 0.718197111,10.5734562 1.99715336,11.8785004 C3.27610962,13.1835445 5.01083499,13.9167233 6.81965646,13.9167233 C8.22597961,13.9176265 9.59775668,13.4721983 10.7448873,12.642166 L13.8640158,15.8253529 C14.1346541,16.0691884 14.5444905,16.0562168 14.7997949,15.7957347 C15.0550993,15.5352526 15.0678132,15.1171046 14.8288244,14.8409778" id="路径"></path>
            </g>
        </g>
    </g>
</svg>