<?xml version="1.0" encoding="UTF-8"?>
<svg width="16px" height="16px" viewBox="0 0 16 16" version="1.1" xmlns="http://www.w3.org/2000/svg" xmlns:xlink="http://www.w3.org/1999/xlink">
    <title>icon-refresh-fill</title>
    <g id="页面-1" stroke="none" stroke-width="1" fill="none" fill-rule="evenodd">
        <g id="zCloud-icon更新对照表" transform="translate(-1878.000000, -755.000000)">
            <g id="icon-refresh-fill" transform="translate(1878.000000, 755.000000)">
                <polygon points="0 16 16 16 16 0 0 0"></polygon>
                <path d="M13.0944,10.684 C13.0888,10.692 13.0808,10.7 13.0736,10.7048 C13.0392,10.7272 12.9936,10.7176 12.972,10.684 L11.2768,8.1112 C11.2688,8.0992 11.2648,8.0848 11.2648,8.0704 C11.2648,8.0296 11.2976,7.9976 11.3384,7.9976 L12.3456,7.9976 C12.3472,6.9832 11.9992,5.9992 11.3592,5.2112 L11.3504,5.2008 C10.9112,4.6616 10.3496,4.2344 9.712,3.9568 L9.68,3.9416 C9.5736,3.8976 9.4648,3.8568 9.3544,3.8208 C9.324,3.8104 9.2936,3.7992 9.2632,3.7896 C9.1664,3.7608 9.068,3.736 8.968,3.7136 C8.9256,3.7032 8.88,3.6912 8.8368,3.6832 C8.7352,3.6624 8.6328,3.648 8.5304,3.6352 C8.4912,3.6304 8.4528,3.624 8.4136,3.62 C7.3832,3.5176 6.3504,3.7928 5.508,4.3944 C5.504,4.3976 5.5008,4.4 5.4976,4.4016 C5.1864,4.6136 4.764,4.5344 4.552,4.224 C4.3352,3.9096 4.4104,3.4792 4.7208,3.2568 C5.6744,2.5768 6.8152,2.2112 7.9856,2.2112 L8,2.2096 C8.0272,2.2096 8.0544,2.2136 8.0816,2.2136 C8.2336,2.2168 8.3848,2.2232 8.536,2.2368 C8.5984,2.2432 8.66,2.2528 8.7224,2.2616 C8.8128,2.2728 8.904,2.28 8.9944,2.296 C9.0272,2.3016 9.0584,2.3112 9.0928,2.3176 C9.16,2.332 9.2264,2.3488 9.2936,2.3648 C9.4144,2.392 9.5344,2.4232 9.6528,2.4584 C9.704,2.4736 9.7512,2.4912 9.7992,2.5072 C9.936,2.5528 10.0704,2.6024 10.2032,2.6568 C10.2256,2.6672 10.2472,2.6784 10.2712,2.688 C11.1024,3.0504 11.8352,3.6072 12.4064,4.312 C12.416,4.324 12.4256,4.3376 12.4352,4.3504 C12.5208,4.4576 12.6072,4.564 12.6848,4.6768 C12.696,4.6928 12.7024,4.7088 12.7112,4.7248 C13.3688,5.6896 13.72,6.8304 13.7192,7.9976 L14.7264,7.9976 C14.7416,7.9976 14.7552,8.0016 14.7672,8.0096 C14.8008,8.032 14.8104,8.0776 14.788,8.1112 L13.0944,10.684 Z M11.28,12.74 C10.3088,13.4296 9.1736,13.7896 8.0112,13.7896 C7.8208,13.7896 7.6312,13.7776 7.44,13.7584 C7.4016,13.7544 7.364,13.748 7.3256,13.7432 C7.2192,13.7296 7.112,13.7192 7.0072,13.7 C6.976,13.696 6.9456,13.6856 6.9144,13.6792 C6.8384,13.664 6.7648,13.6448 6.6896,13.628 C6.5776,13.6008 6.4656,13.5736 6.356,13.5408 C6.296,13.5216 6.2376,13.5016 6.1776,13.4808 C6.0536,13.4392 5.9304,13.3944 5.8096,13.344 C5.7736,13.3288 5.74,13.3112 5.704,13.296 C5.5624,13.2336 5.424,13.1656 5.288,13.0928 C5.2744,13.0856 5.2624,13.0776 5.2496,13.0704 C4.7776,12.8088 4.344,12.48 3.9648,12.0952 C3.9536,12.0848 3.944,12.0736 3.9336,12.0624 C3.8192,11.944 3.7088,11.8232 3.604,11.6952 C3.5768,11.6624 3.552,11.6264 3.5256,11.592 C3.4552,11.5024 3.3816,11.4152 3.3152,11.3184 C3.3072,11.3056 3.3008,11.292 3.2936,11.2784 C2.6328,10.312 2.2792,9.168 2.2808,7.9976 L1.2744,7.9976 C1.2592,7.9976 1.2448,7.9936 1.2328,7.9856 C1.1992,7.9632 1.1896,7.9176 1.212,7.884 L2.9064,5.3112 C2.9112,5.3032 2.9184,5.296 2.9272,5.2904 C2.9608,5.268 3.0064,5.2776 3.0288,5.3112 L4.7224,7.884 C4.7312,7.8968 4.736,7.9112 4.7352,7.9264 C4.7352,7.9664 4.7016,7.9992 4.6616,7.9984 L3.6536,7.9984 C3.6528,8.9936 3.988,9.9592 4.6064,10.7392 L4.6568,10.8056 C4.74,10.9056 4.8256,11.0024 4.9168,11.0944 L4.9304,11.1096 C5.2232,11.4048 5.556,11.6576 5.9192,11.86 L5.9352,11.868 C6.0432,11.9264 6.1528,11.98 6.2656,12.0296 C6.2864,12.0392 6.308,12.0496 6.3296,12.0584 C6.4264,12.1 6.5256,12.1336 6.624,12.168 C6.6656,12.1824 6.7056,12.1968 6.7472,12.2096 C6.8344,12.2352 6.9208,12.2576 7.0096,12.2784 C7.064,12.2904 7.1176,12.3048 7.1744,12.316 C7.2648,12.3328 7.3568,12.3464 7.4488,12.3576 C7.4976,12.364 7.5448,12.372 7.5928,12.3768 C7.7112,12.3872 7.8296,12.3936 7.948,12.3952 C8.8592,12.4088 9.7512,12.1304 10.4928,11.6016 L10.4928,11.6008 C10.4968,11.5984 10.5008,11.596 10.5048,11.5936 C10.8144,11.3824 11.2384,11.4616 11.4488,11.772 C11.6664,12.0864 11.5912,12.5192 11.28,12.74 L11.28,12.74 Z M8,0 C3.5816,0 0,3.5816 0,8 C0,12.4176 3.5816,16 8,16 C12.4184,16 16,12.4176 16,8 C16,3.5816 12.4184,0 8,0 L8,0 Z" fill="#000000"></path>
            </g>
        </g>
    </g>
</svg>