<?xml version="1.0" encoding="UTF-8"?>
<svg width="16px" height="16px" viewBox="0 0 16 16" version="1.1" xmlns="http://www.w3.org/2000/svg" xmlns:xlink="http://www.w3.org/1999/xlink">
    <title>icon-phone-fill</title>
    <g id="页面-1" stroke="none" stroke-width="1" fill="none" fill-rule="evenodd">
        <g id="zCloud-icon更新对照表" transform="translate(-1878.000000, -1055.000000)">
            <g id="icon-phone-fill" transform="translate(1878.000000, 1055.000000)">
                <path d="M6.1077602,5.08246157 C6.71767478,4.473454 6.79391411,3.52184844 6.22211919,2.83669929 L4.46856783,0.629000008 C3.89675726,-0.0942120977 2.82937545,-0.208401014 2.10511755,0.362559202 C2.06698223,0.438685146 1.99074291,0.438685146 1.99074291,0.47674812 L0.465925171,1.99926702 C-0.982653251,3.44570685 1.0758554,7.40431851 4.8497801,11.1726309 C8.62370479,14.9409433 12.5119885,16.9583434 13.9605668,15.5499978 L15.4853846,14.0274477 C16.1715385,13.3423141 16.1715385,12.2765196 15.4853846,11.6674965 L15.3710257,11.5533076 L13.1600383,9.80237955 C12.4738688,9.23141935 11.520846,9.30754531 10.9109314,9.91656848 L9.95790856,10.8681584 C8.92866203,10.2591509 8.05189425,9.57398608 7.25136568,8.77464802 C6.48894115,8.01338856 5.84090694,7.13790895 5.19285703,6.11019307 L6.10774455,5.08247719 L6.1077602,5.08246157 Z" fill="#000000" fill-rule="nonzero"></path>
            </g>
        </g>
    </g>
</svg>