<?xml version="1.0" encoding="UTF-8"?>
<svg width="16px" height="16px" viewBox="0 0 16 16" version="1.1" xmlns="http://www.w3.org/2000/svg" xmlns:xlink="http://www.w3.org/1999/xlink">
    <title>icon-expand2-fill</title>
    <g id="页面-1" stroke="none" stroke-width="1" fill="none" fill-rule="evenodd">
        <g id="zCloud-icon更新对照表" transform="translate(-1878.000000, -1005.000000)" fill="#000000" fill-rule="nonzero">
            <g id="icon-expand2-fill" transform="translate(1886.000000, 1013.000000) rotate(-90.000000) translate(-1886.000000, -1013.000000) translate(1878.000000, 1005.000000)">
                <rect id="矩形" opacity="0" x="0" y="0" width="16" height="16"></rect>
                <path d="M10.456,8.812 L7.1216,11.932 C6.99276184,12.0531708 6.82090561,12.1179333 6.64414151,12.111926 C6.46737741,12.1059188 6.30031449,12.0296382 6.18,11.9 C6.05923072,11.7709653 5.99473828,11.599197 6.0007411,11.4225642 C6.00674391,11.2459314 6.08274906,11.0789379 6.212,10.9584 L9.0136,8.336 L6.2216,5.8296 C6.04439626,5.67054536 5.96550789,5.42903574 6.01465138,5.19604548 C6.06379487,4.96305522 6.23350416,4.77398108 6.45985139,4.70004547 C6.68619862,4.62610986 6.93479627,4.67854535 7.112,4.8376 L10.4456,7.8296 C10.5849608,7.95421164 10.6654136,8.13174209 10.6672722,8.31868104 C10.6690671,8.50561998 10.5920991,8.68468875 10.4552,8.812 M8,0 C3.5888,0 0,3.5888 0,8 C0,12.4104 3.5888,16 8,16 C12.4112,16 16,12.4104 16,8 C16,3.5888 12.4112,0 8,0" id="形状"></path>
            </g>
        </g>
    </g>
</svg>