<?xml version="1.0" encoding="UTF-8"?>
<svg width="16px" height="16px" viewBox="0 0 16 16" version="1.1" xmlns="http://www.w3.org/2000/svg" xmlns:xlink="http://www.w3.org/1999/xlink">
    <title>icon-file-fill</title>
    <g id="页面-1" stroke="none" stroke-width="1" fill="none" fill-rule="evenodd">
        <g id="zCloud-icon更新对照表" transform="translate(-1878.000000, -2155.000000)">
            <g id="icon-file-fill" transform="translate(1878.000000, 2155.000000)">
                <path d="M3.05561497,9.07472711e-05 L9.55080214,0.0196921578 C9.68941068,0.0185937104 9.82277909,0.0707254939 9.92149315,0.164589913 C10.0202072,0.258454331 10.0761579,0.386340737 10.0770053,0.520043953 L10.0770053,0.520043953 L10.0770053,3.43136924 C10.0770053,5.01598853 11.6491979,4.91282322 11.6491979,4.91282322 L11.6491979,4.91282322 L14.4727273,4.91282322 C14.6115202,4.91144895 14.7451641,4.96345861 14.8441102,5.05735285 C14.9430564,5.1512471 14.999154,5.27929136 15,5.41317501 L15,5.41317501 L15,15.1282531 C15,16 14.0406417,16 14.2192513,16 L14.2192513,16 L2.84278075,16 C2,16 2,15.1282531 2,15.1282531 L2,0.847078013 C2,0.0931114762 2.73306595,0.00757023287 2.97742127,1.7530595e-13 L3.05561497,9.07472711e-05 Z M11.3550802,11.7825919 L5.66524064,11.7825919 C5.37705034,11.7814527 5.14197571,12.0049785 5.13903743,12.2829536 C5.14256087,12.5609289 5.37811612,12.7839965 5.66631016,12.7822836 L5.66631016,12.7822836 L11.3561497,12.7822836 C11.6439276,12.7834275 11.8788316,12.5605245 11.8823529,12.2829536 C11.8794134,12.004574 11.6436868,11.7808829 11.3550802,11.7825919 L11.3550802,11.7825919 Z M11.3550802,9.25916825 L5.66524064,9.25916825 C5.37705034,9.25802899 5.14197571,9.48155482 5.13903743,9.75952988 C5.14197695,10.0379095 5.37770353,10.2616006 5.66631016,10.2598915 L5.66631016,10.2598915 L11.3561497,10.2598915 C11.64434,10.2610308 11.8794147,10.0375049 11.8823529,9.75952988 C11.8794134,9.48115029 11.6436868,9.25745919 11.3550802,9.25916825 L11.3550802,9.25916825 Z M11.3550802,6.7347129 L5.66524064,6.7347129 C5.37705034,6.73357364 5.14197571,6.95709948 5.13903743,7.23507454 C5.14314312,7.51264539 5.37852771,7.73509086 5.66631016,7.73336303 L5.66631016,7.73336303 L11.3561497,7.73336303 C11.6435162,7.73452268 11.8782502,7.51224119 11.8823529,7.23507454 C11.8794134,6.95669495 11.6436868,6.73300385 11.3550802,6.7347129 L11.3550802,6.7347129 Z M10.9382846,0.70243169 C11.0699965,0.648628165 11.2223501,0.676825331 11.3240642,0.773830636 L11.3240642,0.773830636 L14.3454545,3.68412427 C14.571123,3.89870813 14.4117647,4.27113493 14.0973262,4.27113493 L14.0973262,4.27113493 L11.5272727,4.27113493 C11.5272727,4.27113493 10.7197861,4.23399542 10.7229765,3.48707851 L10.7229765,3.48707851 L10.7229765,1.01936409 C10.7215496,0.881399467 10.8065728,0.756235215 10.9382846,0.70243169 Z" fill="#000000" fill-rule="nonzero"></path>
            </g>
        </g>
    </g>
</svg>