<?xml version="1.0" encoding="UTF-8"?>
<svg width="16px" height="16px" viewBox="0 0 16 16" version="1.1" xmlns="http://www.w3.org/2000/svg" xmlns:xlink="http://www.w3.org/1999/xlink">
    <title>icon-time-selection-fill</title>
    <g id="恩墨图标库" stroke="none" stroke-width="1" fill="none" fill-rule="evenodd">
        <g id="zCloud-icon更新对照表" transform="translate(-1878.000000, -1705.000000)" fill="#000000" fill-rule="nonzero">
            <g id="icon-time-selection-fill" transform="translate(1878.000000, 1705.000000)">
                <rect id="矩形" opacity="0" x="0" y="0" width="16" height="16"></rect>
                <path d="M3.2495965,1.64480001 L3.2495965,3.088 L1.89227886,3.088 C1.6251132,3.09189792 1.40981702,3.31350702 1.40729942,3.5872 L1.40729942,5.72720001 L13.582548,5.72720001 L13.582548,3.5856 C13.5796006,3.31191251 13.3639581,3.09065896 13.0967876,3.0872 L11.7418129,3.0872 L11.7418129,1.64480001 L13.0499297,1.64480001 C14.1269457,1.64700443 14.9991412,2.5415317 15,3.64480001 L15,14 C14.9995707,15.1034505 14.1271241,15.9982353 13.0499297,16 L1.92117457,16 C0.862185663,16 0,15.1024 0,14 L0,3.64480001 C0,2.54320001 0.874681111,1.64480001 1.95007029,1.64480001 L3.2495965,1.64480001 Z M7.4863331,11.796 C6.92247617,11.796 6.46483052,12.2648 6.46483052,12.844 C6.46483052,13.4232 6.9216952,13.892 7.4863331,13.892 C8.0486281,13.892 8.50627375,13.4232 8.50627375,12.844 C8.50627375,12.2648 8.05019003,11.796 7.4863331,11.796 L7.4863331,11.796 Z M3.72832821,11.796 C3.16525224,11.796 2.70760659,12.2648 2.70760659,12.844 C2.69296613,13.2273128 2.88424911,13.5881047 3.2060891,13.7842218 C3.52792909,13.9803389 3.92872733,13.9803389 4.25056732,13.7842218 C4.57240731,13.5881047 4.76369029,13.2273128 4.74904982,12.844 C4.74904982,12.2648 4.2929661,11.796 3.72832821,11.796 Z M11.2193471,7.96400001 C10.8541204,7.96414291 10.5167114,8.16387015 10.3342188,8.48794641 C10.1517263,8.81202267 10.1518751,9.21121306 10.3346093,9.53514641 C10.5173435,9.85907977 10.8549013,10.0585429 11.2201281,10.0584001 C11.7735,10.0425125 12.2139826,9.5782929 12.2137712,9.01121091 C12.2135595,8.44412892 11.7727307,7.98025425 11.2193471,7.9648 L11.2193471,7.96400001 Z M7.4863331,7.96400001 C6.92131019,7.96400001 6.46326862,8.4332056 6.46326862,9.012 C6.46326862,9.59079441 6.92131019,10.06 7.4863331,10.06 C8.0486281,10.06 8.50627375,9.5912 8.50627375,9.012 C8.50627375,8.432 8.05019003,7.96400001 7.4863331,7.96400001 L7.4863331,7.96400001 Z M3.74707137,7.96400001 C3.18204845,7.96400001 2.72400689,8.4332056 2.72400689,9.012 C2.72400689,9.59079441 3.18204845,10.06 3.74707137,10.06 C4.30936637,10.06 4.76701202,9.5912 4.76701202,9.012 C4.76701202,8.432 4.31014733,7.96400001 3.74707137,7.96400001 L3.74707137,7.96400001 Z M10.4704014,0.000800013965 C10.9233613,0.000800013965 11.3075962,0.384800018 11.3075962,0.8392 L11.3075962,3.90080001 C11.3075962,4.35440001 10.9241422,4.7376 10.4704014,4.7376 C10.0192972,4.73715991 9.65359146,4.36289846 9.65273077,3.90080001 L9.65273077,0.838400001 C9.65273077,0.376000006 10.0197845,0 10.4704014,0 L10.4704014,0.000800013965 Z M4.49992189,0.000800013965 C4.95444369,0.000800013965 5.3386786,0.384800018 5.3386786,0.8392 L5.3386786,3.90080001 C5.3386786,4.35440001 4.95444369,4.7376 4.49992189,4.7376 C4.04930031,4.73628174 3.68431912,4.36240474 3.68303223,3.90080001 L3.68303223,0.838400001 C3.68303223,0.376000006 4.05008591,0 4.49992189,0 L4.49992189,0.000800013965 Z M9.21851408,1.64560001 L9.21851408,3.09360001 L5.77289529,3.09360001 L5.77289529,1.64560001 L9.21851408,1.64560001 Z" id="形状"></path>
            </g>
        </g>
    </g>
</svg>