<?xml version="1.0" encoding="UTF-8"?>
<svg width="16px" height="16px" viewBox="0 0 16 16" version="1.1" xmlns="http://www.w3.org/2000/svg" xmlns:xlink="http://www.w3.org/1999/xlink">
    <title>icon-error-fill</title>
    <g id="恩墨图标库" stroke="none" stroke-width="1" fill="none" fill-rule="evenodd">
        <g id="zCloud-icon更新对照表" transform="translate(-1878.000000, -455.000000)" fill="#000000" fill-rule="nonzero">
            <g id="icon-error-fill" transform="translate(1878.000000, 455.000000)">
                <rect opacity="0" x="0" y="0" width="16" height="16"></rect>
                <path d="M10.872,9.928 C11.1326784,10.1886784 11.1326784,10.6113216 10.872,10.872 C10.6113216,11.1326784 10.1886784,11.1326784 9.928,10.872 L7.8664,8.8096 L5.8048,10.8712 C5.68011055,10.9970022 5.5103261,11.0677715 5.3332,11.0677715 C5.1560739,11.0677715 4.98628945,10.9970022 4.8616,10.8712 C4.60137589,10.6109583 4.60137589,10.1890417 4.8616,9.9288 L6.924,7.8664 L4.8624,5.8048 C4.60194251,5.54456343 4.60176343,5.12245749 4.862,4.862 C5.12223657,4.60154251 5.54434251,4.60136343 5.8048,4.8616 L7.8664,6.924 L9.9288,4.8624 C10.1896528,4.605806 10.6086057,4.60753004 10.8673378,4.86626218 C11.12607,5.12499433 11.127794,5.54394723 10.8712,5.8048 L8.8096,7.8664 L10.8712,9.9288 L10.872,9.928 Z M8,0 C3.5896,0 0,3.5896 0,8 C0,12.4112 3.5896,16 8,16 C12.4112,16 16,12.4112 16,8 C16,3.5896 12.4112,0 8,0 Z"></path>
            </g>
        </g>
    </g>
</svg>