<?xml version="1.0" encoding="UTF-8"?>
<svg width="16px" height="16px" viewBox="0 0 16 16" version="1.1" xmlns="http://www.w3.org/2000/svg" xmlns:xlink="http://www.w3.org/1999/xlink">
    <title>icon-upload-fill</title>
    <g id="页面-1" stroke="none" stroke-width="1" fill="none" fill-rule="evenodd">
        <g id="zCloud-icon更新对照表" transform="translate(-1878.000000, -2105.000000)">
            <g id="icon-upload-fill" transform="translate(1878.000000, 2105.000000)">
                <rect x="0" y="0" width="16" height="16"></rect>
                <path d="M8.91862857,14 L8.91862857,10.4006374 L10.5593873,10.4006374 C10.6575725,10.3989673 10.7510508,10.3595012 10.8192505,10.2909245 C10.8874501,10.2223478 10.924782,10.1302803 10.9230306,10.0349834 C10.9226343,9.94461928 10.8882346,9.8575093 10.8263015,9.7900376 L8.28225273,7.00739645 C8.21537785,6.93350632 8.11925655,6.89074162 8.01793051,6.88979858 C7.91660448,6.88885554 7.81965593,6.92982333 7.75133347,7.00245518 L5.09964628,9.78580222 C4.96063079,9.93296067 4.96608754,10.1603881 5.11201016,10.3011061 C5.17871071,10.3649597 5.26851158,10.4009384 5.36219678,10.4013433 L7.09823005,10.4013433 L7.09823005,14 L3.64289109,14 L3.64289109,13.9957646 C1.53448706,13.898351 -0.0946350713,12.110317 0.00427591513,10.0018063 C0.0944594559,8.02812175 1.67485338,6.45044468 3.64652753,6.36079592 C3.75052953,3.85063055 5.86911558,1.89953463 8.37898187,2.00400721 C10.8881209,2.10777388 12.8372491,4.22757889 12.7332471,6.73845016 C14.7325582,6.94315993 16.1864042,8.73189983 15.9805821,10.7317026 C15.7973058,12.5162071 14.3420052,13.9011746 12.5514255,13.9950587 L12.5514255,14 L8.91862857,14 L8.91862857,14 Z" fill="#000000" fill-rule="nonzero"></path>
            </g>
        </g>
    </g>
</svg>