<?xml version="1.0" encoding="UTF-8"?>
<svg width="16px" height="16px" viewBox="0 0 16 16" version="1.1" xmlns="http://www.w3.org/2000/svg" xmlns:xlink="http://www.w3.org/1999/xlink">
    <title>icon-export-fill</title>
    <g id="恩墨图标库" stroke="none" stroke-width="1" fill="none" fill-rule="evenodd">
        <g id="zCloud-icon更新对照表" transform="translate(-1878.000000, -655.000000)">
            <g id="icon-export-fill" transform="translate(1878.000000, 655.000000)">
                <path d="M10.15288,0 L10.15288,4.6128 C10.15208,4.8088 10.22568,4.9952 10.36008,5.1384 C10.49368,5.2768 10.68008,5.3576 10.87128,5.3576 L10.87128,5.3576 L15.31768,5.3576 L15.31768,14.64 C15.31768,15.3912 14.70888,16 13.95688,16 L13.95688,16 L3.12728,16 C2.37608,16 1.76728,15.3912 1.76728,14.6408 L1.76728,14.6408 L1.76728,11.6464 L6.50168,11.6464 L5.23848,12.9584 C4.96008,13.2528 4.96008,13.7128 5.23688,14.0056 L5.23688,14.0056 L5.26488,14.0336 C5.39688,14.1584 5.56728,14.2264 5.74808,14.2264 L5.74808,14.2264 L5.76728,14.2264 C5.95448,14.2216 6.12968,14.1432 6.25848,14.0072 L6.25848,14.0072 L8.75928,11.4104 C9.03208,11.1272 9.03208,10.6784 8.75928,10.3952 L8.75928,10.3952 L6.26008,7.7992 C6.08008,7.6096 5.81048,7.536 5.56088,7.6064 C5.31128,7.6784 5.11688,7.88 5.05368,8.132 C4.98728,8.3888 5.05608,8.656 5.23928,8.848 L5.23928,8.848 L6.50168,10.1584 L1.76728,10.1584 L1.76728,1.36 C1.76728,0.6088 2.37608,0 3.12728,0 L3.12728,0 L10.15288,0 Z M11.59144,2.54688 L12.86744,3.87088 L11.59144,3.87088 L11.59144,2.54688 Z" id="形状结合" fill="#000000"></path>
            </g>
        </g>
    </g>
</svg>