<?xml version="1.0" encoding="UTF-8"?>
<svg width="16px" height="16px" viewBox="0 0 16 16" version="1.1" xmlns="http://www.w3.org/2000/svg" xmlns:xlink="http://www.w3.org/1999/xlink">
    <title>icon-group-fill</title>
    <g id="页面-1" stroke="none" stroke-width="1" fill="none" fill-rule="evenodd">
        <g id="zCloud-icon更新对照表" transform="translate(-1878.000000, -1205.000000)" fill="#000000" fill-rule="nonzero">
            <g id="icon-group-fill" transform="translate(1878.000000, 1205.000000)">
                <rect id="矩形" opacity="0" x="0" y="0" width="16" height="16"></rect>
                <path d="M14.9872,10.196 C14.8912,10.1536 13.2112,9.4216 11.3248,9.0248 C12.2948988,8.40537085 12.8823582,7.3341924 12.8832,6.1832 L12.8832,4.176 C12.8832052,2.31460642 11.3765884,0.804410885 9.5152,0.8 C8.54857609,0.800700698 7.62912434,1.21786476 6.992,1.9448 C6.44651733,2.55974942 6.14513826,3.35318174 6.1448,4.1752 L6.1448,6.1832 C6.1448,7.3168 6.7072,8.32 7.5656,8.9328 C5.492,9.2904 3.5256,10.1488 3.4328,10.1904 C2.8744,10.4192 2.4536,11.048 2.4536,11.6536 L2.4536,14.0768 L2.4648,14.0768 C2.5470751,14.7015126 3.07949288,15.1685758 3.7096,15.1688 L14.696,15.1688 C15.2456,15.1688 15.7368,14.8088 15.9192,14.2736 L15.9512,14.1776 L15.9512,11.6536 C15.9512,11.0432 15.5296,10.4136 14.988,10.196 M4.3408,8.812 C5.012,8.6024 5.3296,8.4856 5.3296,8.4856 C5.3296,8.4856 5.764,8.2936 5.6496,7.9104 C5.38,7.3984 5.1888,7.0024 5.1888,5.5072 L5.1888,3.5648 C5.1888,3.5648 5.304,2.6192 5.6688,2.5296 C5.6976,2.4976 5.7024,2.452 5.6896,2.4008 C5.5940192,2.17391833 5.37179298,2.0264 5.1256,2.0264 C3.72144923,2.02904678 2.58443865,3.16784681 2.584,4.572 L2.584,6.1872 C2.584,6.8144 2.8208,7.3832 3.1984,7.8272 C2.34921749,8.09833116 1.52959125,8.4545389 0.752,8.8904 C0.3144,9.0976 0.0008,9.5944 0.0008,10.088 L0.0008,11.8496 C0.0008,12.1888 0.2752,12.4632 0.6144,12.4632 C0.924471001,12.4607146 1.18299386,12.2252864 1.2144,11.9168 C1.2168,11.8944 1.228,11.8736 1.228,11.8496 L1.228,11.5688 C1.2768,10.988 1.4944,9.9328 2.3968,9.4392 C2.5352,9.3776 2.6824,9.3176 2.8328,9.2584 C3.3376,9.116 3.8408,8.9672 4.3416,8.812" id="形状"></path>
            </g>
        </g>
    </g>
</svg>