<?xml version="1.0" encoding="UTF-8"?>
<svg width="16px" height="16px" viewBox="0 0 16 16" version="1.1" xmlns="http://www.w3.org/2000/svg" xmlns:xlink="http://www.w3.org/1999/xlink">
    <title>icon-database-fill</title>
    <g id="页面-1" stroke="none" stroke-width="1" fill="none" fill-rule="evenodd">
        <g id="zCloud-icon更新对照表" transform="translate(-1878.000000, -2305.000000)">
            <g id="icon-database-fill" transform="translate(1878.000000, 2305.000000)">
                <rect x="0" y="0" width="16" height="16"></rect>
                <path d="M1.09695933,3.1209948 C1.4249707,3.75183416 2.06655271,4.12167639 2.74379453,4.41818532 C2.87081421,4.47304091 2.99636034,4.51374954 3.12750594,4.5654293 C3.56573857,4.73952365 4.05230351,4.85125584 4.54594149,4.97395915 C4.7634369,5.02679375 4.98830004,5.04758114 5.20933196,5.09983831 C5.26355846,5.10503516 5.31778495,5.11369656 5.37142203,5.11889341 C5.58243384,5.16566504 5.81967478,5.1754813 6.04218024,5.21359149 C6.11114221,5.21965449 6.1780412,5.22514004 6.24700317,5.23004818 C6.48571765,5.26931324 6.75685014,5.26931324 7.00263764,5.29067804 C7.08397739,5.29269903 7.16620127,5.29500873 7.24871985,5.3004943 C7.35452047,5.31521869 7.47918247,5.30973314 7.59588733,5.30973314 C7.72438055,5.30973314 7.85965208,5.31435257 7.99492362,5.31435257 C8.1761698,5.312909 8.35888953,5.3105993 8.5401357,5.30973314 C8.62412783,5.30540244 8.70782525,5.30280401 8.79181739,5.3004943 C8.86048464,5.29500873 8.92944659,5.29269903 8.99811385,5.29067804 C9.0249324,5.28663605 9.05145622,5.28403762 9.07827475,5.28201664 C9.15725684,5.28403763 9.25952093,5.27595365 9.33437709,5.26382768 C9.3667951,5.26296154 9.39773957,5.26296154 9.43015758,5.26094054 C9.51739151,5.24621615 9.61729795,5.24621615 9.70453187,5.23351274 C9.74549646,5.22975947 9.78646104,5.22744974 9.8265415,5.22456261 C9.9733067,5.19886709 10.1365756,5.19800095 10.2795096,5.16768601 C10.3366832,5.16162302 10.3932674,5.15527133 10.4513251,5.14834221 C10.6231405,5.12235797 10.794956,5.09464147 10.9664768,5.06779109 C11.108232,5.03112445 11.2638384,5.00860479 11.4014676,4.97771242 C11.4380116,4.96962844 11.4742608,4.9644316 11.5108048,4.95836861 C11.621026,4.9243004 11.7389097,4.90870985 11.8526675,4.87752878 C12.1019915,4.8062165 12.3566202,4.74038979 12.5917982,4.65810639 C12.7506465,4.60440565 12.9003588,4.55503561 13.0506605,4.49758158 C13.2171712,4.43319844 13.379556,4.35178118 13.5342784,4.27902534 C13.654225,4.22157131 13.7709299,4.16642701 13.8796776,4.09742443 C13.990783,4.02986543 14.0992359,3.95768701 14.2026789,3.88319889 C14.2256662,3.86616477 14.25219,3.8497081 14.2760615,3.83296271 C14.3052377,3.80784462 14.3323509,3.78330395 14.3615272,3.75991815 C14.5648765,3.60285792 14.7929815,3.34792374 14.8973085,3.10049612 C14.9332631,3.01994501 14.9553663,2.9330422 14.981006,2.83661182 C14.9836583,2.81149374 14.9851319,2.78608693 14.9877843,2.76039142 C15.029633,2.54703201 14.9512403,2.33309518 14.8878778,2.18787221 C14.7579111,1.89425039 14.5274485,1.66789888 14.2828398,1.48369955 C14.2356863,1.44587806 14.189417,1.40372586 14.1416741,1.37138993 C14.0458936,1.31104877 13.9486395,1.25590447 13.8537431,1.19469717 C13.7102197,1.10375236 13.5504873,1.0350385 13.3907549,0.957951959 C13.1217777,0.827519385 12.8429438,0.717579194 12.5567278,0.629107087 C12.4603579,0.599369577 12.3704716,0.578582193 12.2723334,0.545668838 C11.9092516,0.427584937 11.5084471,0.349920969 11.1100002,0.264461728 C10.9246281,0.224619239 10.7339512,0.2070077 10.5471056,0.16976363 L9.91819606,0.08921253 C9.82094202,0.0736219835 9.72015146,0.0753542797 9.62790748,0.0597637332 C9.59460534,0.0588975936 9.56218733,0.0565878881 9.52976929,0.056587871 C9.46552268,0.0450393262 9.39302421,0.0505248769 9.32111516,0.0398424888 C9.28831591,0.0350615535 9.25539566,0.0311144747 9.22238757,0.0280052309 C9.19270152,0.0253386038 9.16290079,0.024086032 9.13309068,0.0242519423 C9.05229127,0.0190018761 8.97143833,0.0145746956 8.89054497,0.0109711184 C8.85075922,0.0031758451 8.79653273,0.0153018162 8.76853536,0 L7.22455368,0 L7.22455368,0.00606297701 C7.12199487,0.00779525616 7.00293234,0.00779525616 6.90243651,0.0242519423 C6.82168617,0.0349343474 6.74005171,0.0285826401 6.66696382,0.0395537756 C6.60979024,0.0473490489 6.54642774,0.0441731867 6.49308537,0.0528345995 C6.46331973,0.0548555918 6.43325939,0.0548555918 6.40349377,0.056587871 C6.32303814,0.0684251289 6.23256242,0.0713122608 6.1556433,0.0831495359 C6.11703639,0.0869028074 6.07489297,0.08921253 6.03510723,0.0929658015 C5.86122878,0.127322723 5.67143604,0.130787298 5.50197823,0.164566793 C5.41268133,0.182178331 5.32927863,0.183910611 5.23880289,0.200078566 C5.02926463,0.239343629 4.80440149,0.267060146 4.60694628,0.321915738 C4.54004729,0.34068213 4.47845306,0.342703122 4.41184878,0.359159808 C4.26508359,0.40015715 4.11655014,0.432781792 3.96831138,0.468582279 C3.85867955,0.495432657 3.74727946,0.536141285 3.63528996,0.564723943 C3.52831051,0.591574321 3.41808925,0.636036221 3.31641456,0.672414134 C3.15903983,0.726981013 3.01050638,0.774907488 2.86020468,0.836980927 C2.76530831,0.878844408 2.67218019,0.92648217 2.57433671,0.961705247 C2.53543509,0.982781345 2.49653348,1.00183645 2.45674773,1.02291255 C2.3120455,1.09220383 2.16793268,1.16264997 2.03678708,1.24926406 C1.9607521,1.29978896 1.88471711,1.35868655 1.80661917,1.4063243 C1.72498471,1.45569434 1.65955926,1.52325333 1.58647137,1.57810894 C1.43410669,1.69417183 1.31710713,1.84083839 1.20865414,1.99645503 C1.17446787,2.04553636 1.13645037,2.09894839 1.11110539,2.15409271 C1.08192917,2.21472258 1.06748842,2.27823959 1.03831221,2.34493244 C0.996463495,2.44569351 1.00020295,2.57070653 1.00020295,2.71275366 L1.00020295,2.84065383 C1.01945081,2.8675042 1.01945081,2.90907897 1.03006034,2.94228104 C1.04951116,3.00291091 1.06778313,3.06729406 1.09695933,3.1209948 L1.09695933,3.1209948 Z M1.10933712,8.53784072 C1.18065675,8.67786686 1.27850021,8.79681688 1.37280719,8.91461207 C1.39726805,8.93828658 1.42231834,8.96282725 1.4467792,8.98592434 C1.5711465,9.13259088 1.77007523,9.26713145 1.93629122,9.3756878 C2.0503437,9.45046464 2.17176389,9.53159318 2.299373,9.5953989 C2.36892439,9.62888968 2.43611809,9.65689491 2.5065536,9.69529383 C2.56637958,9.72474263 2.63209973,9.75909955 2.69575692,9.78623864 C2.88024491,9.85986063 3.06797469,9.93117291 3.25599916,10.0065272 C3.4136686,10.0662909 3.57281158,10.0997817 3.73666992,10.1531937 C4.15574645,10.290044 4.6137246,10.3645321 5.07523926,10.4644271 L5.59304339,10.5464217 C5.65640587,10.552196 5.72006307,10.56028 5.78313084,10.5660543 C5.98765906,10.6004112 6.21370103,10.6030096 6.42323929,10.6390988 C6.47363457,10.639965 6.52520869,10.6457393 6.5770775,10.648049 C6.7592078,10.6760542 6.96874606,10.6595975 7.15500232,10.6876027 C7.18771504,10.6899124 7.22101718,10.6899124 7.25490874,10.6899124 L7.57319472,10.6971303 C7.69933027,10.7161854 7.8505161,10.7046368 7.98814531,10.7046368 C8.12813218,10.7046368 8.28197041,10.7161854 8.41311603,10.6971303 C8.55369232,10.6948206 8.69397393,10.6890463 8.83484493,10.687314 C8.92708892,10.6725896 9.03053187,10.687314 9.12925945,10.6708573 C9.20057909,10.6601749 9.28015057,10.6682589 9.35795382,10.6561329 C9.49823541,10.6347681 9.65531543,10.6356343 9.79117638,10.611671 C9.81593195,10.611671 9.84333992,10.6093613 9.87074788,10.6093613 C10.0808756,10.5830884 10.291298,10.5559493 10.4996574,10.5314086 C10.8798323,10.4626948 11.2523448,10.4052408 11.613953,10.3241122 C11.9176205,10.2537773 12.2177657,10.1695735 12.5134056,10.0717765 C12.6784427,10.0183644 12.8346386,9.97245894 12.9911292,9.90865324 C13.104887,9.86274778 13.2168765,9.81280031 13.3297501,9.7686271 C13.3707147,9.74812843 13.4116793,9.72676362 13.4517598,9.70886337 C13.7491214,9.58587135 14.0105285,9.40917858 14.254253,9.23190839 C14.3254611,9.18097273 14.3931014,9.12541498 14.4567182,9.0656093 C14.4814738,9.04193479 14.5062294,9.02056998 14.5318691,8.99862774 C14.5916951,8.92904774 14.6524052,8.86091133 14.7128206,8.79392975 C14.7375761,8.76852295 14.7505433,8.73560958 14.7708783,8.70875922 C14.8675429,8.57017665 14.9426938,8.41138414 14.9827742,8.21794597 C15.0031092,8.11545262 14.9948573,7.98755247 14.9948573,7.86715886 L14.9948573,4.38498325 C14.9948573,4.27238492 15.0075298,4.13004907 14.993089,4.03275258 C14.988079,4.02957673 14.9827742,4.02409116 14.9751118,4.02957673 C14.960671,4.04487855 14.9597869,4.09973416 14.9530086,4.12571838 L14.9170541,4.19876293 C14.8265783,4.35149247 14.6871809,4.47737163 14.5427733,4.57986498 C14.3084795,4.74212207 14.0479565,4.87406422 13.7806553,5.00744993 C13.7497108,5.02419533 13.7199452,5.02823732 13.6884113,5.04238428 C13.5976408,5.0851139 13.4962609,5.13188552 13.4004804,5.16566502 C13.3618734,5.17952327 13.3276872,5.1864524 13.2902591,5.20290909 C13.0586176,5.29760717 12.8016312,5.382489 12.5493601,5.45380126 C12.244336,5.53897179 11.9325337,5.61028407 11.6180789,5.69054647 C11.438601,5.73760681 11.2488083,5.75695061 11.0687409,5.80198995 C11.0201139,5.80776423 10.9706027,5.81296107 10.9225651,5.82248862 C10.7416137,5.8580004 10.5415061,5.88282978 10.3543657,5.91458829 C10.2397238,5.9339321 10.1132936,5.93797409 9.99865169,5.95962763 C9.77997743,5.98128115 9.56130318,6.00235725 9.3417448,6.02314463 C9.26246801,6.03613674 9.17729705,6.03007377 9.10420917,6.04017873 L9.05145622,6.04017873 C8.97542125,6.04624172 8.90027039,6.05086113 8.8242354,6.05576928 C8.74348506,6.05692413 8.66332417,6.05952255 8.58257383,6.06038869 C8.52923146,6.0690501 8.46498485,6.05952255 8.40515887,6.06818396 C8.28550693,6.0857955 8.14463591,6.07251466 8.01673211,6.07251467 C7.89030185,6.07251467 7.73440066,6.0857955 7.61857993,6.06818396 C7.56258519,6.06818396 7.50835867,6.06645168 7.45236392,6.06645168 C7.37986545,6.05576928 7.28850559,6.0690501 7.20981823,6.05721284 L6.66666911,6.02487691 C6.57442512,6.01015252 6.46538271,6.01015252 6.37402284,5.99542812 C6.34543604,5.99456198 6.31625983,5.9928297 6.28796775,5.99225227 C6.19660789,5.97666172 6.09876443,5.97666172 6.0020998,5.96251476 C5.77075306,5.92238356 5.53203857,5.9105463 5.30334421,5.86695054 C5.12327687,5.83230491 4.94144126,5.80603195 4.76019509,5.77167502 C4.66971935,5.75406348 4.56833939,5.72807926 4.47874777,5.71046772 C4.4380779,5.70122888 4.40742813,5.70122888 4.36675826,5.69083519 C4.24533805,5.65849926 4.11419245,5.63107145 3.99454051,5.59960168 C3.93854576,5.58574343 3.88756106,5.58170143 3.83274513,5.56322375 C3.75641544,5.53752822 3.67036033,5.52684582 3.59108356,5.49941803 C3.44697074,5.45004799 3.29077485,5.40471995 3.14754617,5.36054675 C2.51156365,5.16595373 1.91271449,4.91073084 1.42968606,4.5654293 C1.25963884,4.4450357 1.05157412,4.27584949 1.01355662,4.03015416 C1.00972541,4.03015416 1.00442063,4.03015416 1.00058942,4.02928802 L1.00058942,8.2312268 C1.01945081,8.25836589 1.02062965,8.29676479 1.03035505,8.33458629 C1.04862703,8.40185658 1.07662439,8.47576728 1.10933712,8.53784072 L1.10933712,8.53784072 Z M14.9924996,9.32371932 C14.9874896,9.32227576 14.9821848,9.31534663 14.9745224,9.32227576 C14.9600816,9.33700015 14.9591975,9.39185576 14.9524192,9.41899485 C14.9406308,9.44035966 14.9285477,9.46663261 14.9164646,9.49117327 C14.8259889,9.64332537 14.6865914,9.77122552 14.5421839,9.87285274 C14.3078901,10.035976 14.0473671,10.1661858 13.7800658,10.3004377 C13.7491214,10.3168944 13.7193557,10.3200702 13.6878218,10.3347946 C13.5970514,10.375792 13.4956714,10.4242959 13.3998909,10.4569205 C13.361284,10.4716449 13.3270978,10.4782853 13.2896697,10.4938759 C13.0580282,10.5897288 12.8010418,10.6748993 12.5487707,10.7462116 C12.2437466,10.8299386 11.9319443,10.9026944 11.6174895,10.9838229 C11.4380116,11.0305946 11.2482188,11.0493609 11.0681515,11.0935341 C11.0195245,11.1001746 10.9700133,11.1059488 10.9219757,11.1140328 C10.7410242,11.1509882 10.5409167,11.1746627 10.3537763,11.2067099 C10.2391344,11.2263424 10.1127042,11.2303844 9.99806227,11.2508831 C9.77938802,11.2739802 9.56071376,11.2950563 9.34115539,11.3146888 C9.2618786,11.3285471 9.17670763,11.3213292 9.10361976,11.3334552 L9.05086681,11.3334552 C8.97483183,11.3374972 8.89968098,11.3424053 8.82364598,11.3481796 C8.74289565,11.3490457 8.66273475,11.3513555 8.58198441,11.3522216 C8.52864204,11.3605943 8.46439543,11.3513555 8.40456945,11.358862 C8.28491751,11.3776284 8.14404649,11.3646363 8.01614269,11.3646363 C7.88971243,11.3646363 7.73381124,11.3779171 7.61799052,11.358862 C7.56199577,11.358862 7.50776925,11.3579959 7.45177451,11.3579959 C7.37927603,11.3481796 7.28791617,11.3605943 7.20922881,11.3490457 C7.02709851,11.3374972 6.84703116,11.3268148 6.66607969,11.3161324 C6.5738357,11.301408 6.46479329,11.301408 6.37343343,11.2881272 C6.34484663,11.2858175 6.31567041,11.2849513 6.28737833,11.283219 C6.19601847,11.2684946 6.09817501,11.2684946 6.00151038,11.2529041 C5.77016364,11.2145052 5.53144916,11.2029566 5.30275479,11.1587834 C5.12268745,11.1226942 4.94085185,11.0990197 4.75960567,11.0629305 C4.66912993,11.0464738 4.56774997,11.0193347 4.47815835,11.0023006 C4.43748848,10.9924844 4.40683872,10.9924844 4.36616884,10.9835342 C4.24474863,10.9500434 4.11360303,10.9229044 3.99395109,10.8908571 C3.93795634,10.8761328 3.88697164,10.8726682 3.83215571,10.8556341 C3.75582603,10.8293611 3.66977092,10.8172352 3.59049414,10.7892299 C3.44638132,10.7398599 3.29018543,10.6959754 3.14695676,10.6515135 C2.51097423,10.4566318 1.91212507,10.2025637 1.42909664,9.85783963 C1.25904942,9.73484761 1.0509847,9.5676824 1.0129672,9.32198705 C1.00913599,9.32198705 1.00383121,9.32198705 1,9.32025477 L1,13.5216161 C1.01886139,13.5501988 1.02004023,13.5885977 1.02976564,13.6255531 C1.0477429,13.6942669 1.07603498,13.7673115 1.10845299,13.8302511 C1.17977263,13.9711433 1.27761609,14.0892272 1.37192306,14.2070224 C1.39638392,14.2301195 1.42143422,14.2552376 1.44589508,14.2774685 C1.57026237,14.4250012 1.76919111,14.5592531 1.9354071,14.6675207 C2.04945957,14.742875 2.17087976,14.8240035 2.29848888,14.886077 C2.36804026,14.9221662 2.43523396,14.9484391 2.50566947,14.9859719 C2.56549545,15.0162868 2.6312156,15.0515099 2.6948728,15.0777828 C2.87936078,15.1514048 3.06709056,15.2244494 3.25511504,15.2980714 C3.41278448,15.3578351 3.57192746,15.392192 3.7357858,15.4461815 C4.15486232,15.5821656 4.61284048,15.6566537 5.07435513,15.7565487 C5.24721187,15.7823094 5.41982068,15.8096421 5.59215925,15.8385433 C5.65552173,15.8443176 5.71917892,15.8500919 5.78224671,15.8573097 C5.98677493,15.8925328 6.2128169,15.8951312 6.42235516,15.9309317 C6.47275045,15.932664 6.52432456,15.9375721 6.57619337,15.9384383 C6.75832367,15.9670209 6.96786193,15.9514304 7.15411819,15.9785695 C7.18683091,15.9803018 7.22013305,15.9803018 7.25402461,15.9811679 C7.36070935,15.9834776 7.46533113,15.986076 7.57231059,15.9878083 C7.69844614,16.008307 7.84963197,15.9967584 7.98726118,15.9967584 C8.12724806,15.9967584 8.28108628,16.008307 8.4122319,15.9878083 C8.5528082,15.986076 8.6930898,15.9811679 8.83396081,15.9788582 C8.9262048,15.9649999 9.02964774,15.9788582 9.12837533,15.9641338 C9.19969496,15.9525853 9.27926645,15.9592257 9.35706969,15.9485433 C9.49735128,15.9271784 9.6544313,15.9271784 9.79029226,15.9049475 C9.81504783,15.9049475 9.84245579,15.9017717 9.86986376,15.9000394 C10.0799914,15.8754987 10.2904138,15.8483596 10.4987733,15.8220867 C10.8789482,15.7556825 11.2514606,15.6967849 11.6130689,15.6147903 C11.9166363,15.5447586 12.2167686,15.4611364 12.5125214,15.3641868 C12.6775586,15.3110635 12.8337545,15.2642918 12.9902451,15.2004861 C13.1040029,15.1545807 13.2159924,15.1054993 13.328866,15.0613262 C13.3698306,15.0408275 13.4107952,15.0185965 13.4508756,15.0006963 C13.7482372,14.8777043 14.0096443,14.7015889 14.2533689,14.52403 C14.3258673,14.4732164 14.3918822,14.4166285 14.4558341,14.3568648 C14.4805897,14.3340564 14.5053453,14.3126916 14.530985,14.2913268 C14.5908109,14.2226129 14.6515211,14.1536104 14.7119364,14.0866288 C14.736692,14.0603558 14.7496592,14.0294635 14.7699942,14.0014582 C14.8739898,13.853476 14.9460906,13.6862729 14.9818901,13.5100676 C15.002225,13.4075742 14.9939732,13.2805402 14.9939732,13.1592805 L14.9939732,9.67595002 C14.9942679,9.56537268 15.0069404,9.42101584 14.9924996,9.32371932 L14.9924996,9.32371932 Z" fill="#000000" fill-rule="nonzero"></path>
            </g>
        </g>
    </g>
</svg>