<?xml version="1.0" encoding="UTF-8"?>
<svg width="16px" height="16px" viewBox="0 0 16 16" version="1.1" xmlns="http://www.w3.org/2000/svg" xmlns:xlink="http://www.w3.org/1999/xlink">
    <title>icon-oracle-fill</title>
    <g id="恩墨图标库" stroke="none" stroke-width="1" fill="none" fill-rule="evenodd">
        <g id="zCloud-icon更新对照表" transform="translate(-1131.000000, -355.000000)" fill="#000000" fill-rule="nonzero">
            <g id="icon-oracle-fill" transform="translate(1131.000000, 355.000000)">
                <rect opacity="0" x="0" y="0" width="16" height="16"></rect>
                <path d="M14.0848,1.6 C15.1536,1.6 16,2.4568 16,3.544 L16,12.4584 C16,13.544 15.0984,14.4 14.0848,14.4 L1.9152,14.4 C0.8456,14.4 0,13.5448 0,12.4592 L0,3.5456 C0,2.4576 0.9024,1.6 1.9152,1.6 L14.0848,1.6 Z M10.8728,3.8864 L4.9584,3.8864 C2.8152,3.8864 1.1264,5.6576 1.1264,7.7712 L1.1264,8.2272 C1.1264,10.3992 2.8736,12.1136 4.9584,12.1136 L10.872,12.1136 C13.0144,12.1136 14.704,10.3408 14.704,8.2272 L14.7048,8.2272 L14.7048,7.7712 C14.7048,5.6 12.9576,3.8864 10.8728,3.8864 Z M10.9304,5.4864 C12.1704,5.4864 13.24,6.6272 13.24,7.8288 L13.24,8.2872 C13.24,9.6 12.224,10.6288 10.9304,10.6288 L5.0136,10.6288 C3.7176,10.6288 2.704,9.6 2.704,8.2872 L2.704,7.8288 C2.704,6.5136 3.7184,5.4872 5.0136,5.4872 L10.9304,5.4864 Z"></path>
            </g>
        </g>
    </g>
</svg>