<?xml version="1.0" encoding="UTF-8"?>
<svg width="16px" height="16px" viewBox="0 0 16 16" version="1.1" xmlns="http://www.w3.org/2000/svg" xmlns:xlink="http://www.w3.org/1999/xlink">
    <title>icon-view-fill</title>
    <g id="页面-1" stroke="none" stroke-width="1" fill="none" fill-rule="evenodd">
        <g id="zCloud-icon更新对照表" transform="translate(-1878.000000, -1505.000000)">
            <g id="icon-view-fill" transform="translate(1878.000000, 1505.000000)">
                <rect x="0" y="0" width="16" height="16"></rect>
                <path d="M5.2749426,8.9712 L5.2749426,7.4432 C5.27626513,5.94052042 6.49386348,4.72256416 7.9965426,4.7208 C9.49890928,4.72300489 10.7160209,5.94083229 10.7173426,7.4432 L10.7173426,8.9712 C10.7160209,10.4735677 9.49890928,11.6913951 7.9965426,11.6936 C6.49386348,11.6918358 5.27626513,10.4738796 5.2749426,8.9712 M15.7949426,7.2504 C15.7517426,7.1504 15.2269426,5.976 14.1189426,4.7648 C12.8757426,3.4064 10.8957426,2 7.9965426,2 C5.0973426,2 3.1157426,3.408 1.8741426,4.764 C0.766142602,5.9728 0.245342602,7.1384 0.210942602,7.2192 C-0.0594573978,7.748 -0.0658573978,8.5136 0.168542602,8.9792 C0.178942602,9.0064 0.685342602,10.2752 1.8741426,11.5616 C3.1061426,12.8944 5.0725426,14.2448 7.9965426,14.2448 C10.9197426,14.2448 12.8877426,12.8912 14.1189426,11.5616 C15.3069426,10.2792 15.8093426,9.0192 15.8101426,9.016 C16.0597426,8.4864 16.0413426,7.7048 15.7957426,7.2512" id="形状" fill="#000000" fill-rule="nonzero"></path>
            </g>
        </g>
    </g>
</svg>