<?xml version="1.0" encoding="UTF-8"?>
<svg width="16px" height="16px" viewBox="0 0 16 16" version="1.1" xmlns="http://www.w3.org/2000/svg" xmlns:xlink="http://www.w3.org/1999/xlink">
    <g fill="#000" fill-rule="nonzero">
        <path d="M15.9627799,7.55427533 C15.7609075,5.82152523 15.0377274,4.19089333 13.8889147,2.87810821 C13.5017894,2.47925232 13.1909085,2.012931 12.9716282,1.50217844 C12.9716282,1.44235541 12.9716282,1.39250288 12.8818937,1.34265036 C12.8262793,1.68195279 12.6213357,1.97838916 12.3235454,2.15026131 C12.1544959,2.27103938 12.0005186,2.41162742 11.8649021,2.56902255 C11.1979317,3.20860674 10.6597797,3.97014256 10.2795917,4.81238629 C9.89218287,5.61874899 9.6299385,6.47944846 9.50189228,7.36483571 C9.26752423,8.77905124 9.487435,10.2311604 10.1300341,11.512566 C10.5430929,12.3834256 11.1301179,13.1604702 11.8549316,13.7958118 C11.8655539,14.3685789 11.8389097,14.9414305 11.7751676,15.5107388 L13.1112153,15.6204143 C13.1186977,15.0123867 13.1720249,14.4057892 13.2707434,13.8057823 C14.4487956,13.007557 15.2931191,11.8049281 15.6437237,10.4257809 C15.7789414,9.98109273 15.865854,9.52313018 15.9029569,9.05982166 C16.0017689,8.56422031 16.0219569,8.05615439 15.9627799,7.55427533 Z M6.72012124,6.04872899 C7.26849904,6.04872899 7.79693584,6.04872899 8.30543162,5.96896494 C8.47645433,5.3642463 8.70343288,4.7767724 8.98342599,4.21415596 C9.43989961,3.23920746 10.0680798,2.35435145 10.83794,1.60188351 C10.9652457,1.456617 11.1054011,1.32313558 11.2567013,1.20306328 L10.9775271,1.10335823 C10.6883824,1.00365318 10.3792968,0.913918623 10.0602406,0.834154583 C8.97214448,0.578425884 7.85779845,0.45126327 6.74006225,0.455275362 C5.61998747,0.448144284 4.50274255,0.568565895 3.40991339,0.814213573 C3.0775632,0.893977613 2.76847753,0.983712161 2.48265637,1.08341722 C2.17278526,1.1872504 1.86974884,1.31046301 1.57534036,1.45232592 C1.31916925,1.57868763 1.07547628,1.72890932 0.847493454,1.90099867 C0.658624015,2.06482478 0.488123841,2.24869751 0.338997675,2.44937647 C0.278526705,2.5345828 0.225170593,2.62462124 0.179469579,2.71858013 C0.0867592526,2.8737795 0.0289223494,3.04729021 0.00997098637,3.22707591 C0.00997098637,4.77250427 3.00112266,6.03875848 6.72012124,6.04872899 Z M8.67434033,11.8415927 C8.01220631,11.9153212 7.34646507,11.9519369 6.68023922,11.9512683 C3.75888109,11.9512683 1.35598925,11.2633034 4.88744263e-07,10.1864888 L4.88744263e-07,12.7987612 C4.88744263e-07,14.3441896 2.99115216,15.6004733 6.68023922,15.6204143 C7.90049162,15.6299939 9.11690666,15.4825497 10.2995327,15.1817121 C10.2995327,15.002243 10.2995327,14.7330393 10.3493853,14.4040126 C9.71056462,13.7413526 9.18207325,12.9805943 8.78401589,12.1506784 C8.74413387,12.0509733 8.71422235,11.9412978 8.67434033,11.8415927 L8.67434033,11.8415927 Z M6.70018023,10.8345717 C7.2229746,10.83414 7.74541915,10.8075187 8.2655496,10.7548076 C7.92993719,9.5819477 7.85842912,8.34928484 8.05616897,7.1454846 C7.62743723,7.1454846 7.17876448,7.19533714 6.72012124,7.19533712 C4.94910405,7.22442716 3.18898774,6.91302197 1.53545834,6.27805061 C1.11746493,6.10197056 0.719670279,5.88134496 0.348968172,5.61999725 C0.232867957,5.56622511 0.119709144,5.5063175 0.00997098637,5.44052815 L0.00997098637,8.01291858 C0.00997098637,9.55834694 3.00112266,10.8246011 6.70018023,10.8345717 L6.70018023,10.8345717 Z" id="蒙版" fill="#838C95" fill-rule="nonzero"></path>
    </g>
</svg>