<?xml version="1.0" encoding="UTF-8"?>
<svg width="16px" height="16px" viewBox="0 0 16 16" version="1.1" xmlns="http://www.w3.org/2000/svg" xmlns:xlink="http://www.w3.org/1999/xlink">
    <title>icon-entry-fill</title>
    <g id="页面-1" stroke="none" stroke-width="1" fill="none" fill-rule="evenodd">
        <g id="zCloud-icon更新对照表" transform="translate(-1878.000000, -1955.000000)" fill="#000000" fill-rule="nonzero">
            <g id="icon-entry-fill" transform="translate(1878.000000, 1955.000000)">
                <rect opacity="0" x="0" y="0" width="16" height="16"></rect>
                <path d="M8.6664,6.9336 L3.3336,6.9336 C2.96533653,6.9336 2.6668,6.63506347 2.6668,6.2668 C2.6668,5.89853653 2.96533653,5.6 3.3336,5.6 L8.6664,5.6 C9.03466347,5.6 9.3332,5.89853653 9.3332,6.2668 C9.3332,6.63506347 9.03466347,6.9336 8.6664,6.9336 M2.6664,8.9336 C2.6664,8.5656 2.9648,8.2664 3.3336,8.2664 L6,8.2664 C6.36826347,8.2664 6.6668,8.56493653 6.6668,8.9332 C6.6668,9.30146347 6.36826347,9.60000048 6,9.60000048 L3.3336,9.60000048 C3.15672116,9.60021234 2.98701412,9.53009629 2.8618668,9.40509903 C2.73671948,9.28010176 2.6664,9.11047897 2.6664,8.9336 M3.3336,10.9336 L6,10.9336 C6.36804256,10.9336 6.6664,11.2319574 6.6664,11.6 C6.6664,11.9680426 6.36804256,12.2664 6,12.2664 L3.3336,12.2664 C2.96555744,12.2664 2.6672,11.9680426 2.6672,11.6 C2.6672,11.2319574 2.96555744,10.9336 3.3336,10.9336 M14.6656,1.59999975 L1.3344,1.59999975 C0.6,1.59999975 0.0024,2.1936 0,2.928 L0,13.6048 C0.0024,14.34 0.6,14.9344 1.3344,14.9328032 L14.6656,14.9328032 C15.4008,14.9344 15.9976,14.34 16,13.6048 L16,2.928 C15.9969152,2.19334868 15.4002577,1.59955282 14.6656,1.59999975"></path>
            </g>
        </g>
    </g>
</svg>