<?xml version="1.0" encoding="UTF-8"?>
<svg width="16px" height="16px" viewBox="0 0 16 16" version="1.1" xmlns="http://www.w3.org/2000/svg" xmlns:xlink="http://www.w3.org/1999/xlink">
    <title>icon-edit-fill</title>
    <g id="页面-1" stroke="none" stroke-width="1" fill="none" fill-rule="evenodd">
        <g id="zCloud-icon更新对照表" transform="translate(-1878.000000, -1155.000000)" fill="#000000" fill-rule="nonzero">
            <g id="icon-edit-fill" transform="translate(1878.000000, 1155.000000)">
                <rect id="矩形" opacity="0" x="0" y="0" width="16" height="16"></rect>
                <path d="M15.496,4.232 L11.6872,0.4224 C11.1471851,-0.113857784 10.2749678,-0.111710347 9.7376,0.4272 L8.2856,1.8792 L9.2528,2.8416 L9.2736,2.8376 L13.0808,6.6432 L13.7336,7.2984 L14.0536,7.6184 L15.492,6.1808 C16.0308183,5.64370683 16.032966,4.77174091 15.4968,4.232 M3.5752,14.8352 L3.2824,14.5416 L1.3784,12.6312 L1.0752,12.3264 L0.1976,11.3912 L0,11.18 L0,14.5448 C0,15.3024 0.616,15.9176 1.3728,15.9176 L4.696,15.9176 L4.4448,15.676 L3.5752,14.836 L3.5752,14.8352 Z M8.2976,3.8112 L7.3224,2.8416 L0.4224,9.7408 L1.3984,10.716 L5.2024,14.524 L6.1768,15.4944 L13.0512,8.62 L12.104,7.6184 L8.2976,3.812 L8.2976,3.8112 Z" id="形状"></path>
            </g>
        </g>
    </g>
</svg>