<?xml version="1.0" encoding="UTF-8"?>
<svg width="16px" height="16px" viewBox="0 0 16 16" version="1.1" xmlns="http://www.w3.org/2000/svg" xmlns:xlink="http://www.w3.org/1999/xlink">
    <title>icon-monitor-screen-fill</title>
    <g id="恩墨图标库" stroke="none" stroke-width="1" fill="none" fill-rule="evenodd">
        <g id="zCloud-icon更新对照表" transform="translate(-1131.000000, -655.000000)" fill="#000000" fill-rule="nonzero">
            <g id="icon-monitor-screen-fill" transform="translate(1131.000000, 655.000000)">
                <rect id="矩形" opacity="0" x="0" y="0" width="16" height="16"></rect>
                <path d="M14.72,0.8 C15.4269245,0.8 16,1.37307552 16,2.08 L16,11.4664 C16,12.1733245 15.4269245,12.7464 14.72,12.7464 L8.64,12.7464 L8.64,13.92 L11.4136,13.92 C11.7670622,13.92 12.0536,14.2065378 12.0536,14.56 L12.0536,14.7736 C12.0536,14.9433386 11.9861716,15.1061251 11.8661483,15.2261483 C11.7461251,15.3461716 11.5833386,15.4136 11.4136,15.4136 L4.6936,15.4136 C4.34013776,15.4136 4.0536,15.1270622 4.0536,14.7736 L4.0536,14.56 C4.0536,14.2065378 4.34013776,13.92 4.6936,13.92 L7.1464,13.92 L7.1464,12.7464 L1.28,12.7464 C0.57307552,12.7464 0,12.1733245 0,11.4664 L0,2.08 C0,1.37307552 0.57307552,0.8 1.28,0.8 L14.72,0.8 Z M12.9272,4.2376 C12.6809683,4.17182834 12.4183358,4.2419043 12.2376,4.4216 L9.6296,7.0168 L7.3488,4.7448 C7.07019551,4.46799039 6.62071947,4.46692021 6.3408,4.7424 L2.84,8.192 C2.70545392,8.32441367 2.62928711,8.50502844 2.62837796,8.69380137 C2.62748499,8.88257429 2.70192411,9.06390795 2.8352,9.1976 C2.96843535,9.33234749 3.14974745,9.40864014 3.33924004,9.40970137 C3.52873262,9.41074062 3.71087925,9.33646238 3.8456,9.2032 L6.8408,6.2512 L9.1256,8.5248 C9.25944288,8.65875362 9.44103926,8.73401729 9.6304,8.73401729 C9.81976074,8.73401729 10.0013571,8.65875362 10.1352,8.5248 L13.2472,5.4264 C13.4282273,5.24717144 13.4991527,4.9845837 13.4329798,4.73858593 C13.3668069,4.49258816 13.1737146,4.30102065 12.9272,4.2368 L12.9272,4.2376 Z" id="形状"></path>
            </g>
        </g>
    </g>
</svg>