<?xml version="1.0" encoding="UTF-8"?>
<svg width="16px" height="16px" viewBox="0 0 16 16" version="1.1" xmlns="http://www.w3.org/2000/svg" xmlns:xlink="http://www.w3.org/1999/xlink">
    <title>icon-storage-flii</title>
    <g id="恩墨图标库" stroke="none" stroke-width="1" fill="none" fill-rule="evenodd">
        <g id="zCloud-icon更新对照表" transform="translate(-1878.000000, -1755.000000)">
            <g id="icon-storage-flii" transform="translate(1878.000000, 1755.000000)">
                <rect x="0" y="0" width="16" height="16"></rect>
                <path d="M8.8144303,6.15898438 C8.8144303,5.69955611 8.44154322,5.32666903 7.98211496,5.32666903 C7.52268669,5.32666903 7.14983513,5.69955611 7.14983513,6.15898438 C7.14983513,6.61841264 7.5227222,6.99129972 7.98215047,6.99129972 C8.44157873,6.99129972 8.8144303,6.61841264 8.8144303,6.15898438 Z M2.82188768,0 C1.90303115,0 1.15731027,0.745720881 1.15731027,1.66457741 L1.15731027,14.315483 C1.15731027,15.2343395 1.90303115,15.9800604 2.82188768,15.9800604 L13.1423955,15.9800604 C14.061252,15.9800604 14.8069729,15.2343395 14.8069729,14.315483 L14.8069729,1.66457741 C14.8069729,0.745720881 14.061252,0 13.1423955,0 L2.82188768,0 Z M7.98216822,1.66457741 C10.4657265,1.66457741 12.4765752,3.67542614 12.4765752,6.15898437 C12.4765752,7.45403054 11.9302506,8.62256747 11.0516995,9.4415483 C10.6022499,9.10161577 10.1827719,8.76873224 9.94308797,8.52602983 C9.22762277,7.81026278 8.06876268,7.81026278 7.35296013,8.52602983 C6.81063058,9.06869673 6.68044592,9.87100497 6.96009791,10.5368786 C4.96922433,10.0741122 3.48776126,8.28966619 3.48776126,6.15898437 C3.48776126,3.67542614 5.49857447,1.66457741 7.98216822,1.66457741 L7.98216822,1.66457741 Z M2.82188768,13.4832209 C2.82188768,13.0237926 3.19477476,12.6509055 3.65420302,12.6509055 C4.11363129,12.6509055 4.48651836,13.0237926 4.48651836,13.4832209 C4.48651836,13.9426491 4.11363129,14.3155362 3.65420302,14.3155362 C3.19477476,14.3155362 2.82188768,13.9426491 2.82188768,13.4832209 L2.82188768,13.4832209 Z M8.29843243,9.4715554 C8.49818385,9.27144886 8.82078683,9.27144886 9.02417817,9.4715554 C9.14102831,9.59140625 12.4136135,11.8951882 12.7928394,12.2747159 C13.2586064,12.7441229 13.2586064,13.4998402 12.7928394,13.9659624 C12.3267705,14.4317294 11.5707158,14.4317294 11.1015929,13.9659624 C10.7020901,13.5664595 8.40794947,10.3038707 8.29843243,10.1973011 C8.09868101,9.99421165 8.09868101,9.67130682 8.29843243,9.4715554 Z" fill="#000000" fill-rule="nonzero"></path>
            </g>
        </g>
    </g>
</svg>