<?xml version="1.0" encoding="UTF-8"?>
<svg width="16px" height="16px" viewBox="0 0 16 16" version="1.1" xmlns="http://www.w3.org/2000/svg" xmlns:xlink="http://www.w3.org/1999/xlink">
    <title>icon-postgre-sql-fill</title>
    <g id="恩墨图标库" stroke="none" stroke-width="1" fill="none" fill-rule="evenodd">
        <g id="zCloud-icon更新对照表" transform="translate(-453.000000, -705.000000)" fill="#000000" fill-rule="nonzero">
            <g id="icon-postgre-sql-fill" transform="translate(453.000000, 705.000000)">
                <rect id="矩形" opacity="0" x="0" y="0" width="16" height="16"></rect>
                <path d="M7.78021113,0.206283141 L6.96707177,0.443748609 C5.7477625,0.979445141 4.99299008,2.5233705 4.9354227,4.18722794 C5.22565828,4.06809542 5.51589386,3.89059598 5.86289728,3.82983041 C7.489176,3.35489945 7.78021113,4.42549297 7.95451239,5.7311533 C8.07044672,6.26684983 8.07044672,6.92007977 7.89614545,7.39501072 C7.78101067,7.81077519 7.60590988,8.16817272 7.48997555,8.52397117 L7.14137303,9.65293161 L7.20053952,9.65293161 C7.37404123,9.59376512 7.49077509,9.71289764 7.6642768,9.71289764 C8.36148183,10.0095296 8.2455475,10.6635591 8.24554752,11.5542545 C8.24554752,13.2181119 8.01367888,15.5351993 9.34892245,15.9509638 C9.75509236,16.0700963 10.1612623,15.8909977 10.5098648,15.8318313 C12.135344,15.2969343 11.8451084,13.3364449 12.1353439,11.4359215 C12.2512783,10.960191 12.0777765,10.3069611 12.3096452,9.95036313 C12.4255795,9.71289766 12.6582477,9.65293162 12.8901164,9.47463262 C12.1937109,8.34727128 11.4389385,7.21751128 11.0911355,5.85028581 C10.5682317,4.18722794 11.4389385,3.53319844 13.0644176,3.59396402 C12.2512783,1.7502085 10.7993008,0.147116656 8.24554752,0.147116656 L7.78101067,0.206283141 L7.78021113,0.206283141 Z M14.1877812,10.2637856 C13.8399783,10.1902272 13.632096,9.9703518 13.3538537,9.89599392 C13.0060507,10.1166689 12.7973689,10.1902272 12.7973689,10.8498536 C13.7712172,11.3631628 15.6469546,10.7035365 15.9955571,10.1166689 C15.4390724,10.1166689 14.8138266,10.3365443 14.1885808,10.2637856 L14.1877812,10.2637856 L14.1877812,10.2637856 Z M7.02304006,10.3869158 L6.22109436,11.2824085 C5.9124692,11.5382636 5.23365375,11.6022273 4.80189834,11.7301549 L4.86426302,11.7941186 C5.85010453,12.1139375 6.59048511,12.0483746 7.27010011,11.4742998 C7.57792572,11.0905172 7.70185552,10.3869158 7.02224052,10.3869158 L7.02304006,10.3869158 Z M12.8773236,5.53126653 C12.9460847,5.28980331 13.0084493,4.81167419 13.0636181,4.1032755 C12.4063904,4.04250992 11.9602431,4.13845558 11.660413,4.55901731 C11.482114,4.85884745 11.5380823,5.488091 11.5980483,5.78712159 C11.8978785,6.62744555 12.0298037,6.98164489 12.4495659,7.70123725 L12.8045648,8.11140489 C12.8629318,8.11140489 13.1203859,7.13515794 13.0004539,6.59466413 C12.850139,6.12852819 12.8085626,5.77512839 12.8773236,5.53206608 L12.8773236,5.53126653 Z M6.12914645,4.55821777 C5.80852808,4.66215889 5.1105235,4.96358812 4.93862089,5.08112155 L4.93862089,6.16051008 C4.82428566,6.63464148 4.76751783,7.16713983 4.82428566,7.63967213 C4.99538872,8.58633584 5.49510564,9.37948652 6.52492225,9.37948652 L6.88231978,8.49838567 C7.05342284,8.0842203 7.23412048,7.63327575 7.34845572,7.15994389 C7.63469356,6.44994611 7.28209331,5.04434238 6.88231978,4.68934348 C6.71041717,4.57101052 6.45056437,4.45587575 6.13074555,4.55821777 L6.12914645,4.55821777 Z M11.7835432,4.86764248 C11.7835432,4.74531178 11.9042748,4.64536841 11.9842295,4.58220419 C12.2033054,4.42869116 12.7597902,4.4990513 12.8301503,4.68934348 C12.5822907,5.17946583 12.4479668,5.12429708 12.2320891,5.16907172 C11.8602998,5.16907172 11.8419102,5.05713512 11.7843428,4.86684294 L11.7843428,4.86764248 L11.7835432,4.86764248 Z M6.71441491,5.46330503 C6.41698341,5.87107403 5.46792105,5.76713291 5.43512808,5.31378973 C5.43354052,5.20265269 5.5982472,5.09151566 5.93085878,4.97877952 C6.42897659,4.81087464 6.77038319,4.86764247 6.93269125,5.08112155 L6.71441491,5.46490413 L6.71441491,5.46330503 L6.71441491,5.46330503 Z M2.07144514,0.399773531 C1.31427408,0.575673875 0.672237797,1.04740664 0.323635281,1.75580534 C-0.609436141,3.87700367 0.732203828,7.88353398 1.43100795,9.53220002 C1.66287659,10.0630993 2.12981208,11.1824651 2.77104881,11.359165 C3.06208394,11.477498 3.29555169,11.1832647 3.41068647,11.0633326 L4.81069336,9.47383308 C4.34455742,8.94373337 3.76168763,8.29530072 3.93678842,7.17593483 L4.0519232,6.23246931 L3.99435581,4.40630383 C4.28619048,2.58013834 4.51885869,1.93250523 5.33599577,0.753972875 C4.36374655,0.439750875 3.56819723,0.282240109 2.94614962,0.282240109 L2.07144514,0.401372625 L2.07144514,0.399773531 Z M10.7985013,0.0431755469 C11.2619244,0.293804575 11.722493,0.549676054 12.1801186,0.810740719 C13.0508253,1.46477022 13.6081096,2.52896734 13.8415774,3.7770603 C13.9567121,4.31035819 13.7632218,5.19465723 13.7040553,5.66958817 C13.5889205,6.44195063 14.0158786,6.99683628 13.8399783,7.82676614 C13.8023995,8.06423161 13.6280983,8.50877978 13.3186736,9.16121017 C13.9231312,9.02768581 14.2901233,8.51197797 14.4652241,8.15537998 C15.1592309,6.96725306 15.3175412,5.68078184 15.6669433,4.13685647 C15.7820781,3.54119391 15.6973261,2.38824706 15.4654574,1.79418359 C15.3495231,1.49675209 15.0592875,1.25848706 14.8274189,1.02102159 C13.9567121,0.368591187 13.3890337,0.0111936562 11.7651537,0.0111936562 C11.4781163,0.0111936562 11.0855387,-0.0287837031 10.7985013,0.0431755469 Z" id="形状"></path>
            </g>
        </g>
    </g>
</svg>