<?xml version="1.0" encoding="UTF-8"?>
<svg width="16px" height="16px" viewBox="0 0 16 16" version="1.1" xmlns="http://www.w3.org/2000/svg" xmlns:xlink="http://www.w3.org/1999/xlink">
    <title>icon-alarm-home-fill</title>
    <g id="恩墨图标库" stroke="none" stroke-width="1" fill="none" fill-rule="evenodd">
        <g id="zCloud-icon更新对照表" transform="translate(-1131.000000, -605.000000)" fill="#000000" fill-rule="nonzero">
            <g id="icon-alarm-home-fill" transform="translate(1131.000000, 605.000000)">
                <rect id="矩形" opacity="0" x="0" y="0" width="16" height="16"></rect>
                <path d="M14.1424,3.2536 C14.6864,3.5736 15.1384,4.3464 15.1384,4.9736 L15.1384,11.0136 C15.1384,11.64 14.7,12.4136 14.1544,12.7336 L8.9304,15.76 C8.3856,16.08 7.4936,16.08 6.9488,15.76 L1.7232,12.7336 C1.1784,12.4136 0.7392,11.64 0.7392,11.0136 L0.7392,4.9736 C0.7392,4.3464 1.1784,3.5736 1.7232,3.2536 L6.9352,0.24 C7.4792,-0.08 8.3712,-0.08 8.9168,0.24 L14.1424,3.2536 Z M7.7992,10.716 C7.64037079,10.7169198 7.48817172,10.6523943 7.3784,10.5376 C7.26490733,10.4194325 7.2010562,10.2622384 7.2,10.0984 C7.2,9.7576 7.4688,9.48 7.8,9.48 C8.1312,9.48 8.4,9.7576 8.4,10.0984 C8.39914842,10.2625155 8.33528252,10.4200323 8.2216,10.5384 C8.11130855,10.6533059 7.95846429,10.71757 7.7992,10.716 L7.7992,10.716 Z M7.9416,3.99998099 C7.5496,3.99998099 7.188,4.2048 6.9976,4.5352 L4.0696,9.6832 C3.9832,9.8336 3.9384,10.0032 3.9384,10.1744 C3.9384,10.7416 4.4208,11.2 5.0136,11.2 L10.864,11.2 C11.0432,11.2 11.2184,11.1576 11.376,11.0768 C11.6264,10.9488 11.8128,10.7288 11.8944,10.4672 C11.9752,10.2056 11.9448,9.9232 11.8088,9.6832 L8.8856,4.536 C8.68890737,4.20190239 8.32929057,3.99771318 7.9416,3.99998099 Z M7.7992,6.4016 C8.1312,6.4016 8.4,6.6816 8.4,7.0264 L8.4,8.24 C8.4,8.5864 8.1312,8.86640041 7.8,8.86640041 C7.63957746,8.86659047 7.48618028,8.80060074 7.376,8.684 C7.26266277,8.56398467 7.19967052,8.4050724 7.19999871,8.24 L7.19999871,7.0264 C7.19999871,6.68 7.4688,6.4 7.8,6.4 L7.8,6.4016 L7.7992,6.4016 Z" id="形状"></path>
            </g>
        </g>
    </g>
</svg>