<?xml version="1.0" encoding="UTF-8"?>
<svg width="16px" height="16px" viewBox="0 0 16 16" version="1.1" xmlns="http://www.w3.org/2000/svg" xmlns:xlink="http://www.w3.org/1999/xlink">
    <title>icon-filter-fill</title>
    <g id="页面-1" stroke="none" stroke-width="1" fill="none" fill-rule="evenodd">
        <g id="zCloud-icon更新对照表" transform="translate(-1878.000000, -1455.000000)">
            <g id="icon-filter-fill" transform="translate(1878.000000, 1455.000000)">
                <path d="M10.67944,8.1144 L10.67944,14.624 C10.67704,15.3816 10.06024,15.9984 9.30264,16 L9.30104,16 C8.93064,16 8.57144,15.8472 8.31384,15.5808 L6.12984,13.3248 C5.88024,13.0664 5.74264,12.7272 5.74264,12.3672 L5.74264,8.1168 L1.20424,3.7376 C0.57464,3.108 0.38904,2.1712 0.73064,1.3496 C1.07064,0.5296 1.86424,0 2.75304,0 L2.75704,0 L13.24584,0 C14.13544,0 14.92984,0.5312 15.26984,1.3536 C15.60904,2.1688 15.42664,3.1 14.80504,3.7272 L10.67944,8.1144 Z" id="Fill-2" fill="#000000"></path>
            </g>
        </g>
    </g>
</svg>